<svg version="1.2" xmlns="http://www.w3.org/2000/svg" viewBox="0 0 800 800" width="800" height="800">
	<title>instagram</title>
	<style>
		.s0 { fill: none;stroke: #654640;stroke-miterlimit:100;stroke-width: 45 } 
		.s1 { fill: none;stroke: #654640;stroke-linecap: round;stroke-linejoin: round;stroke-width: 55 } 
		.s2 { fill: none;stroke: #781d0b;stroke-miterlimit:100 } 
		.s3 { fill: #654640 } 
	</style>
	<g id="Layer 1">
		<path id="Shape 4" fill-rule="evenodd" class="s0" d="m251 158.2l299 0.7c53.1 0.1 96 43.1 95.8 96.2l-0.6 290.6c-0.1 53-43.2 95.9-96.2 95.8l-299-0.6c-53-0.2-95.9-43.2-95.8-96.3l0.6-290.6c0.2-53 43.2-95.9 96.2-95.8z"/>
		<path id="Shape 3" fill-rule="evenodd" class="s1" d=""/>
		<path id="Shape 2" fill-rule="evenodd" class="s2" d=""/>
		<path class="s3" d="m308.9 372.7m165.8-50m66.1-92.7c11.2 0 21.3 6.8 25.6 17.1 4.3 10.4 1.9 22.3-6 30.2-8 8-19.9 10.4-30.3 6.1-10.3-4.3-17.1-14.4-17.1-25.6 0-15.3 10.3-27.8 27.8-27.8z"/>
		<path id="Shape 5" fill-rule="evenodd" class="s0" d="m400.2 512.4c-62.1 0-112.2-50.2-112.2-112.2 0-62.1 50.1-112.2 112.2-112.2 62 0 112.2 50.1 112.2 112.2 0 62-50.2 112.2-112.2 112.2z"/>
		<path id="Shape 7" fill-rule="evenodd" class="s3" d="m-461.5 256c-0.3 0-0.5-0.2-0.5-0.5 0-0.3 0.2-0.5 0.5-0.5 0.3 0 0.5 0.2 0.5 0.5 0 0.3-0.2 0.5-0.5 0.5z"/>
	</g>
</svg>