<svg version="1.2" xmlns="http://www.w3.org/2000/svg" viewBox="0 0 405 369" width="513" height="467">
	<title>main-circle-with-flowers</title>
	<defs>
		<linearGradient id="g1" x2="1" gradientUnits="userSpaceOnUse" gradientTransform="matrix(63.059,0,0,50.356,212.646,145.158)">
			<stop offset="0" stop-color="#8f9e8a"/>
			<stop offset="1" stop-color="#8f9e8a"/>
		</linearGradient>
		<linearGradient id="g2" x2="1" gradientUnits="userSpaceOnUse" gradientTransform="matrix(34.371,0,0,57.892,170.413,162.367)">
			<stop offset="0" stop-color="#8f9e8a"/>
			<stop offset="1" stop-color="#8f9e8a"/>
		</linearGradient>
		<linearGradient id="g3" x2="1" gradientUnits="userSpaceOnUse" gradientTransform="matrix(44.869,0,0,62.957,200.891,200.476)">
			<stop offset="0" stop-color="#8f9e8a"/>
			<stop offset="1" stop-color="#8f9e8a"/>
		</linearGradient>
		<linearGradient id="g4" x2="1" gradientUnits="userSpaceOnUse" gradientTransform="matrix(38.039,0,0,70.963,185.343,90.645)">
			<stop offset="0" stop-color="#8f9e8a"/>
			<stop offset="1" stop-color="#8f9e8a"/>
		</linearGradient>
		<linearGradient id="g5" x2="1" gradientUnits="userSpaceOnUse" gradientTransform="matrix(44.446,0,0,44.546,156.538,233.956)">
			<stop offset="0" stop-color="#8f9e8a"/>
			<stop offset="1" stop-color="#8f9e8a"/>
		</linearGradient>
	</defs>
	<style>
		.s0 { fill: #eeebe7 } 
		.s1 { fill: #d3cfc9 } 
		.s2 { fill: url(#g1) } 
		.s3 { fill: url(#g2) } 
		.s4 { fill: url(#g3) } 
		.s5 { fill: #3d4853 } 
		.s6 { fill: url(#g4) } 
		.s7 { fill: #657260 } 
		.s8 { fill: url(#g5) } 
		.s9 { fill: #f65c49 } 
		.s10 { fill: #fc8c83 } 
		.s11 { fill: #dfb422 } 
		.s12 { fill: #576570 } 
		.s13 { fill: #adc185 } 
		.s14 { fill: #e6c5aa } 
		.s15 { fill: #d3a584 } 
		.s16 { fill: #8f9e8a } 
		.s17 { fill: #717f6b } 
	</style>
	<g id="Layer 1">
		<path class="s0" d="m339.5 198.5c0-93.7-75.9-169.7-169.6-169.7-93.7 0-169.6 76-169.6 169.7 0 93.6 75.9 169.6 169.6 169.6 93.7 0 169.6-76 169.6-169.6z"/>
		<path class="s1" d="m126.3 294.3c-1.3-2.6-2.8-5.1-4.4-7.6q0 0 0-0.1c0.6-7.2 2-13 5-19.5 2-4.2 3.5-8.6 4.5-13 3.2-3.3 12.7-13.7 5.8-14.6-6.9-0.9-6.9 11.3-6.7 14.7-3.4 10.4-10.2 18.7-10.4 29.8q-1.4-2.1-2.8-4.3-0.4-0.6-0.9-1.3c0.2-5.7-0.2-11.2 0.4-16.8 0.8-6.6 3-13.2 4.6-19.5 2.6-11 5.1-24.8 2.9-36.3 3.3-8.4-1.3-19.7-4.3-13.2-2.3 4.9 0.7 10.1 2.6 12.7 1.3 11.8-0.4 23.7-3.2 35.2-0.9-9.6-4.2-19-6.9-28.1q-1.9-6.2-3.8-12.5c0.8-3.9 2.4-7.5 3.2-11.4 0.7-3.2 1.4-6.5 1.9-9.8 4.8-6.1 5.2-15.5 0.6-13.4-3.9 1.7-2.5 9.9-1.8 13.1-0.8 3.9-1.6 7.8-2.7 11.5-0.7 2.3-1.7 4.5-2.2 6.8q-1.1-3.8-2.2-7.5 0-0.1-0.1-0.2-1.1-3.7-2.1-7.5c1.3-5.6-0.2-13.9-3.6-10.9-3 2.5 1 8.6 2.7 10.9q0.5 2.9 1.1 5.8c-0.7-0.7-1.4-1.3-2.1-2-1.7-1.7-3-3.8-4.7-5.5-1.2-1.2-2.3-2.6-3.3-3.9-6.3-12.7-10.9-9.7-10.1-7.1 0.5 1.8 5.1 4.5 7.9 6q0.5 0.8 1.2 1.6c1.2 1.4 2.3 2.7 3.6 4.1 1.7 1.7 3.1 3.7 4.7 5.5 1 1 2.1 1.8 3.2 2.7 1 4.3 2.3 8.5 3.6 12.6q0 0.3 0.1 0.5 0 0.1 0.1 0.2 1.4 4.3 2.8 8.7c1.6 5.3 3.6 10.5 4.7 15.9 1.1 5.5 2.9 11 3.5 16.6q-0.2 0.7-0.3 1.3c-1.6 5.8-3.2 12.3-3.7 18.4-0.4 4.6 0.2 9.1 0.5 13.7-1.8-2.5-3.8-5-5.8-7.2-3.4-3.9-7.2-7.8-9.7-12.4-2.3-4.4-3.8-9.1-5.5-13.6q-2-5-3.5-10.2c1-10.1 5.4-19.7 6.5-29.7 4.1-7.8 1.7-14.1-1.2-10.2-1.9 2.5-0.8 6 0.2 8.2-0.6 3.8-1.5 7.6-2.3 11.4-1.4 6.1-3.4 12.2-3.7 18.5-2-7.6-3.4-15.5-4.2-23.4 0.9-4.2 1.9-11.6-1.9-11.4-4.5 0.2-0.7 9.9 0.7 13.2 0.3 4.4 0.8 8.7 1.4 13 0.8 5.1 3 10.4 4.4 15.4 1.4 4.7 2.8 9.4 4.7 13.9-5.2-5.8-12.4-9-19-12.9-0.1-0.4-0.1-0.8-0.2-1.4-0.2-3.4-1.4-7.8-2-11.1-0.9-5.2-1.8-10.6-3.2-15.7 1-3.5 4-16.3-3.9-16.5-8.5-0.2 1.8 14.8 3.4 17.1 0.9 4.1 1.5 8.2 2.2 12.3q0.7 4.5 1.4 9c0.1 1.2 1.1 3.9 1.2 5.7-4.2-2.5-8.1-5.4-11.1-9.6q-0.1 0-0.1-0.1c-0.4-3.1-2-8.7-7.7-13-8.3-6.2-1.8 13.8 7.8 15.3q0 0 0-0.4c5.6 11.6 21.6 15.3 31 22.5 0.3 0.2 0.6 0.1 0.7-0.1 1.8 3.9 4 7.6 6.7 11 6.8 8.2 12.9 16.4 19 25.1 1.6 2.2 3 4.5 4.3 6.9-5.5-3.4-11.8-6.8-18.3-8.1-1.8-2.4-6-7.1-12.7-6-8.5 1.3 7.7 8.5 12.9 7.6 2 0.8 3.9 1.5 6 2.1 4.8 1.4 8.7 3.5 13 6q1.4 2.5 2.8 5.1c2.6 4.7 6.7 11.7 6.7 17.1 0 0.1 0.1 0.1 0.2 0 0.3-4.6-2.4-9.2-3.9-13.5-1.6-4.3-4.1-8.1-6.2-12.2z"/>
		<path class="s1" d="m177.3 283c1.6-3.3 3.6-6.5 5.6-9.7q0 0 0-0.1 0 0-0.1 0c-0.7-9.2-2.5-16.5-6.3-24.7q-3.8-8-5.7-16.5c-4-4.1-16-17.3-7.4-18.4 8.9-1.1 8.8 14.3 8.6 18.6 4.2 13.2 12.9 23.7 13.1 37.8q1.8-2.8 3.5-5.5 0.6-0.8 1.2-1.7c-0.2-7.2 0.3-14.2-0.5-21.3-1-8.3-3.8-16.6-5.8-24.7-3.3-13.9-6.5-31.2-3.7-45.8-4.1-10.6 1.7-24.9 5.5-16.7 2.9 6.2-0.9 12.8-3.3 16-1.6 14.9 0.5 30.1 4 44.5 1.1-12 5.4-24 8.8-35.4q2.4-7.9 4.8-15.8c-1.1-5-3.1-9.6-4.2-14.6-0.8-3.9-1.7-8.1-2.4-12.3-5.9-7.7-6.4-19.6-0.7-17 4.9 2.2 3.2 12.6 2.3 16.7 1.1 4.8 2.1 9.8 3.5 14.5 0.9 2.9 2.1 5.7 2.7 8.6q1.5-4.8 2.9-9.5 0-0.2 0-0.3 1.4-4.7 2.7-9.4c-1.6-7.1 0.2-17.6 4.6-13.9 3.7 3.2-1.3 11-3.4 13.9q-0.7 3.6-1.5 7.2c0.9-0.8 1.9-1.5 2.7-2.4 2.1-2.2 3.8-4.8 6-7 1.5-1.5 2.8-3.2 4.1-4.9 8-16.1 13.7-12.3 12.8-9-0.7 2.3-6.4 5.7-10 7.6q-0.7 1-1.6 2c-1.5 1.8-2.9 3.5-4.5 5.1-2.2 2.2-3.9 4.7-6 7-1.2 1.3-2.6 2.3-4 3.5-1.3 5.4-2.9 10.7-4.5 15.9-0.1 0.2-0.1 0.4-0.1 0.6q0 0.2-0.2 0.3c-1.2 3.6-2.3 7.3-3.5 11-2.1 6.7-4.6 13.3-6 20.1-1.4 7-3.7 13.9-4.4 21.1q0.2 0.7 0.4 1.5c2 7.4 4 15.6 4.7 23.3 0.5 5.8-0.2 11.5-0.6 17.3 2.2-3.1 4.7-6.3 7.2-9.1 4.4-5 9.2-9.8 12.3-15.7 2.9-5.5 4.8-11.4 7-17.2q2.5-6.3 4.4-12.8c-1.3-12.8-6.8-25-8.3-37.7-5.1-9.8-2.1-17.7 1.6-12.8 2.4 3.2 1 7.6-0.2 10.4 0.7 4.8 1.8 9.6 2.9 14.4 1.7 7.7 4.3 15.4 4.6 23.4 2.6-9.7 4.3-19.6 5.4-29.6-1.1-5.3-2.4-14.6 2.4-14.4 5.6 0.2 0.8 12.5-0.9 16.7-0.4 5.5-1.1 10.9-1.9 16.3-0.9 6.5-3.7 13.2-5.5 19.5-1.7 6-3.5 11.9-5.9 17.6 6.6-7.3 15.7-11.3 24.1-16.2 0-0.5 0.1-1.1 0.2-1.8 0.2-4.3 1.7-9.9 2.5-14.1 1.2-6.5 2.3-13.4 4.1-19.8-1.3-4.4-5.1-20.6 4.9-20.9 10.7-0.3-2.2 18.7-4.3 21.6-1.1 5.2-1.9 10.4-2.8 15.5q-0.9 5.7-1.7 11.4c-0.2 1.6-1.4 5-1.6 7.3 5.3-3.2 10.3-6.9 14.1-12.2q0 0 0.1 0c0.5-4 2.5-11.1 9.7-16.5 10.5-7.9 2.3 17.4-9.9 19.3q0 0 0-0.4c-7 14.5-27.3 19.2-39.1 28.4-0.4 0.3-0.8 0.1-1-0.1-2.2 4.9-5 9.6-8.4 13.8-8.6 10.5-16.3 20.8-24.1 31.8q-2.8 4.2-5.4 8.7c6.9-4.3 15-8.6 23.2-10.2 2.2-3.1 7.6-9 16-7.7 10.8 1.8-9.7 10.8-16.3 9.7-2.5 1-5 2-7.6 2.7-6.1 1.7-11 4.4-16.4 7.5q-1.8 3.3-3.6 6.4c-3.3 6.1-8.4 14.9-8.4 21.7 0 0.2-0.2 0.2-0.2 0-0.5-5.8 2.9-11.6 4.9-17 2-5.5 5.2-10.2 7.8-15.4z"/>
		<path class="s1" d="m252.7 289.8c1.5-1.4 3-2.7 4.6-4q0-0.1 0-0.1c1.2-4.9 1.5-9 0.9-14q-0.5-4.8-0.1-9.5c-1.4-2.8-5.4-11.8-0.7-10.9 4.8 1 2.1 9 1.3 11.1-0.1 7.7 2.6 14.6 0.3 22q1.4-1.1 2.8-2.2 0.5-0.4 0.9-0.7c1.1-3.8 2.6-7.4 3.4-11.2 0.9-4.5 0.9-9.3 1.2-13.9 0.7-7.8 2-17.4 6-24.5-0.4-6.2 5.1-12.7 5.7-7.7 0.4 3.7-2.7 6.5-4.5 7.7-3.4 7.5-4.9 15.8-5.5 23.9 2.6-6.1 6.9-11.6 10.6-16.9q2.6-3.8 5.2-7.5c0.3-2.7 0.1-5.4 0.4-8.2 0.2-2.3 0.5-4.6 0.8-6.9-1.8-5 0-11.3 2.6-8.9 2.1 1.9-0.5 7-1.7 9-0.3 2.7-0.6 5.5-0.7 8.2 0 1.7 0.1 3.3 0 4.9q1.5-2.2 3.1-4.4 0-0.1 0.1-0.2 1.5-2.2 3-4.4c0.3-4 3.1-9.2 4.7-6.4 1.4 2.3-2.5 5.4-4.1 6.6q-1 1.8-2 3.5c0.6-0.2 1.2-0.5 1.8-0.8 1.5-0.8 2.8-1.9 4.3-2.6 1.1-0.6 2.1-1.2 3-1.9 6.9-7 9.3-4 8.2-2.4-0.7 1-4.3 1.8-6.5 2.2q-0.5 0.4-1.2 0.8c-1.1 0.6-2.1 1.3-3.2 1.8-1.5 0.8-2.8 1.8-4.3 2.6-0.9 0.5-1.8 0.8-2.7 1.2q-2.4 3.9-5.1 7.5-0.1 0.2-0.1 0.3-0.1 0.1-0.2 0.1-1.8 2.6-3.7 5.2c-2.2 3.1-4.7 6.1-6.6 9.4-1.9 3.4-4.3 6.6-5.9 10.2q0 0.4 0 0.9c-0.2 4.2-0.6 8.8-1.6 12.9-0.7 3.1-2.1 6-3.3 9 1.7-1.3 3.6-2.5 5.4-3.6 3.1-1.8 6.4-3.5 9.1-6 2.4-2.4 4.4-5.2 6.6-7.8q2.4-2.9 4.4-5.9c1.6-6.9 0.8-14.2 2.2-21.1-1-5.9 1.9-9.6 3-6.4 0.7 2.1-0.8 4.2-1.9 5.4-0.4 2.6-0.7 5.3-0.9 8-0.5 4.3-0.5 8.8-1.6 13 3-4.6 5.6-9.5 7.8-14.5 0.4-3 1.3-8 3.8-7.1 2.8 1.1-1.8 6.7-3.4 8.5-1.1 2.8-2.4 5.6-3.7 8.3-1.6 3.2-4.3 6.2-6.3 9.2-1.9 2.8-3.8 5.6-6.1 8.1 4.7-2.7 10.1-3.2 15.4-4.3 0.1-0.3 0.2-0.5 0.4-0.9 0.9-2.2 2.6-4.9 3.7-6.9 1.7-3.2 3.5-6.6 5.5-9.6 0.1-2.6 0.9-11.7 6.2-10.1 5.6 1.7-4.4 9.3-6 10.5-1.4 2.5-2.8 5.1-4.1 7.6q-1.4 2.8-2.8 5.7c-0.4 0.8-1.6 2.3-2.1 3.5 3.3-0.8 6.5-1.8 9.4-3.9q0.1 0 0.1 0c0.9-2 3.2-5.4 7.9-7 6.8-2.3-1.8 9.5-8.5 8.4q0 0 0.1-0.2c-6.2 6.3-17.6 5.3-25.3 8.1-0.2 0-0.4-0.1-0.5-0.3-2 2.2-4.2 4.2-6.8 5.8-6.2 4-12 8.1-17.9 12.4-1.5 1.1-2.9 2.4-4.4 3.7 4.4-1.1 9.3-2 13.9-1.4 1.7-1.2 5.5-3.4 9.6-1.2 5.4 2.7-6.9 3.9-10.1 2.2-1.5 0.1-2.9 0.2-4.4 0.1-3.5-0.1-6.5 0.4-9.9 1.1q-1.5 1.4-2.9 2.7c-2.8 2.6-7 6.3-8.1 9.9-0.1 0.1-0.2 0-0.2 0 0.8-3.2 3.6-5.6 5.5-8.1 2-2.5 4.5-4.4 6.7-6.7z"/>
		<path class="s2" d="m267.2 150.9c3.4-0.8 7.9-2.2 7.8-5.7 2.5 10-1.7 21.5-10.1 27.5-4.4 3.1-9.7 4.8-14.1 7.9-4.1 2.9-7.6 7.1-12.4 8.7-5.9 2-12.2-0.4-18 1.4-3.2 1-5.2 3.3-7.8 4.9 0.2-7.1 10.3-16.5 16.5-18.9 3.7-1.5 8-1.1 11.1-3.9 2.9-2.5 4.4-7 7-9.9 5.3-5.8 12.3-10.1 20-12z"/>
		<path class="s3" d="m192 218.2c4.7 1.1 8.5-0.9 12.8 2.1-0.8-4.2-2.9-7.8-4.9-11.4-1.6-3.1-2.6-5.6-5.2-8.2-4.4-4.4-10.3-8-11.9-14-0.6-2.3-0.6-4.7-1.3-7-1-3.1-3.4-5.6-5.4-8.2-2.1-2.6-3.9-5.9-3.3-9.1-4 12.2-2.9 26.1 2.9 37.6 1.5 2.9 3.3 5.7 5.9 7.7 2.9 2.2 7.1 3.6 7.9 7.2 0.2 0.9 0.2 1.8 0.7 2.4 0.4 0.6 1.1 0.8 1.8 0.9z"/>
		<path class="s4" d="m218.4 252.9c-6.1 1.8-16.5 2.3-17.5 10.6 1.2-10.1 5.7-17.6 13.2-24.3 6.7-5.9 14.4-11.3 18.7-19.1 3.9-7 5.6-16.4 13-19.6-1.8 3-3.1 6.3-3.7 9.7-1.2 6.2-0.6 12.6-1.8 18.7-2.2 11.2-11 20.8-21.9 24z"/>
		<path class="s5" d="m176.7 182.4c1.2 3.2 1.4 6.9 3.1 10 2 3.8 4.8 6.3 7.8 9.2 1.6 1.6 2.5 3.5 4 5 1.3 1.3 2.8 2.3 4.3 3.2 3.8 2.4 5.9 6 8.1 9.8 0.1 0.2 0.4 0 0.3-0.2-0.6-2.6-2.6-5.8-4.4-7.8-1.1-1.2-2.8-1.9-4.1-2.8-2.4-1.5-3.6-3.3-5.4-5.4-2.9-3.5-6.7-5.9-9.1-9.9-2.1-3.5-2.8-7.6-4.6-11.1 0-0.1 0 0 0 0z"/>
		<path class="s5" d="m239.1 215.5c-2.7 1.6-3.7 6.7-4.6 9.5-2 5.8-5.1 11.1-10.2 14.6-2 1.4-4.3 2.2-6.2 3.5-2.3 1.5-3.9 3.4-5.9 5.1-3.3 2.9-7.6 4.6-10.4 8-0.2 0.2 0.1 0.6 0.4 0.5 1.3-0.6 2.4-1.8 3.5-2.6 2.4-1.7 4.9-3.2 7.2-5 2.1-1.6 4-3.6 6.3-5 1.9-1.2 4.1-2 6-3.4 3.6-2.7 6.2-6.5 8.1-10.6 1.9-4 2.1-11.9 5.9-14.5 0.1-0.1 0-0.2-0.1-0.1z"/>
		<path class="s5" d="m271.5 155.4c-4.8-0.2-8.1 4.9-10.8 8.1-1.4 1.6-2.9 3.2-4.2 4.9-2.8 3.4-6.1 5.8-9.7 8.2-5.2 3.7-11.6 4.8-17.7 6.4-5.9 1.6-9.9 4-13.7 8.7-0.1 0.2 0 0.3 0.2 0.2 2.7-2.1 4.8-4.2 8-5.7 3-1.4 6.3-2 9.4-2.8 4.8-1.3 9.7-2.4 13.8-5.1 4.5-2.9 8.4-6.4 11.6-10.7 3.4-4.6 7.3-10.8 13.2-12.2 0.1 0 0.1-0.2 0-0.2q-0.1 0-0.1 0c-0.2 0.1-0.2 0.2 0 0.2z"/>
		<path class="s6" d="m222.3 150c-1.2-5.2-3.6-10-7.4-14.1-1.9-2.2-4.2-4.1-5.6-6.6-1.6-2.7-2.1-5.9-2.6-9-1.2-6.3-3.2-12.5-6.7-17.9-3.5-5.3-8.6-9.8-14.7-11.8 4 8.3 3 17.9 3.4 27 0.3 9.2 2.7 19.4 10.6 24 2.5 1.5 5.4 2.3 8.1 3.5 3.9 1.7 7.4 4.3 10.2 7.4 2.7 2.9 3.5 6 5.7 9.1 0.2-4-0.1-7.9-1-11.6z"/>
		<path class="s5" d="m193.4 103c6.4 8.4 2.7 21.1 8.9 29.7 2.6 3.5 7.1 6.8 10.4 9.7 3.1 2.7 4.6 4.9 6.4 8.5 0.6 1.3 1.1 2.6 1.8 3.8 0.3 0.5 1 0.1 0.8-0.4-1-1.9-1.5-4.2-2.5-6.2-1.2-2.3-2.5-3.7-4.5-5.5-3.6-3.4-8.4-6.7-11.5-10.6-6.3-8.3-3.1-21-9.8-29.1 0 0 0 0 0 0.1z"/>
		<path class="s7" d="m190.9 114c1.9 1.7 2.5 3.8 3.4 6 0.9 2.1 1.3 3.3 3.1 4.8 0.1 0.2 0.3 0 0.2-0.2-1.9-2-2.8-4.2-3.7-6.7-0.6-1.7-1.5-2.9-2.9-4-0.1-0.1-0.2 0-0.1 0.1z"/>
		<path class="s7" d="m191 123.7c2.1 2.5 3.7 5.2 6.3 7.2 2.8 2.1 5.3 4.5 8.2 6.3 0.1 0.1 0.2-0.1 0.1-0.1-2.5-1.9-4.9-4.1-7.4-6-2.9-2.2-4.8-4.9-7.2-7.5 0 0-0.1 0.1 0 0.1z"/>
		<path class="s7" d="m198 106.4c0.1 3.4 0.6 6.9 1.3 10.3 0 0.1 0.3 0.1 0.3-0.1 0-3.4-1.2-6.8-1.6-10.2 0-0.1-0.1-0.1 0 0z"/>
		<path class="s7" d="m202 112.5c0 3.5 0.2 6.9 0.3 10.4 0 3 0.6 5.3 1.3 8.2 0 0.2 0.4 0.1 0.3-0.1-0.2-2.9-0.9-5.8-1.2-8.8-0.2-3.3-0.4-6.4-0.5-9.7 0-0.1-0.2-0.1-0.2 0z"/>
		<path class="s7" d="m191.1 105.3c0.8 1.3 1.5 2.5 2 4 0 0.1 0.1 0 0.1-0.1-0.2-1.4-1.2-2.7-2-3.9 0-0.1-0.1 0-0.1 0z"/>
		<path class="s7" d="m199.8 138.3c1.1 1.2 2.1 2.1 3.7 2.6 1.1 0.4 2.2 0.8 3.2 1.4 0.7 0.4 1 0.8 1.7 0.8 0.3 0 0.3-0.3 0.1-0.4-0.8-0.2-1.5-0.9-2.2-1.3-0.6-0.2-1.2-0.5-1.8-0.7-1.8-0.6-3.2-1.2-4.7-2.5 0 0-0.1 0 0 0.1z"/>
		<path class="s7" d="m207.4 133.3c0.3 0.6 0.8 1.1 1.3 1.7 0.6 0.6 1.1 1.4 1.8 1.9 0.2 0.2 0.4 0 0.2-0.2-0.9-1.2-2.2-2.3-3-3.6-0.1-0.2-0.4 0-0.3 0.2z"/>
		<path class="s7" d="m264 154.5c-1 0.7-1.3 1.8-1.7 2.8-0.4 0.9-0.7 1.8-1.2 2.7-0.2 0.5-0.5 1-0.5 1.5 0 0.3 0.3 0.3 0.4 0.1 0.3-1.1 0.9-2.2 1.3-3.3 0.4-1.3 0.7-2.8 1.8-3.7 0.1-0.1 0-0.2-0.1-0.1z"/>
		<path class="s7" d="m256.7 157c-1.2 2.5-2.6 5-3.6 7.6-0.6 1.5-1 3-1.5 4.5-0.6 1.7-1.6 2.8-2.6 4.3-0.1 0.1 0.1 0.2 0.2 0.1 1.6-2.1 2.5-3.7 3.4-6.2 1.2-3.5 2.8-6.9 4.4-10.2 0-0.1-0.2-0.3-0.3-0.1z"/>
		<path class="s7" d="m270.2 161.4c-1.1 0.9-3.1 1.3-4.4 1.9-1.2 0.5-2.3 1.2-3.6 1.5-0.2 0.1-0.1 0.3 0 0.3 1.4-0.2 2.7-1 4-1.6 1.3-0.6 3.1-0.9 4.2-1.9 0.2-0.1 0-0.3-0.2-0.2z"/>
		<path class="s7" d="m264.6 169.6c-3.4 0.1-6 1.8-8.6 3.9-0.1 0.1 0.1 0.3 0.2 0.2 2.5-2 5.1-3.7 8.4-4z"/>
		<path class="s7" d="m257.1 161.7c-0.4 1-0.7 2-1 3.1-0.1 0.4-0.2 0.8-0.5 1.2-0.2 0.3-0.3 0.4-0.3 0.8 0 0.1 0.2 0.1 0.2 0 0.2-0.4 0.5-0.7 0.7-1.1 0.1-0.3 0.2-0.7 0.2-1 0.3-1 0.6-2 0.9-2.9 0-0.2-0.2-0.2-0.2-0.1z"/>
		<path class="s7" d="m248.5 166c-0.1 2.2-2.3 3.9-3.2 5.8-1 1.8-2.9 2.9-4.4 4.2-0.1 0.1 0 0.3 0.2 0.3 1.7-1 3.4-2.4 4.3-4.1 0.7-1.3 1.4-2.3 2.2-3.5 0.6-0.8 1-1.6 1-2.7z"/>
		<path class="s7" d="m250.4 177.7c-0.2 1.1-2.9 1.8-3.9 2.3-1.4 0.6-3 1.4-4.5 1.9-0.1 0.1-0.1 0.4 0.1 0.3 1.8-0.2 3.6-1.2 5.2-2.1 1-0.5 3.2-1 3.4-2.3 0-0.2-0.3-0.3-0.3-0.1z"/>
		<path class="s7" d="m238.5 187q0 0 0.1 0c0.1 0 0.1-0.1 0-0.2-3.1-0.6-7.4-1.2-10.3 0.5-0.1 0.1 0 0.4 0.2 0.3 3.1-1.6 6.8-0.1 10-0.7-0.1 0-0.1 0.1 0 0.1z"/>
		<path class="s7" d="m236.2 177.5c-0.9 0.9-2.1 2.3-3.5 2.3-0.2 0-0.1 0.2 0 0.2 1.5 0.2 2.8-1.4 3.7-2.4 0.1-0.1-0.1-0.2-0.2-0.1z"/>
		<path class="s7" d="m230.7 178.6c-2.8 1.7-6.3 3.7-7.6 6.8-0.1 0.2 0.1 0.3 0.2 0.1 1.8-2.9 4.6-5 7.5-6.8 0 0 0-0.2-0.1-0.1z"/>
		<path class="s7" d="m172.8 182.2c-0.1 1.5 0.6 3.1 1.3 4.4 0.7 1.4 1.6 3 2.7 4 0.1 0.1 0.3-0.1 0.2-0.2-1-0.9-1.8-2.3-2.4-3.5-0.7-1.2-1.8-3.3-1.8-4.7z"/>
		<path class="s7" d="m177.4 177.4c1.3 1.8 1.8 4.2 2.1 6.4 0.4 2.2 0.7 4.4 1.1 6.6 0 0.1 0.2 0.1 0.2-0.1 0-2.3-0.5-4.9-1-7.3-0.4-1.9-1.1-4-2.3-5.6 0-0.1-0.1 0-0.1 0z"/>
		<path class="s7" d="m181.8 189.4c0 0.9 0.2 1.8 0.5 2.6 0.1 0.3 0.2 0.5 0.3 0.8 0.2 0.4 0.2 0.7 0.5 1 0.1 0.2 0.4 0.1 0.3-0.1-0.2-0.3-0.2-0.6-0.3-0.9-0.1-0.3-0.4-0.6-0.5-0.9-0.2-0.8-0.5-1.6-0.5-2.5 0-0.1-0.3-0.1-0.3 0z"/>
		<path class="s7" d="m175.1 196.2c1.2 0.5 2.2 2.2 3.1 3.1 1 0.9 2 1.5 3.1 2.2 2.4 1.4 5 2.7 7.3 4.4 0.1 0.1 0.2-0.1 0.1-0.2-1.7-2.1-4.8-3.4-7.1-4.7-1.5-0.9-2.9-1.8-4.1-3-0.8-0.7-1.3-1.7-2.3-2-0.2-0.1-0.3 0.2-0.1 0.2z"/>
		<path class="s7" d="m186.4 208.5c0.8 0.1 1.6 0.2 2.3 0.5 0.7 0.3 1.3 0.6 2 0.8 0.8 0.2 1.4 0.5 2.1 0.8 0.5 0.2 1.2 0.2 1.5 0.6 0.1 0.1 0.3-0.1 0.2-0.2-0.1-0.4-0.3-0.5-0.7-0.7-0.6-0.3-1.4-0.7-2.1-1-0.9-0.3-1.8-0.5-2.8-0.9-0.8-0.3-1.6-0.4-2.5-0.2-0.1 0-0.1 0.3 0 0.3z"/>
		<path class="s7" d="m189.6 200c1.9 2 3.5 4.3 4.3 6.9 0 0.2 0.3 0.2 0.3 0-0.5-2.8-2.5-5.2-4.4-7.1-0.1-0.1-0.3 0.1-0.2 0.2z"/>
		<path class="s7" d="m195.3 205.9c0.2 0.4 0.5 0.8 0.7 1.2 0.1 0.3 0.2 0.6 0.4 0.8 0.2 0.1 0.4-0.1 0.2-0.2-0.2-0.3-0.3-0.6-0.4-0.9-0.2-0.4-0.4-0.7-0.6-1-0.1-0.2-0.3-0.1-0.3 0.1z"/>
		<path class="s7" d="m193.3 213.5c2.5 0.2 5 1.1 7.5 1.4 0.2 0.1 0.2-0.1 0.1-0.2-2.4-0.9-5.1-1.4-7.6-1.5-0.2 0-0.2 0.3 0 0.3z"/>
		<path class="s7" d="m235.9 215.4c-0.1 2.3-1.5 4.3-1.6 6.6-0.1 0.1 0.1 0.1 0.1 0 0.3-2.3 1.6-4.3 1.6-6.6 0-0.1-0.1-0.1-0.1 0z"/>
		<path class="s7" d="m239.6 222.5c-0.5 0.9-1.5 1.3-2.3 1.9-0.9 0.7-1.6 1.5-2.2 2.4-0.1 0.1 0.1 0.3 0.2 0.2 1-0.8 1.7-1.9 2.7-2.7 0.7-0.5 1.4-0.9 1.8-1.7 0.1-0.1-0.1-0.2-0.2-0.1z"/>
		<path class="s7" d="m239.2 225.9c-0.7 0.3-1.3 1-1.9 1.4q-1.3 1.1-2.5 2.2c-0.6 0.7-1.5 1.3-2.1 2-0.6 0.6-0.8 1.3-1.4 1.9-0.1 0.2 0.1 0.4 0.2 0.3 0.4-0.3 0.6-0.5 0.9-0.9 0.4-0.6 0.6-1.1 1.2-1.6q0.5-0.4 1-0.9 1.1-1.1 2.2-2.1c0.7-0.7 1.6-1.7 2.4-2.2 0.1 0 0-0.1 0-0.1z"/>
		<path class="s7" d="m229.9 228.7c-0.1 1.2-1.2 2.8-1.8 3.9-0.5 0.9-1.3 1.9-1.6 2.9-0.1 0.1 0.1 0.2 0.2 0.1 0.7-1.3 1.5-2.6 2.2-3.9 0.4-0.9 1.1-2 1.2-3 0-0.2-0.2-0.2-0.2 0z"/>
		<path class="s7" d="m226.3 230.1c-0.5 2.1-2.5 3.6-3.4 5.5-0.8 1.6-1.9 3.3-2.9 4.9-0.1 0.1 0.1 0.3 0.2 0.1 1.4-1.7 2.2-3.5 3.3-5.4 1-1.8 2.7-3 3.1-5 0-0.2-0.3-0.3-0.3-0.1z"/>
		<path class="s7" d="m235.2 237.7c-1 0.1-1.6 0.5-2.5 1.1-1.7 0.9-3.4 1.6-5.2 2.4-2.2 0.8-5.5 1.8-6.8 4 0 0.1 0.1 0.2 0.2 0.1 1.6-1.7 4.4-2.7 6.5-3.6 1.1-0.4 2.1-0.8 3.2-1.3 1.4-0.7 3-2.2 4.6-2.4 0.2 0 0.2-0.3 0-0.3z"/>
		<path class="s7" d="m216 239.8c-0.2 1.5-1.3 2.4-2.2 3.4-0.8 0.9-1.4 1.7-2 2.7-0.1 0.2 0.2 0.4 0.4 0.2 0.4-0.4 0.6-0.8 0.9-1.3 0.5-0.7 1.1-1.4 1.6-2.1 0.8-0.8 1.4-1.7 1.6-2.8 0-0.2-0.2-0.3-0.3-0.1z"/>
		<path class="s7" d="m223 248.4c-2.4 0-4 1-6.2 1.8-2.4 0.7-5 1.7-7.4 2.1-0.2 0-0.1 0.3 0.1 0.3 2.3 0.3 4-1 6.2-1.6 2.5-0.6 4.6-2.2 7.3-2.4 0.2 0 0.2-0.3 0-0.2z"/>
		<path class="s7" d="m217.6 247.8c-0.7 0.6-1.6 1.1-2.5 1.2-0.6 0.1-1.1 0.3-1.6 0.6-0.1 0.1 0.1 0.4 0.2 0.3 0.7-0.4 1.6-0.3 2.3-0.6q1.1-0.4 1.9-1.2c0.2-0.2-0.1-0.4-0.3-0.3z"/>
		<path class="s8" d="m199 275.1c-0.1-3.3-2.3-6.3-5-8.4-2.6-2.2-5.6-3.8-8.1-6.1-3.2-2.9-5.4-7-6-11.3-0.2-1.9-0.2-3.8-1.2-5.4-0.8-1.1-2-1.9-3.1-2.6-5.9-3.5-12.4-6-19.1-7.3 5.5 2.5 7.7 8.9 9.1 14.8 1.4 5.8 2.8 12.3 7.6 15.9 4.9 3.6 11.6 3.1 17.3 5.2 4.4 1.5 8.1 4.7 10.5 8.7-1.1-4.1-3.2-8.1-6-11.3"/>
		<path class="s5" d="m166 239.2c5.7 6.3 5.8 15.9 13.4 20.4 1.6 0.9 3.5 1.4 5 2.4 1.6 1.1 2.2 2.7 3.6 4 0.9 0.8 2.2 1.5 3.3 2.1 3.2 1.7 5.3 3.5 6.7 6.9 0.2 0.4 0.8 0.3 0.7-0.1-0.9-3.5-3.1-5.6-6.1-7.3-3.6-2.1-5.5-5.6-9.3-7.4-5-2.3-8-4.4-10.1-9.7-1.7-4.4-3.6-8.1-7.1-11.4 0-0.1-0.1 0-0.1 0.1z"/>
		<path class="s7" d="m166.9 245.1c0.2 2.3 0.9 3.9 2.3 5.6 1.2 1.6 2.1 3.9 4.2 4.4 0.1 0.1 0.2-0.1 0.1-0.2-1.7-1-2.5-2.8-3.6-4.3-0.8-1.1-1.6-1.9-1.9-3.3-0.2-0.7-0.6-1.6-0.8-2.2 0-0.2-0.3-0.1-0.3 0z"/>
		<path class="s7" d="m170 256.3c1.5 1.2 2.8 2.3 4.6 3 0.9 0.4 2 0.5 2.9 0.7 0.9 0.3 1.9 0.7 2.9 0.7 0.2 0 0.2-0.2 0-0.2-1.1-0.1-2.3-0.6-3.3-0.9-0.9-0.3-1.9-0.4-2.7-0.8-1.7-0.6-3-1.6-4.4-2.6-0.1 0-0.1 0.1 0 0.1z"/>
		<path class="s7" d="m173.2 261.8c4.7 0 10.1 1 14.4 3.2 0.1 0 0.1-0.1 0.1-0.2-3.8-2.7-10-3.2-14.5-3.2-0.1 0-0.1 0.2 0 0.2z"/>
		<path class="s7" d="m180.7 265.7c1.5 0.2 2.9 0.6 4.4 1 0.1 0.1 0.3-0.2 0.1-0.3-1.4-0.7-2.9-1-4.4-1.1-0.2-0.1-0.3 0.3-0.1 0.4z"/>
		<path class="s7" d="m171 240.7c1.8 2.2 2.7 5.7 3.2 8.3 0.3 1.9 0.2 4 1.4 5.6 0.1 0.1 0.3-0.1 0.2-0.2-1.3-2.5-0.9-5.6-1.8-8.3-0.6-1.8-1.6-4.1-2.9-5.6-0.1-0.1-0.2 0.1-0.1 0.2z"/>
		<path class="s7" d="m176.1 245.7c-0.1 3.5 0 7.6 1.3 11q0 0.1 0.2 0.1 0.1 0 0.2 0c0.1 0 0.1-0.2 0-0.3-0.3-0.1-0.6-2.1-0.7-2.5q-0.3-1.2-0.4-2.5c-0.3-1.9-0.5-3.9-0.6-5.8q0-0.2 0 0z"/>
		<path class="s7" d="m178.4 253.6c0 0.9 0.4 1.7 0.8 2.4 0.3 0.7 0.9 1.3 1.5 1.7 0.1 0.1 0.3-0.1 0.2-0.3-0.5-0.5-1-0.8-1.4-1.4-0.5-0.7-0.9-1.6-1-2.4 0-0.1-0.1-0.1-0.1 0z"/>
		<path class="s7" d="m182.1 258.2c0.5 0.4 0.9 0.9 1.3 1.4 0.1 0.1 0.2 0 0.2-0.1-0.4-0.5-0.9-1-1.3-1.5-0.1-0.1-0.3 0.1-0.2 0.2z"/>
		<path class="s5" d="m221.8 138.2c0.6 4.2 0.9 8.3 0.9 12.6-0.1 3.4 0.4 7.5-0.3 10.9-1.5 6.4-3.5 12.8-5.4 19.1-4 12.9-9 25.7-11.8 39-2.9 13.3-3.4 26.8-4.8 40.2-1.5 14-0.6 28.9 0.8 42.9 0.1 0.2 0.5 0.2 0.5 0-0.6-15.3 0-30.8 1.1-45.9 1.1-14.1 1.7-28.4 5.6-42.1 3.6-13 8.3-25.6 11.9-38.5 1.7-5.9 4-12.3 3.9-18.5-0.2-6.8-0.2-13.3-1.4-20-0.1-0.7-1.1-0.4-1 0.3z"/>
		<path class="s9" d="m224.8 145.2c0.8 0 1.6-0.7 1.5-1.5 0-0.9-0.6-1.6-1.5-1.6-0.8 0-1.6 0.7-1.6 1.6 0.1 0.8 0.7 1.5 1.6 1.5z"/>
		<path class="s9" d="m225.5 151.1c1.3 0 2.5-1.1 2.4-2.4-0.1-1.2-1-2.3-2.4-2.3-1.2 0-2.4 1.1-2.3 2.3 0 1.3 1 2.4 2.3 2.4z"/>
		<path class="s9" d="m225.2 154.8c2 0 2-3.1 0-3.1-1.9 0-1.9 3.1 0 3.1z"/>
		<path class="s9" d="m224.7 160.6c0.9 0 1.7-0.7 1.7-1.7 0-0.9-0.8-1.7-1.7-1.7-0.9 0-1.8 0.8-1.7 1.7 0 1 0.7 1.7 1.7 1.7z"/>
		<path class="s9" d="m229.4 156.8c1 0 2-0.9 1.9-1.9 0-1-0.8-1.9-1.9-1.9-1 0-1.9 0.9-1.9 1.9 0.1 1 0.9 1.9 1.9 1.9z"/>
		<path class="s9" d="m222.5 167.1c2.8 0 2.8-4.3 0-4.3-2.7 0-2.7 4.3 0 4.3z"/>
		<path class="s9" d="m209.2 190.3c1.7 0 3.3-1.5 3.3-3.2-0.1-1.8-1.5-3.3-3.3-3.3-1.7 0-3.3 1.5-3.2 3.3 0 1.8 1.4 3.2 3.2 3.2z"/>
		<path class="s9" d="m211.5 197.1c1.6 0 3.2-1.4 3.1-3.1-0.1-1.7-1.4-3.2-3.1-3.2-1.7 0-3.3 1.5-3.2 3.2 0.1 1.7 1.4 3.1 3.2 3.1z"/>
		<path class="s9" d="m214.9 186.5c1.8 0 1.8-2.7 0-2.7-1.7 0-1.7 2.7 0 2.7z"/>
		<path class="s9" d="m207.9 204.1c1 0 2.1-0.9 2-2 0-1.1-0.9-2.1-2-2.1-1.1 0-2.1 1-2.1 2.1 0.1 1.1 0.9 2 2.1 2z"/>
		<path class="s9" d="m205 195.8q0.1 0 0.2 0c0.4 0 0.8-0.4 0.8-0.8 0.1-0.5-0.2-0.8-0.6-1q-0.1 0-0.1 0c-0.5-0.2-1.1 0.2-1.1 0.7-0.1 0.6 0.3 1 0.8 1.1z"/>
		<path class="s9" d="m211.9 206.3q0 0 0-0.1c0.4-0.8 0.1-1.7-0.8-2-0.9-0.2-1.7 0.5-1.7 1.3q0 0.1 0 0.2c0 1.2 1.9 1.9 2.5 0.6z"/>
		<path class="s9" d="m208 218c1.2 0 1.2-1.9 0-1.9-1.2 0-1.2 1.9 0 1.9z"/>
		<path class="s9" d="m203.4 242.2c1.9 0 1.9-3 0-3-1.9 0-1.9 3 0 3z"/>
		<path class="s9" d="m199.3 240.1c2.8 0 2.8-4.4 0-4.4-2.8 0-2.8 4.4 0 4.4z"/>
		<path class="s9" d="m200.1 251c1.8 0 3.6-1.6 3.5-3.5-0.1-1.9-1.6-3.6-3.5-3.6-1.9 0-3.6 1.7-3.5 3.6 0 1.9 1.5 3.5 3.5 3.5z"/>
		<path class="s9" d="m200.2 257.7c1.1 0 2-0.9 2-2-0.1-1.1-0.9-2-2-2-1 0-2 0.9-1.9 2 0 1.1 0.8 2 1.9 2z"/>
		<path class="s9" d="m200.8 284.3c1 0 1.9-0.9 1.8-1.8 0-1-0.8-1.9-1.8-1.9-0.9 0-1.8 0.9-1.8 1.9 0.1 0.9 0.8 1.8 1.8 1.8z"/>
		<path class="s9" d="m202.3 277.3c2.7 0 2.7-4.2 0-4.2-2.7 0-2.7 4.2 0 4.2z"/>
		<path class="s9" d="m198.9 272.3c1.4 0 1.4-2.1 0-2.1-1.4 0-1.4 2.1 0 2.1z"/>
		<path class="s10" d="m210.7 185.6c-0.5-0.7-1-0.8-1.8-0.6-0.7 0.2-1.5 0.4-1.5 1.2 0 0.2 0.1 0.3 0.2 0.4q0.1 0 0.1 0c0.2 0 0.4-0.1 0.4-0.3 0 0.2 0.1-0.1 0.2-0.1 0.2-0.2 0.5-0.3 0.7-0.4 0.5-0.2 0.9-0.2 1.4 0 0.2 0.1 0.3 0 0.3-0.2z"/>
		<path class="s10" d="m207.7 187.9c0.4 0 0.4-0.6 0-0.6-0.4 0-0.4 0.6 0 0.6z"/>
		<path class="s10" d="m210.9 192.3c0.2-0.2 0.3-0.3 0.3-0.5q-0.1-0.1-0.1 0-0.1 0.2-0.2 0.5z"/>
		<path class="s10" d="m212 191.6c-0.5-0.1-1.1 0.3-1.6 0.5-0.4 0.2-1.1 0.6-0.7 1.1q0.2 0.1 0.3 0c0.2 0 0.2-0.2 0.4-0.3 0.1-0.1 0.3-0.2 0.5-0.3 0.3-0.2 0.7-0.6 1.1-0.7 0.2 0 0.2-0.3 0-0.3z"/>
		<path class="s10" d="m210 193.9q0 0 0.1 0 0.1 0.1 0.2 0 0.1 0 0.1 0c0.2-0.2 0-0.5-0.2-0.5-0.2 0-0.4 0.3-0.2 0.5z"/>
		<path class="s10" d="m208 201c-0.4 0.1-0.6 0.4-0.8 0.6-0.1 0.2 0.1 0.4 0.3 0.3 0.2-0.1 0.5-0.3 0.6-0.6 0.1-0.1 0-0.3-0.1-0.3z"/>
		<path class="s10" d="m206.8 203.2q0 0.1 0 0.1c0 0.2 0.3 0.2 0.3 0q0 0 0-0.1c0.1-0.2-0.4-0.2-0.3 0z"/>
		<path class="s10" d="m214.8 184.8c-0.3 0-0.7 0-0.9 0.2q-0.1 0.1 0 0.3 0 0.1 0 0.1c0 0 0.1 0.1 0.2 0.1 0.3-0.1 0.4-0.2 0.7-0.2 0.4 0.1 0.4-0.5 0-0.5z"/>
		<path class="s10" d="m205.1 194.8c0.3 0 0.3-0.4 0-0.4-0.3 0-0.3 0.4 0 0.4z"/>
		<path class="s10" d="m210.6 205.3q0 0.1-0.1 0.2c0 0.1 0.1 0.2 0.3 0.2q0 0 0.1 0c0.6-0.2-0.2-0.9-0.3-0.4z"/>
		<path class="s10" d="m226.2 147.1c-0.6-0.1-1-0.1-1.6 0.4-0.3 0.2-0.7 0.8-0.2 1.2 0.1 0 0.2 0.1 0.3 0 0.2-0.2 0.4-0.4 0.6-0.5 0.2-0.3 0.6-0.4 0.9-0.5 0.3 0 0.3-0.5 0-0.6z"/>
		<path class="s10" d="m224.3 149.7c0.2-0.3-0.1-0.5-0.3-0.3-0.3 0.2 0.2 0.6 0.3 0.3z"/>
		<path class="s10" d="m225.2 152.6c-0.4 0-1-0.1-1.3 0.3 0 0.1 0.1 0.4 0.3 0.3 0.3-0.1 0.6-0.1 1 0 0.3 0 0.3-0.6 0-0.6z"/>
		<path class="s10" d="m224.3 153.7q0-0.1-0.1-0.2c0-0.1-0.1-0.1-0.2 0q0 0.1 0 0.2c-0.1 0.2 0.4 0.2 0.3 0z"/>
		<path class="s10" d="m229.6 154.1c-0.6 0-1.5 0.6-0.9 1.2 0.1 0.1 0.3 0.1 0.4-0.1 0.1-0.2 0.2-0.4 0.5-0.4 0.4 0 0.4-0.6 0-0.7z"/>
		<path class="s10" d="m228.4 156c0.2 0 0.2-0.3 0-0.3-0.2 0-0.2 0.3 0 0.3z"/>
		<path class="s10" d="m224.5 158.4c0.4-1.6-1.9-0.6-1.4 0.3 0.1 0.1 0.3 0.1 0.4 0 0.2-0.4 0.7-1 0.9-0.3 0 0 0.1 0.1 0.1 0z"/>
		<path class="s10" d="m223.6 159c0.3 0 0.3-0.5 0-0.5-0.3 0-0.3 0.5 0 0.5z"/>
		<path class="s10" d="m223.3 163.8c-0.4-0.2-0.9 0-1.3 0.2-0.1 0.1-0.1 0.4 0.1 0.4 0.3 0 0.4-0.1 0.6-0.2 0.2 0 0.4-0.1 0.6-0.2 0.1 0 0.1-0.2 0-0.2z"/>
		<path class="s10" d="m221.4 165.6c0.4 0 0.4-0.7 0-0.7-0.4 0-0.4 0.7 0 0.7z"/>
		<path class="s10" d="m224.8 143.4c-0.1-0.2-0.2-0.5-0.5-0.4q-0.1 0-0.3 0.3c0 0.1 0.1 0.3 0.2 0.2q0.2 0 0.4 0.1c0.1 0 0.2-0.1 0.2-0.2z"/>
		<path class="s10" d="m224.5 143.4q-0.1 0.1-0.2 0.3c0 0.1-0.1 0.3-0.1 0.3-0.1 0-0.1 0.2 0 0.2q0.1 0 0.1 0c0.1 0 0.1 0 0.2-0.1 0-0.2 0.1-0.4 0.3-0.5 0.1-0.2-0.1-0.4-0.3-0.2z"/>
		<path class="s10" d="m200.2 236.7c-0.5-0.3-0.9-0.2-1.3 0-0.4 0.2-0.8 0.3-1 0.7-0.2 0.3 0.3 0.6 0.5 0.2 0.1-0.2 0.5-0.3 0.8-0.4 0.3-0.2 0.6-0.2 1-0.4z"/>
		<path class="s10" d="m198.6 238.8c0.3 0 0.3-0.6 0-0.6-0.4 0-0.4 0.6 0 0.6z"/>
		<path class="s10" d="m200.5 245.2c-0.4-0.4-1-0.1-1.4 0.2-0.4 0.3-0.9 0.7-0.6 1.2 0 0.2 0.2 0.2 0.3 0.1 0.1-0.1 0.3-0.1 0.3-0.2 0.2-0.1 0.3-0.2 0.5-0.4 0.1-0.1 0.3-0.3 0.5-0.4 0.1-0.1 0.3-0.1 0.4-0.2q0.2-0.1 0-0.3z"/>
		<path class="s10" d="m198.3 248c0.3 0 0.3-0.5 0-0.5-0.4 0-0.4 0.5 0 0.5z"/>
		<path class="s10" d="m200.3 254.5c-0.4 0.1-0.9 0.6-0.6 1q0.1 0.2 0.3 0.2c0.3 0 0.3-0.4 0.5-0.5 0.5-0.1 0.3-0.8-0.2-0.7z"/>
		<path class="s10" d="m199 256.2q0 0.1 0 0.2c0 0.6 0.7-0.1 0.3-0.2q-0.1 0-0.2 0c-0.4 0.1 0.3 0.8 0.3 0.2q0-0.1 0-0.2c0-0.3-0.5-0.3-0.4 0z"/>
		<path class="s10" d="m203.2 240c-0.1 0.2-0.2 0.4-0.2 0.7q0.2 0.1 0.3 0c0.1-0.1 0.2-0.3 0.3-0.5 0.2-0.2-0.3-0.5-0.4-0.2z"/>
		<path class="s10" d="m199.1 270.8q0 0.1-0.2 0.2c-0.1 0.1 0 0.2 0.1 0.3 0.3 0 0.6-0.2 0.4-0.6 0-0.1-0.2-0.1-0.3 0.1z"/>
		<path class="s10" d="m202.6 274.3c-0.5-0.4-2 0-1.4 0.8 0 0.1 0.2 0.1 0.2-0.1 0.2-0.4 0.9-0.3 1.2-0.5 0.1-0.1 0.1-0.2 0-0.2z"/>
		<path class="s10" d="m201.3 276.3q0 0 0.1 0c0.2-0.1 0.2-0.4 0-0.5q-0.1 0-0.1 0c-0.5-0.2-0.5 0.7 0 0.5z"/>
		<path class="s10" d="m201.3 281.3c-0.3-0.1-0.7-0.3-1-0.1q-0.4 0.2-0.6 0.6c-0.1 0.1-0.1 0.4 0.1 0.4 0.3 0.1 0.4 0 0.7-0.1 0.3-0.2 0.5-0.3 0.8-0.4 0.3 0 0.2-0.3 0-0.4z"/>
		<path class="s10" d="m199.5 283.1q0.1 0 0.1 0 0.1 0.1 0.3 0c0.2-0.2 0-0.5-0.2-0.5-0.2 0-0.4 0.3-0.2 0.5z"/>
		<path class="s11" d="m164.6 265.8c0 0-7.4-18.2-21.3-17.6-14 0.5-2.2 16 21.3 17.6z"/>
		<path class="s11" d="m162.4 246.8c0 0 3.5-17.5 15-16.3 11.6 1.2-7 14.6-15 16.3z"/>
		<path class="s11" d="m158.2 236.2c0 0-6.8-15.7-16.2-12.8-9.3 2.8 8.4 12.6 16.2 12.8z"/>
		<path class="s11" d="m153.1 217.6c0 0 0.7-10.8 6.1-10 5.3 0.8-6.1 10-6.1 10z"/>
		<path class="s11" d="m148.4 204.3c0 0-6.1-8.7-14.9-8.3-8.8 0.4 3.1 11 14.9 8.3z"/>
		<path class="s11" d="m144.3 190.5c0 0 3.4-15.4 12.4-14.6 8.9 0.9-12.4 14.6-12.4 14.6z"/>
		<path class="s11" d="m137.5 177.2c0 0-11.7-12.8-19.3-7.6-7.7 5.1 15.1 9.8 19.3 7.6z"/>
		<path class="s11" d="m133.4 161.8c0 0-0.8-10.9 9.7-14.5 10.4-3.6 0.9 12.5-9.7 14.5z"/>
		<path class="s11" d="m126.4 144.3c0 0-9.5-6.9-16.3-6.5-6.9 0.3-0.7 12.3 16.3 6.5z"/>
		<path class="s11" d="m124.6 131.8c0 0 4.8-10.4 9.9-10.3 5.2 0.2-2.3 8.1-9.9 10.3z"/>
		<path class="s11" d="m120.4 121.1c0 0-5.8-9.2-11-6.3-5.2 2.9 11 6.3 11 6.3z"/>
		<path class="s11" d="m118.3 109.9c0 0 1.3-6 6.9-6.7 5.6-0.7-2.2 5.4-6.9 6.7z"/>
		<path class="s11" d="m167.4 280.4c0 0 6.4-21 19.4-22.8 12.9-1.8-11.9 24.1-19.4 22.8z"/>
		<path class="s11" d="m168.4 292.9c0.8-0.3-14.1-20.1-26.2-15.3-12.2 4.8 22.1 16.7 26.2 15.3z"/>
		<path class="s12" d="m116.7 99.8c-0.2 6.9 1.8 13.7 3.3 20.5 1.6 7.1 2.9 14.3 4.7 21.4 3.7 14.4 10.2 27.7 14.4 41.9 2.1 6.9 5.4 13.4 7.5 20.3 2.2 7.1 4.8 14.1 7 21.2 2.3 7.1 5.8 14.6 6.6 22.1 0.8 7.3 2.3 14.3 4 21.4 4 17.5 2 35.3-2.2 52.5-0.2 0.6 0.7 0.9 1 0.3 5.4-13.8 7.6-30.5 5.5-45.3-0.8-6.4-2.7-12.5-3.5-18.9-1-7.4-2.5-14.4-4.7-21.5-8.7-29.4-20.5-57.5-30.9-86.3-2.7-7.4-4.4-15.2-6.2-22.9-2.1-8.9-6-17.6-6.3-26.7 0-0.2-0.2-0.2-0.2 0z"/>
		<path class="s12" d="m132.9 161.6c1.5-2.3 3.5-4.1 5.4-6 1.2-1 2.5-2.1 3.5-3.3 0.8-0.8 1.3-1.9 2.1-2.7 0.2-0.2 0-0.4-0.2-0.3-0.9 0.9-1.7 2-2.5 2.8-1.3 1.3-2.5 2.4-3.8 3.7-1.8 1.7-3.4 3.5-4.7 5.7-0.1 0.1 0.1 0.3 0.2 0.1z"/>
		<path class="s12" d="m123.1 172.1c2.5 0.7 4.9 1.9 7.3 2.8 2.2 0.8 4.3 1.3 6.6 1.8 0.3 0.1 0.5-0.3 0.2-0.5-0.5-0.3-0.9-0.3-1.4-0.4-1.7-0.4-3.2-0.8-4.8-1.3-2.7-0.8-5.2-2-7.9-2.7-0.1 0-0.2 0.2 0 0.3z"/>
		<path class="s12" d="m126.6 144.3c-1.9-0.8-4-1.1-6-1.5-2.3-0.5-4.4-1.4-6.7-2-0.1 0-0.1 0.1 0 0.2 1.1 0.4 2.1 1.1 3.1 1.6 1.2 0.5 2.2 0.6 3.4 0.9 2 0.4 4.1 0.7 6.1 1.1 0.2 0 0.2-0.3 0.1-0.3z"/>
		<path class="s12" d="m123.9 132.4c3.7-2.5 5.7-6.6 9.9-8.3 0.1-0.1 0.1-0.3-0.1-0.2-2 0.3-4.1 2-5.5 3.5-1.4 1.6-3.1 3.1-4.4 4.8-0.1 0.1 0.1 0.2 0.1 0.2z"/>
		<path class="s12" d="m121.1 121.1c-1.1-1.2-3.2-1.7-4.7-2.3-1.3-0.6-2.9-0.9-4.2-1.4-0.1-0.1-0.2 0.1-0.1 0.1 0.8 0.4 1.6 0.5 2.4 0.9 0.5 0.2 0.9 0.4 1.4 0.6 0.8 0.3 1.5 0.7 2.2 1 0.9 0.4 2.1 0.6 2.8 1.3 0.2 0.1 0.4-0.1 0.2-0.2z"/>
		<path class="s12" d="m117.9 110.5c1-0.9 1.8-2 2.8-3 0.9-1 2.2-2.7 3.6-3.1 0.1 0 0.1-0.2 0-0.1-1.3 0.1-2.3 1.3-3.2 2.1-1.3 1.2-2.2 2.6-3.4 3.9-0.1 0.1 0.1 0.3 0.2 0.2z"/>
		<path class="s12" d="m144.1 190.7c1.9-1.7 3.3-3.7 4.7-5.8 1.8-2.5 4.3-6 7.3-7.1 0.2-0.1 0.1-0.3-0.1-0.3-2.7 0.7-5.1 3.6-6.7 5.7-1.9 2.4-3.3 5-5.5 7.2-0.1 0.2 0.1 0.4 0.3 0.3z"/>
		<path class="s12" d="m134.5 198.2c2.4 1.1 4.8 2 7.1 3.1 2.4 1 4.9 1.7 7.1 2.9 0.3 0.2 0.6-0.2 0.4-0.4-1.9-1.5-4.4-1.8-6.6-2.6-2.6-1-5.3-2-8-3z"/>
		<path class="s12" d="m153.2 218.2c0.1-0.9 0.8-1.4 1.3-2.1 0.5-0.7 1-1.5 1.5-2.2 1-1.7 2.2-3.1 3.4-4.6 0.1-0.2 0-0.4-0.2-0.2-1.7 1.4-2.9 2.8-4.1 4.6-0.8 1.3-2.3 2.8-2.4 4.4-0.1 0.3 0.4 0.3 0.5 0.1z"/>
		<path class="s12" d="m144.8 226.8c4.6 1.3 9.3 4.1 12.6 7.4 0.3 0.3 0.8-0.1 0.6-0.4-2.9-3.8-8.7-6.1-13.2-7.1q0 0 0 0.1z"/>
		<path class="s12" d="m161.9 247.5c2.6-1.8 4.5-4.2 6.6-6.5 2.4-2.6 5-4.8 7.9-6.7 0.3-0.2 0-0.5-0.2-0.4-2.9 1.4-5.6 3.5-7.8 5.7-2.3 2.4-4.8 4.8-6.9 7.4-0.2 0.3 0.1 0.7 0.4 0.5z"/>
		<path class="s12" d="m145.8 253.7c3.3 0.6 6.4 2.9 9 4.8 3.1 2 6.3 4 9.3 6.2 0.2 0.2 0.5-0.2 0.3-0.4-1-1.1-2-1.6-3.2-2.4-2.2-1.3-4.3-2.8-6.4-4.2-2.7-1.8-5.7-3.7-9-4.1-0.1 0-0.1 0.1 0 0.1z"/>
		<path class="s12" d="m167.6 279.2c2.9-1.2 5.4-3.1 7.5-5.5 3.7-4.3 7.1-8 11.6-11.4 0.1-0.1 0-0.3-0.2-0.2-3.7 2.3-6.7 5.1-9.8 8.2q-2.6 2.5-5 5.1c-1.4 1.5-2.8 2.3-4.3 3.5-0.2 0.1 0 0.4 0.2 0.3z"/>
		<path class="s12" d="m147.5 280.9c7.2 1.5 14.7 6.1 19.5 11.6 0.6 0.6 1.5-0.3 0.9-0.9-5.3-5.2-12.9-9.7-20.3-10.8-0.1 0-0.1 0-0.1 0.1z"/>
		<path class="s13" d="m251.8 286.9c3 0.6 6.2 1.4 8.3 3.6 1.2 1.3 2 3 3 4.5 2 2.7 5 4.5 8.3 5.1 1.6 0.2 3.3 0.2 4.9 0.7 2.8 0.8 4.7 3.2 6.9 5.2 2.2 1.9 4.7 3.3 7.5 4.3 2.9 1 6.4 1.8 7.5 4.6q-1.7-4.9-3.3-9.7c-0.8-2.4-1.6-4.8-3-6.8-3.2-4.6-8.8-6.7-14.2-7.9-0.8-0.2-1.5-0.3-2.2-0.7-0.8-0.4-1.5-1-2.2-1.6-5.8-4.7-14.3-3.4-21.6-1.9 1.4 1.1 3.2 1.8 5 2"/>
		<path class="s13" d="m257.5 251c-0.4-2.6-2.5-4.6-3.3-7.2-1.6-4.8 2-10 0.8-14.9 0.6 3.9 4 6.7 7 9.2 3.4 2.8 6.8 6 8 10.2 0.8 2.5 0.7 5.1 1.4 7.7 0.5 1.9 1.5 3.8 1.5 5.8 0.2 7-6 10.9-9.3 16.1q0.8-2.9 0.9-5.9c0.2-2.4-2.6-7-3.8-9.1-2.4-4.3-2.4-7.2-3.2-11.9z"/>
		<path class="s13" d="m282.6 265c4-0.4 7.5 2.6 9.9 5.7 2.5 3.2 4.8 6.8 8.5 8.3 1.7 0.7 3.6 0.9 5.3 1.8 1.5 0.8 2.7 2.1 3.9 3.3 3.9 3.8 8.9 6.6 14.2 7.8-4-1.8-7.2-5.2-9-9.3-1.8-4.2-2.1-9.3-5.5-12.4-4.4-4.1-11.5-2.7-16.9-5.3-1.8-0.8-3.6-2.2-5.7-2"/>
		<path class="s13" d="m287.4 240.1c0-1.6 1.1-3.1 1-4.7 0-2.2-2.1-3.8-3.5-5.6-1.7-2.3-2.2-5.2-3-7.9-0.9-2.7-2.2-5.5-4.7-6.7 4.2 1.5 8.2 4 11.6 7 2.4 2.3 4.7 5.1 5.2 8.5 0.2 1.2 0.2 2.5 0.8 3.7 0.8 1.5 2.6 2.3 3.6 3.7 1.3 1.9 1.1 4.4 0.7 6.7-0.4 2.8-0.8 6.9-2.5 9.2-1.5-2-1.7-4.7-3.4-6.8-1.9-2.2-5.8-3.7-5.8-7.1z"/>
		<path class="s13" d="m328 254.9c3 0.3 6-0.5 9-0.4 3 0.1 6.4 1.6 7 4.5-0.9-3.2-2.1-6.4-4.2-9.1-2-2.7-5-4.8-8.3-5.2-2.8-0.4-5.9 0.4-8.5-0.9-4.1-2.3-5.6-2.8-10.5-2.2-2.6 0.4-4.3-0.1-2.8 2.2 1.2 1.8 5 3.1 6.8 4.4 3.6 2.7 6.7 6.1 11.5 6.7z"/>
		<path class="s13" d="m317.4 230.9c0.7-3.9-1.3-8.2-4.8-10.1-1.3-0.7-2.9-1.1-4.2-1.9-1.4-0.7-2.6-2-2.7-3.5-0.1-0.9 0.2-1.9 0.1-2.8-0.2-2.6-3.3-3.5-5.7-4.4-6.4-2.4-11.3-8.4-12.5-15.1 3.5 3.4 8 5.9 12.8 7 4.2 1 9.1 1.3 11.5 4.9 1.6 2.4 1.5 5.7 3.5 7.8 0.6 0.6 1.4 1.1 1.9 1.7 0.9 1.2 0.9 2.9 0.8 4.4q-0.1 5.2-0.2 10.4-1-2.1-1.3-4.3"/>
		<path class="s13" d="m324.5 215.1c6.5 0.2 10.7 7.5 17 9.1 1.2 0.3 2.6 0.4 3.8-0.2 0.7-0.3 1.3-0.8 2-1.2 2.5-1 5.2 0.6 7.5 2.1 2.2 1.5 5.2 2.9 7.5 1.4-3.2-1.5-4.8-5-6.4-8.1-1.7-3.1-3.8-6.5-7.3-7.3-4.4-1-9.3 2.7-13.5 0.7-0.8-0.4-1.6-1-2.6-0.9-0.6 0.1-1.1 0.5-1.7 0.8-1.4 0.8-3 0.8-4.5 1.1-1.5 0.3-3.2 1.2-3.4 2.8q3.2 0.5 6.4 0.9"/>
		<path class="s13" d="m326.4 198.1c-0.8-3.4-4.2-5.4-7.5-6.7-3.2-1.4-6.8-2.5-8.9-5.3-1.1-1.4-1.7-3.1-3-4.3-2.9-2.8-7.8-1.5-11.3-3.4 2.8-1.7 5.8-3.4 9-3.4 3-0.1 5.9 1.2 8.2 3 2.4 1.8 4.3 4 6.2 6.3q3.1 3.7 6.2 7.3c1.7 2.1 3.4 4.8 2.1 7.1q-1.6-3.4-3.2-6.8"/>
		<path class="s13" d="m347.7 171.3c1-3.2 5.1-4.9 5.3-8.2-2.2 2-5.3 2.9-8.2 2.4-1.9-0.4-3.7-1.2-5.5-0.9-3.4 0.5-6.3 4.6-7.9 7.3-0.9 1.6-1.8 3.3-2.7 4.9-0.7 1.2-1.7 5.2-2.7 5.9 4.2-3.2 9.3-3.8 14.4-4.7 5.3-1 5.8-1.9 7.3-6.7z"/>
		<path class="s13" d="m326.3 168.4c-1.7-1.9-3.5-4-5.9-4.6-1.9-0.6-4-0.2-5.9-0.3-3.4-0.3-6.6-2.2-8.5-5.1q-0.3-0.8-0.9-1.2c-0.9-0.7-2.2-0.4-3.2 0.2-1 0.5-2 1.2-3.2 1.2 2.2 0.5 4.1 1.9 5.3 3.8 0.6 0.9 1.1 2 1.8 2.9 1 1.1 2.4 1.7 3.7 2.3 0.9 0.4 1.9 0.8 2.8 0.8 1.2 0 2.3-0.6 3.4-1 3.7-1.4 8.1-0.6 11.2 1.9q-3.1-2.2-6.3-4.4"/>
		<path class="s13" d="m329.8 143.4c-7.1 0.8-9.8 8.6-11.2 15.1 3.2-2.5 9.1-3.9 10.4-8.2 0.6-1.7-0.5-3.3 0.4-5.1 1-1.8 3.5-2.7 5-4-1.3 1-2.9 2-4.6 2.2z"/>
		<path class="s5" d="m237.2 305c5.2-7.9 12.3-13.7 19.4-19.9 6.6-5.7 14.8-9 21.5-14.4 6.6-5.4 14.1-10 21-14.9 5.5-3.8 9.7-10.2 13.6-15.6 5-7 8.8-15 12.3-22.9 3.6-8.3 3.3-17 3.8-25.9 0.2-4.3-0.4-8.5-0.5-12.7-0.2-4.1-1-8.1-2.4-11.9-2.5-6.9-7.7-11-13.7-14.6-0.7-0.4-1.3 0.6-0.7 1.1 3.5 2.7 6.4 5.4 9.1 8.8 3.2 4 4 8.8 4.6 13.7 1 8.3 0.2 16.4-0.2 24.7-0.3 5.4-0.8 10-3 15-1.8 4.2-3.6 8.6-5.8 12.6-3.5 6.3-7.3 12.7-12.1 18-2.6 2.8-4.7 5.6-7.9 7.8-2.8 2-5.2 4.3-8 6.3-6.5 4.7-13.3 9.4-20.1 13.6-6.1 3.8-11.3 8.7-16.6 13.5-5.7 5.1-11 10.6-14.9 17.3-0.3 0.4 0.4 0.8 0.6 0.4z"/>
		<path class="s5" d="m264.3 278c0.5-6 5.1-10.7 4-17-0.5-3.1-2.3-5.6-3.7-8.4-1.6-3.6-2-7.5-3.9-10.9-0.1-0.1-0.3-0.1-0.2 0.1 1.4 3.5 1.8 7.4 3.3 10.9 1.4 3.2 3.5 5.8 3.7 9.3 0.2 3.7-1.1 6.6-2.1 10-0.6 1.9-1.6 4-1.3 6 0 0.2 0.2 0.2 0.2 0z"/>
		<path class="s5" d="m253.6 287c2.7-1.1 7.9 1.4 10.3 2.7 2.9 1.7 5.3 3.7 8.1 5.5 2.9 1.9 6.4 1.6 9.5 3.2 2.9 1.6 4.8 4 7.2 6.2 0.1 0.1 0.3-0.1 0.2-0.2-2.1-2.1-4.2-4.8-6.8-6.4-1.8-1.1-3.9-1.3-5.9-1.8-3.2-0.8-4.9-2.5-7.5-4.3-3.2-2.3-11.1-7.2-15.2-5-0.1 0.1 0 0.2 0.1 0.1z"/>
		<path class="s5" d="m284.7 263.8c4.8 2.1 8.9 4.2 12.5 8 1.6 1.7 2.5 2.4 4.6 3.4 2.9 1.3 3.8 3.2 6 5.2 0.1 0.1 0.2 0 0.1-0.1-2.1-2.2-1.9-3.8-4.5-5.1-1.4-0.7-3.2-1.3-4.3-2.3-1-0.9-1.7-2.1-2.7-3-3.6-3.2-7-4.8-11.6-6.3-0.1 0-0.2 0.2-0.1 0.2z"/>
		<path class="s5" d="m296.5 256.4c1.4-2.7 1.6-6.6 1.3-9.6-0.3-3.5-2.6-5.4-3.8-8.5-1-2.6-1-5.4-2.5-7.9-1.6-2.6-4.4-5.2-7-6.8-0.1-0.1-0.3 0.1-0.1 0.2 2.9 2.2 6.3 5.7 7.8 9.1 0.8 2 0.4 4 1.1 5.9 1.1 3.1 3.3 4.2 3.7 8 0.4 2.8 0.2 6.9-0.7 9.5-0.1 0.2 0.2 0.3 0.2 0.1z"/>
		<path class="s5" d="m309.1 242c6.1 6.8 17.3 6 24.5 11.2 0.3 0.2 0.7-0.3 0.4-0.6-6.5-6.3-18.2-4.2-24.7-10.8-0.1-0.2-0.4 0-0.2 0.2z"/>
		<path class="s5" d="m317.3 229.5c-0.2-3.9-0.5-7.4-2-11.1-0.5-1.2-1.1-2.2-2.1-3.1-2-2-2.4-1.7-4-5.4-2-4.7-7.7-6.8-12.4-8.7-0.1-0.1-0.2 0.2-0.1 0.3 3.1 1.4 6 2.8 8.7 4.9 2.2 1.5 2.1 4.1 3.5 6 1.2 1.8 3.2 2.6 4.5 4.3 2.7 3.4 3.3 8.7 3.6 12.8 0 0.1 0.3 0.1 0.3 0z"/>
		<path class="s5" d="m324.5 215c2.1 0.1 3.4-1.1 5.4-1.1 2.4-0.1 5 1.9 7 3 1.6 0.7 3 1.2 4.7 1.5 0.4 0.1 0.8-0.3 1.2-0.3 2.3-0.2 4.1 0.2 5.8 1.5 0.1 0.1 0.2-0.1 0.1-0.2-1.2-1.1-2.4-2.5-4.3-2.5-1.1 0.1-1.9 0.8-3.1 0.8-2.1-0.1-3.5-1.3-5.3-2.3-1.6-0.8-3.3-1.8-5.1-2.1-2.6-0.4-3.8 1.4-6.4 1.4-0.2 0-0.2 0.2 0 0.3z"/>
		<path class="s5" d="m350.3 220.6c1.5 1 2.9 2 4.5 2.8 0.5 0.3 1.1 0.6 1.8 0.8 0.8 0.3 1.6 0.2 2.4 0.5 0.2 0.1 0.4-0.2 0.2-0.3-1.4-0.7-3-0.9-4.5-1.5-1.5-0.7-2.9-1.6-4.3-2.4-0.1-0.1-0.1 0-0.1 0.1z"/>
		<path class="s5" d="m326.5 196.2c-1.9-2.7-3.8-5.1-6.4-7.1-1.9-1.6-3.3-2.6-4.5-4.8-0.6-1-0.9-2.1-1.7-3-3.4-4.4-7.6-3.5-12.4-2.6-0.2 0-0.1 0.3 0 0.3 2.2-0.1 4.2-1 6.5-0.6 4.1 0.6 5.3 3.6 7.1 6.8 0.9 1.6 2 2.6 3.5 3.7 2.9 2.3 5.4 4.6 7.8 7.4 0.1 0.1 0.2 0 0.1-0.1z"/>
		<path class="s5" d="m326.5 182.5c1.4-2.4 2.8-4.8 5.2-6.4 2.4-1.6 5.1-2.1 7.8-2.8 2.9-0.8 6.5-3 9.1-4.6 0.1-0.1 0-0.3-0.1-0.2-1.9 0.9-3.8 1.6-5.7 2.6-2.4 1.3-4.8 1.5-7.4 2.4-4.9 1.7-7.1 4.2-9.2 8.9 0 0.2 0.2 0.3 0.3 0.1z"/>
		<path class="s5" d="m322.9 166.4c-3.4-2.9-5.8-2.2-9.8-1.6-4.3 0.7-5.8-3.4-9.4-4.7-0.1-0.1-0.2 0.1 0 0.2 2.8 1.4 3.5 4.9 7.1 5.4 0.9 0.1 2-0.2 2.9-0.3 3.4-0.6 5.9-1.1 9 1.2 0.1 0.1 0.3-0.1 0.2-0.2z"/>
		<path class="s5" d="m319.6 158.3c0.8-1.3 1.2-2.7 2.6-3.6 0.6-0.5 1.3-0.7 1.8-1.3 0.8-0.8 1.1-2.1 1.6-3.1 0.5-1 1.3-1.6 1.8-2.5 0.1-0.1 0-0.2-0.1-0.1-0.8 0.7-1.5 1.2-2 2.1-0.7 1.4-1 2.9-2.5 3.8-0.8 0.5-1.6 0.8-2.2 1.6-0.6 0.9-0.9 2.1-1.2 3-0.1 0.2 0.2 0.3 0.2 0.1z"/>
		<path class="s13" d="m264.8 260.7c0-0.8-1.1-1.7-1.6-2.3-0.5-0.4-1-0.9-1.5-1.3-0.2-0.3-0.4-0.6-0.7-0.8-0.2-0.2-0.4-0.3-0.6-0.5-0.1-0.1-0.4 0-0.3 0.1 0.3 0.9 1.3 1.6 2 2.3q0.5 0.5 1 1c0.5 0.5 1.3 0.9 1.4 1.5 0.1 0.2 0.3 0.2 0.3 0z"/>
		<path class="s13" d="m263 254.6c-1.1-0.6-1.6-1.7-2.3-2.7-0.6-0.8-1.5-2-1.7-3 0-0.1-0.2-0.1-0.2 0 0 1.2 1.1 2.4 1.8 3.3 0.7 1 1.2 2 2.3 2.6 0.2 0 0.3-0.1 0.1-0.2z"/>
		<path class="s13" d="m267.9 255.2c-0.4-1.5-0.6-3.4-0.7-5 0-0.6 0.1-1.2-0.1-1.7-0.2-0.6-0.6-1-0.8-1.6-0.1-0.2-0.3-0.2-0.3 0 0 0.4 0.1 0.6 0.3 1 0.3 0.9 0.4 1.7 0.5 2.6 0.2 1.6 0.4 3.3 0.9 4.8 0.1 0.1 0.2 0 0.2-0.1z"/>
		<path class="s13" d="m265.3 247.9c-0.3-1-0.7-2-1-3 0 0-0.1 0-0.1 0.1 0.3 1 0.7 1.9 1 2.9z"/>
		<path class="s13" d="m259.5 242.8c-0.3-1.2-0.5-2.3-1.1-3.4-0.4-0.9-0.7-1.9-1.5-2.5-0.1-0.1-0.2 0.1-0.2 0.2 0.1 0.3 0.1 0.3 0.3 0.5q0.5 0.8 0.9 1.6c0.3 0.6 0.7 1.2 0.9 1.8 0.2 0.6 0.2 1.3 0.5 1.9 0 0.2 0.3 0.1 0.2-0.1z"/>
		<path class="s13" d="m257.3 244.7q0-0.2-0.1-0.4c0-0.1-0.1 0-0.1 0q0.1 0.2 0.2 0.4c0 0 0.1 0 0 0z"/>
		<path class="s13" d="m270.4 265.7z"/>
		<path class="s13" d="m270.6 264.6c0.1-1.8 0.3-4-0.2-5.8 0-0.1-0.2-0.1-0.2 0.1 0.1 1.8 0.2 3.8 0 5.7 0 0.2 0.4 0.2 0.4 0z"/>
		<path class="s13" d="m265.8 287.5c1.1 0.3 2.3 0.4 3.4 0.7 1.3 0.4 2.5 1 3.8 1.4 0.2 0.1 0.4-0.2 0.2-0.3-2.3-1.3-4.8-1.6-7.3-2.1-0.2-0.1-0.3 0.2-0.1 0.3z"/>
		<path class="s13" d="m271.8 291.2c1.9 0.5 3.7 1.3 5.5 1.9 2.1 0.7 4 1 6.1 1.4 0.1 0 0.2-0.2 0-0.2-1.9-0.7-4-0.8-6-1.4-1.9-0.6-3.7-1.3-5.6-1.8z"/>
		<path class="s13" d="m283.1 296.8c0.6 0.1 1.1 0.3 1.6 0.5 0.2 0.1 0.3-0.2 0.1-0.3q-0.7-0.5-1.6-0.7c-0.3 0-0.4 0.4-0.1 0.5z"/>
		<path class="s13" d="m266.5 293.3c0.5 0.7 0.9 1.4 1.5 2 0.2 0.3 1 0.9 1 1.4 0 0.1 0.1 0.1 0.2 0 0.3-0.5-0.3-1-0.6-1.3-0.2-0.3-0.5-0.5-0.8-0.8-0.4-0.4-0.6-1-1-1.5-0.1-0.1-0.4 0.1-0.3 0.2z"/>
		<path class="s13" d="m262.8 289.5c-0.2 0.9 0.3 1.7 0.8 2.4 0.4 0.6 0.9 1.7 1.6 2.1 0.2 0.1 0.4-0.2 0.2-0.3-0.3-0.2-0.4-0.6-0.6-0.9-0.2-0.3-0.4-0.6-0.7-1-0.4-0.6-1.1-1.4-0.9-2.2 0.1-0.3-0.3-0.4-0.4-0.1z"/>
		<path class="s13" d="m276.2 298.6c1.6 0.7 2.8 1.6 4.2 2.7 0.6 0.4 1.2 0.7 1.8 1.1 0.5 0.4 0.8 0.7 1.4 1 0.1 0 0.2-0.2 0.1-0.2-0.6-0.5-1.1-1-1.6-1.4q-0.9-0.6-1.8-1.2c-1.2-0.9-2.5-1.6-3.9-2.3-0.2 0-0.4 0.2-0.2 0.3z"/>
		<path class="s13" d="m275.2 298.5q0.2 0.1 0.4 0.2c0 0 0.1-0.1 0-0.2q-0.2-0.1-0.3-0.1c-0.1-0.1-0.2 0.1-0.1 0.1z"/>
		<path class="s13" d="m283.5 302.5c0.8 2 2.2 3.5 3.6 5.1 0.1 0.1 0.4-0.1 0.4-0.3-0.1-0.3-0.3-0.5-0.5-0.7-0.4-0.5-0.8-0.9-1.2-1.5-0.7-0.9-1.5-1.7-2-2.7-0.1-0.1-0.3 0-0.3 0.1z"/>
		<path class="s13" d="m292.7 309.8c-0.2-1.1-0.1-2.2-0.4-3.4-0.4-1.2-0.8-2.5-1.4-3.6-0.1-0.2-0.4-0.1-0.3 0.1 0.3 1.3 0.9 2.6 1.3 3.9 0.3 1 0.3 2.1 0.6 3.1 0 0.1 0.2 0.1 0.2-0.1z"/>
		<path class="s13" d="m289.4 300.3q-0.3-0.8-0.9-1.2c-0.1-0.1-0.3 0-0.2 0.2 0.4 0.3 0.7 0.6 0.9 1.1 0 0.1 0.3 0.1 0.2-0.1z"/>
		<path class="s13" d="m299.7 272.9c1 0.3 2.2 0.5 3.2 0.8q2 0.5 4 1.1c0.1 0 0.3-0.2 0.1-0.3-2.3-1.3-4.8-1.1-7.2-1.8-0.2 0-0.2 0.2-0.1 0.2z"/>
		<path class="s13" d="m301.4 271c1.3 0.1 2.4 0.2 3.7 0.8 0.9 0.5 1.9 1 2.8 1.6 0.2 0.1 0.4-0.1 0.2-0.3-2-1.6-4.2-2.4-6.7-2.2-0.1 0-0.1 0.1 0 0.1z"/>
		<path class="s13" d="m308.5 278.4c0.6 0.5 1.2 1.2 1.8 1.7 0.1 0.1 0.3 0 0.2-0.1q-0.8-1-1.8-1.8c-0.1-0.1-0.4 0.1-0.2 0.2z"/>
		<path class="s13" d="m300.9 276.4q0.3 0.7 0.7 1.2c0 0.2 0.3 0.1 0.2-0.1-0.1-0.4-0.4-0.8-0.6-1.3-0.1-0.2-0.4 0-0.3 0.2z"/>
		<path class="s13" d="m297.3 273.6c0.1 0.5 0.1 1 0.6 1.2 0.1 0.1 0.2-0.1 0.1-0.1-0.4-0.3-0.4-0.8-0.5-1.2 0-0.1-0.3 0-0.2 0.1z"/>
		<path class="s13" d="m297.2 269.1c2.5-0.3 5.4 0.8 7.7 1.5 0.2 0.1 0.3-0.2 0.2-0.3-1.2-0.8-2.3-1.1-3.7-1.2-1.4-0.1-2.9-0.4-4.2-0.1-0.1 0-0.1 0.1 0 0.1z"/>
		<path class="s13" d="m292.7 266.3q0.1 0 0 0z"/>
		<path class="s13" d="m313.3 284.7c0.2 0.2 0.5 0.5 0.7 0.8 0 0.1 0.2 0 0.2-0.1-0.2-0.3-0.4-0.6-0.7-0.9-0.1-0.2-0.4 0-0.2 0.2z"/>
		<path class="s13" d="m295.4 248c0.2-1-0.9-1.6-1.5-2.2-0.5-0.5-0.8-0.9-1.3-1.3q-1.1-0.8-2.1-1.5c-0.1-0.1-0.2 0.1-0.1 0.1 0.8 0.8 1.9 1.3 2.7 2.1 0.4 0.4 0.7 0.8 1 1.1 0.5 0.4 1.2 0.9 1 1.6 0 0.1 0.2 0.2 0.3 0.1z"/>
		<path class="s13" d="m294.2 243.6c-0.8-0.6-1.2-1.5-1.9-2.2-0.9-0.9-1.6-1.6-2.3-2.6-0.1-0.1-0.2-0.1-0.2 0.1 0.3 1 1.3 1.9 2.1 2.6 0.8 0.7 1.2 1.7 2.1 2.3 0.2 0.2 0.4-0.1 0.2-0.2z"/>
		<path class="s13" d="m289.5 235.5c0-0.4-0.1-0.7-0.3-1.1-0.3-0.3-0.4-0.6-0.8-0.8-0.1 0-0.3 0.2-0.1 0.3 0.4 0.4 0.8 1 0.8 1.6 0 0.2 0.4 0.2 0.4 0z"/>
		<path class="s13" d="m297.1 241.6c-0.3-0.9-0.6-1.7-1.1-2.5 0-0.1-0.2-0.1-0.2 0 0 0.4 0.2 0.7 0.4 1 0.2 0.5 0.4 1.1 0.6 1.6 0 0.2 0.4 0.1 0.3-0.1z"/>
		<path class="s13" d="m294.5 237.7c-0.3-0.9-0.3-1.8-0.5-2.7-0.1-0.5-0.3-1-0.4-1.5-0.1-0.4-0.1-0.9-0.2-1.3-0.1-0.1-0.2-0.1-0.2 0 0 0.4 0 0.7 0 1.1 0.1 0.5 0.4 1 0.5 1.6 0.3 0.9 0.4 1.9 0.7 2.8 0 0.1 0.1 0 0.1 0z"/>
		<path class="s13" d="m290.9 233c-0.3-1.1-1.1-1.9-2-2.6-0.8-0.6-1.8-1.7-2.8-2-0.2-0.1-0.3 0.2-0.1 0.3 0.7 0.5 1.3 1.4 2.1 1.9 1 0.7 1.8 1.5 2.5 2.5 0.1 0.2 0.4 0.1 0.3-0.1z"/>
		<path class="s13" d="m290 227.2c-0.3-0.8-1-1.5-1.6-2.1-0.8-0.8-1.6-1.8-2.2-2.6-0.1-0.2-0.3 0-0.3 0.1 0.2 0.7 1 1.5 1.5 2.1 0.8 0.8 2 1.5 2.4 2.6 0 0.1 0.2 0.1 0.2-0.1z"/>
		<path class="s13" d="m284.5 221.3q-0.7-1.1-1.4-2.2c0-0.2-0.3-0.1-0.2 0.1 0.2 0.8 0.8 1.6 1.2 2.3 0.1 0.3 0.5 0 0.4-0.2z"/>
		<path class="s13" d="m318.3 248.7c1.6 0.8 2.6 2.2 4.1 3 0.2 0.1 0.3-0.1 0.2-0.2-0.6-0.5-1.3-1-1.9-1.5-0.8-0.6-1.4-1.1-2.3-1.5-0.1 0-0.2 0.2-0.1 0.2z"/>
		<path class="s13" d="m322.5 250.2c1.4 0.7 2.4 1.8 3.8 2.5 0.9 0.4 1.9 1.1 2.9 0.7 0.1 0 0.1-0.2-0.1-0.2-1.2 0-2.6-0.8-3.7-1.3-1-0.6-1.7-1.4-2.8-1.9-0.1 0-0.2 0.2-0.1 0.2z"/>
		<path class="s13" d="m315 244.6c2.7 0 5.1 0.7 7.7 1.1 0.1 0 0.3-0.2 0.1-0.3-2.3-1-5.3-1.1-7.8-1.1-0.1 0-0.1 0.3 0 0.3z"/>
		<path class="s13" d="m325.9 247.2c1.2-0.1 2.3 0.2 3.5 0.3 1.2 0 2.3 0.1 3.4 0.1 0.1 0 0.2-0.2 0-0.3-0.8-0.5-1.9-0.4-2.9-0.4-1.3 0.1-2.7-0.2-4 0-0.2 0-0.2 0.3 0 0.3z"/>
		<path class="s13" d="m314.6 242.5c0.9-0.2 1.7 0 2.5 0.3 0.1 0 0.2-0.2 0-0.3-0.8-0.3-1.7-0.4-2.5-0.2-0.2 0-0.1 0.3 0 0.2z"/>
		<path class="s13" d="m330.5 249c1.1 0.2 2.4 0.9 3.4 1.3 1 0.5 2 1.1 3.1 1.4 0.1 0.1 0.2-0.2 0.1-0.3-1.1-0.6-2.4-1.1-3.5-1.6-1-0.4-2-0.9-3-1-0.2-0.1-0.2 0.2-0.1 0.2z"/>
		<path class="s13" d="m336.9 253.2c0.7 0.3 1.3 1 2.1 1 0.1 0 0.2-0.2 0.1-0.3-0.3-0.3-0.7-0.4-1.1-0.6q-0.4-0.3-0.9-0.6c-0.3-0.1-0.4 0.4-0.2 0.5z"/>
		<path class="s13" d="m317 219.9c0-0.5 0-1.1-0.1-1.7 0-0.3-0.2-0.7-0.2-1 0-0.1-0.1-0.2-0.2-0.1-0.1 0.3 0 0.6 0.1 0.9 0.2 0.6 0.2 1.3 0.2 1.9 0 0.1 0.2 0.1 0.2 0z"/>
		<path class="s13" d="m315.4 217.3c-0.3-1.4-0.2-2.8-1.1-4-0.5-0.6-1-1.1-1.3-1.8-0.6-1.1-0.7-2.1-1.1-3.1-0.1-0.2-0.4-0.1-0.3 0.1 0.4 1.4 0.7 3 1.6 4.3 0.3 0.5 0.8 0.8 1.1 1.3 0.6 1 0.6 2.2 0.9 3.2 0.1 0.1 0.2 0.1 0.2 0z"/>
		<path class="s13" d="m312.1 211.5c-0.9-1.8-1.5-3.9-2.7-5.6-0.7-1-2.3-1.7-3.4-2.1-0.1 0-0.2 0.1-0.1 0.2 1.4 0.7 2.7 1.1 3.5 2.5 0.9 1.7 1.6 3.5 2.4 5.2 0.1 0.1 0.3 0 0.3-0.2z"/>
		<path class="s13" d="m305 203.3c-0.3-0.1-0.5-0.4-0.8-0.4-0.2 0-0.3 0.2-0.1 0.3q0.3 0.3 0.7 0.5c0.2 0.2 0.5-0.2 0.2-0.4z"/>
		<path class="s13" d="m315 220.2c-0.9-0.5-1.8-1-2.7-1.4-0.9-0.4-1.7-0.9-2.5-1.2-0.1-0.1-0.3 0.1-0.1 0.2 1.6 1 3.4 1.9 5.3 2.5 0 0 0.1 0 0-0.1z"/>
		<path class="s13" d="m311.2 216.6c-1.2-0.8-2.2-2.3-3-3.5-0.5-0.8-0.6-1.6-1-2.4-0.1-0.2-1.3-1.2-1.3-1.3 0.1-0.1-0.1-0.1-0.1 0q0 0 0 0.1 0 0 0 0.1c0.4 0.4 0.9 0.8 1.2 1.3 0.3 0.5 0.3 1 0.6 1.6 0.2 0.5 0.4 0.8 0.8 1.2 0.9 1.1 1.5 2.3 2.6 3.2 0.2 0.1 0.3-0.2 0.2-0.3z"/>
		<path class="s13" d="m304.3 208.2c-0.6-0.3-1.1-0.5-1.7-0.6-0.1 0-0.1 0.2 0 0.3 0.3 0.1 0.5 0.1 0.8 0.2q0.4 0.2 0.7 0.3c0.2 0.1 0.4-0.1 0.2-0.2z"/>
		<path class="s13" d="m303.2 206.3c-2.4-1.2-5.3-1.6-7.2-3.4-0.1-0.1-0.2 0-0.1 0.1 0.6 1 2 1.5 3 1.9 1.4 0.6 2.8 1 4.1 1.6 0.2 0.1 0.3-0.1 0.2-0.2z"/>
		<path class="s13" d="m295.4 201.4c-0.5-0.2-0.8-0.7-1.1-1.2-0.3-0.3-0.5-1-0.9-1.2-0.1 0-0.2 0.1-0.1 0.2 0.2 0.1 0.3 0.6 0.4 0.7q0.2 0.4 0.5 0.8c0.3 0.4 0.6 0.8 1 1 0.2 0.1 0.4-0.2 0.2-0.3z"/>
		<path class="s13" d="m330.2 215.7c1.1 0.5 2.1 1.6 3 2.4 0.8 0.7 1.5 1.7 2.4 2.2 0.2 0.1 0.4-0.1 0.2-0.3-0.4-0.3-0.7-0.8-1.1-1.3-0.5-0.5-1-0.9-1.5-1.3-0.8-0.8-1.8-1.6-2.8-2.1-0.2-0.1-0.4 0.3-0.2 0.4z"/>
		<path class="s13" d="m333.5 216.8c1.3 1.4 2.8 2.7 4.3 3.8 0.7 0.5 1.5 1.2 2.3 1.6 0.7 0.4 1.4 0.5 2.2 0.7 0.2 0.1 0.3-0.2 0.1-0.3-0.5-0.2-1.1-0.3-1.7-0.6-0.9-0.4-1.7-1-2.4-1.5-1.7-1.1-3.3-2.4-4.6-3.9-0.1-0.1-0.2 0.1-0.2 0.2z"/>
		<path class="s13" d="m340.7 220.5c1.2-0.1 2.7 0.5 3.9 0.7 0.9 0.1 1.7 0 2.5 0 0.2 0.1 0.2-0.1 0.1-0.2-0.9-0.3-2-0.1-2.9-0.2-1.2-0.2-2.5-0.6-3.7-0.4-0.1 0 0 0.2 0.1 0.1z"/>
		<path class="s13" d="m336.5 213.7c-0.2 0.1-0.5 0.3-0.8 0.3-0.3 0.1-0.6 0-1 0 0.4 0 0.7 0.1 1 0.1 0.3-0.1 0.6-0.3 0.8-0.3q0.1-0.1 0-0.1z"/>
		<path class="s13" d="m334.5 214.1c0.9-0.1 1.8-0.3 2.7-0.3 0.9 0 1.8 0.2 2.6 0.5 0.1 0.1 0.2-0.1 0.1-0.2-1.7-0.9-3.6-0.4-5.4-0.1-0.1 0-0.1 0.2 0 0.1z"/>
		<path class="s13" d="m331.5 212.5q0.9-0.2 1.8-0.3c0.5 0 1 0 1.6-0.1 0.1 0 0.1-0.1 0-0.2-1.2 0-2.3 0.2-3.4 0.3-0.2 0-0.2 0.3 0 0.3z"/>
		<path class="s13" d="m340.4 216.4c0.6-0.3 1.3-0.4 1.9-0.7 0.6-0.2 0.9-0.7 1.5-1 1.4-0.9 2.9-1.1 4.5-0.7 0.2 0 0.2-0.2 0.1-0.3-1-0.6-2.2-0.7-3.3-0.3-0.7 0.3-1.4 0.7-2 1.1-0.9 0.7-1.7 1.2-2.7 1.8-0.1 0 0 0.1 0 0.1z"/>
		<path class="s13" d="m349.2 215.9c-0.3 0.7-0.9 1.6-1.8 1.3q0 0 0 0.1c0.9 0.2 1.5-0.6 1.8-1.4z"/>
		<path class="s13" d="m346.6 216.9c1.2-0.4 2.7 0.4 3.8 0.8 0.2 0.1 0.3-0.1 0.1-0.2-1.1-0.7-2.7-1.4-4-0.9-0.2 0-0.1 0.3 0.1 0.3z"/>
		<path class="s13" d="m351.6 219.4c0.6 0.4 1.1 0.9 1.6 1.4q0.4 0.2 0.7 0.5c0.2 0.1 0.6 0.2 0.7 0.4 0.1 0.2 0.4 0.1 0.4-0.2-0.1-0.2-0.2-0.3-0.4-0.4q-0.4-0.3-0.9-0.6c-0.7-0.5-1.2-1.1-1.9-1.4-0.2-0.2-0.5 0.2-0.2 0.3z"/>
		<path class="s13" d="m349.7 215.8c0.8 0.3 1.5 0.8 2.2 1.3 0.4 0.3 0.8 0.5 1.1 0.9 0.1 0.2 0.2 0.3 0.4 0.5 0.1 0 0.2-0.1 0.2-0.2-0.2-0.2-0.3-0.5-0.6-0.7-0.3-0.3-0.6-0.6-1-0.9q-0.9-0.7-2.1-1.3c-0.2-0.1-0.4 0.3-0.2 0.4z"/>
		<path class="s13" d="m348.5 220.8q0.3 0.1 0.5 0.2c0.1 0.1 0.2-0.1 0.1-0.1q-0.2-0.2-0.5-0.3c-0.1-0.1-0.2 0.2-0.1 0.2z"/>
		<path class="s13" d="m317.7 189.3c-1.1-0.5-2.1-1-3.1-1.5-0.6-0.4-1.3-0.7-2-0.5-0.1 0-0.1 0.3 0.1 0.3 0.8-0.1 1.5 0.4 2.2 0.8 0.9 0.4 1.8 0.8 2.6 1.1 0.2 0.1 0.4-0.1 0.2-0.2z"/>
		<path class="s13" d="m314.4 186.3c-0.9-0.5-1.6-1.3-2.3-2.1-0.5-0.7-1.2-1.4-2-1.7-0.1 0-0.2 0.2-0.1 0.3 0.8 0.7 1.6 1.3 2.3 2 0.6 0.7 1.2 1.3 2.1 1.7 0.1 0 0.1-0.1 0-0.2z"/>
		<path class="s13" d="m311.7 181.7c-1.1-0.5-2.3-1.1-3.6-1.3-1.6-0.1-3.4-0.3-4.9-0.9-0.1 0-0.2 0.2-0.1 0.2 1.3 0.5 2.7 0.8 4 1.1 1 0.2 1.8 0.3 2.8 0.6 0.6 0.3 1.2 0.4 1.8 0.7 0.2 0 0.2-0.3 0-0.4z"/>
		<path class="s13" d="m310.9 185c-0.3-0.2-0.6-0.6-1-0.7-0.1 0-0.2 0.2-0.1 0.3 0.3 0.2 0.6 0.4 0.9 0.7 0.1 0.1 0.4-0.1 0.2-0.3z"/>
		<path class="s13" d="m322.6 190.3c-0.7-0.4-1.1-1-1.5-1.7-0.2-0.4-0.5-0.8-0.9-1-0.1-0.1-0.3 0-0.2 0.1 0.5 0.4 0.8 1.1 1.2 1.7q0.5 0.7 1.3 1.2c0.1 0.1 0.2-0.2 0.1-0.3z"/>
		<path class="s13" d="m318 185.8c-1.3-2.5-2.4-4.9-4.6-6.7-1-0.9-2.3-1.5-3.6-2.1-0.7-0.4-1.7-1.1-2.6-1-0.1 0.1 0 0.2 0.1 0.3 1 0.1 2.2 0.9 3.1 1.3 1.4 0.8 2.7 1.5 3.8 2.8 1.5 1.7 2.5 3.5 3.6 5.5 0 0.2 0.3 0 0.2-0.1z"/>
		<path class="s13" d="m306.5 177.2q-0.7-0.4-1.5-0.8c-0.4-0.2-0.8-0.4-1.2-0.5-0.2 0-0.2 0.2-0.1 0.3 0.3 0.3 0.7 0.4 1.2 0.6q0.7 0.3 1.5 0.6c0.1 0.1 0.2-0.2 0.1-0.2z"/>
		<path class="s13" d="m303.5 178.2c-0.5-0.1-1.2-0.2-1.7-0.3-0.2 0-0.2 0.2-0.1 0.3 0.6 0.2 1.2 0.2 1.7 0.3 0.2 0.1 0.3-0.2 0.1-0.3z"/>
		<path class="s13" d="m329.8 176.9c0.5-1 1.2-1.9 1.9-2.8 0.3-0.5 0.7-1 1.2-1.4 0.2-0.3 0.6-0.6 0.8-1 0-0.1-0.2-0.2-0.3-0.1-0.2 0.4-0.8 0.9-1.1 1.2-0.3 0.4-0.6 0.7-0.9 1.1-0.5 1-1.2 2-1.7 2.9 0 0.1 0.1 0.1 0.1 0.1z"/>
		<path class="s13" d="m333.9 174.3c0.4-2.1 1.7-3.3 3.2-4.6 1.2-1.1 2.9-2.3 4.6-2.4 0.1 0 0.2-0.3 0-0.3-1.3-0.5-3.5 1.1-4.5 1.9-1.7 1.5-3.2 3-3.6 5.3 0 0.2 0.2 0.3 0.3 0.1z"/>
		<path class="s13" d="m337.5 167.3q0.8-0.4 1.6-0.7 0.3-0.2 0.6-0.3c0.3-0.1 0.6-0.1 0.8-0.2 0.2-0.1 0.2-0.3 0-0.3-0.6 0.1-0.9 0.1-1.4 0.4-0.6 0.3-1.2 0.6-1.7 0.9-0.1 0.1 0 0.3 0.1 0.2z"/>
		<path class="s13" d="m339 170.9c2.7-1.7 6-1.4 8.7-2.9 0.2-0.1 0.1-0.4-0.1-0.3-2.8 1.2-6.1 1.3-8.6 3.1-0.1 0 0 0.1 0 0.1z"/>
		<path class="s13" d="m342.7 168.2c0.6-0.1 1.2-0.2 1.9-0.2 0.1 0 0.2-0.2 0-0.3-0.7-0.2-1.4 0-2 0.2-0.2 0-0.1 0.3 0.1 0.3z"/>
		<path class="s13" d="m332.4 176.9q1.2 0.2 2.3 0.6c0.6 0.2 0.8 0.2 1.4 0.1 0.1-0.1 0.1-0.2 0-0.2-0.3 0-0.6 0.1-0.9 0.1-0.2-0.1-0.5-0.2-0.8-0.3q-1-0.3-2-0.4c-0.1 0-0.1 0.1 0 0.1z"/>
		<path class="s13" d="m329.8 178.3c0.6-0.1 1.2-0.2 1.9 0 0.4 0.2 0.8 0.2 1.2 0.2 0.2 0 0.2-0.3 0.1-0.3-0.3-0.1-0.4-0.1-0.7-0.1-0.3 0-0.6-0.1-1-0.2-0.5 0-1.1 0.1-1.6 0.2-0.1 0.1-0.1 0.3 0.1 0.2z"/>
		<path class="s13" d="m336.7 176c3.2 0.9 6.5-0.6 9.4-1.8 0.3-0.1 0.2-0.6-0.1-0.5-3.2 0.8-5.8 3-9.3 2.2-0.1-0.1-0.1 0 0 0.1z"/>
		<path class="s13" d="m341.2 174.3q1.6-0.4 3.2-0.7c0.9-0.2 1.8-0.2 2.6-0.7 0.1 0 0.1-0.3-0.1-0.3-0.9 0-1.8 0.3-2.6 0.5q-1.6 0.4-3.2 0.9c-0.2 0-0.1 0.4 0.1 0.3z"/>
		<path class="s13" d="m321.1 155.2c0.1-1 0.2-1.9 0.6-2.8 0.4-0.7 0.8-1.4 1.1-2.2 0-0.2-0.3-0.3-0.4-0.2-1 1.5-1.4 3.4-1.5 5.2 0 0.1 0.2 0.1 0.2 0z"/>
		<path class="s13" d="m323.2 152.2c0.1-1.5 0.6-3.3 1.6-4.5 0.4-0.4 0.8-0.8 1.2-1.3 0.1-0.1 0.5-0.7 0.6-0.8 0.2-0.1 0.1-0.2-0.1-0.2-0.4 0-0.5 0.5-0.8 0.8-0.5 0.5-1.1 1.1-1.5 1.7-0.7 1.2-1.1 2.9-1.1 4.3 0 0.1 0.1 0.1 0.1 0z"/>
		<path class="s13" d="m326.7 147.1c0.3-0.3 0.7-0.5 1-0.8 0.1-0.1 0.4-0.9 0.5-0.8 0.1 0 0.2-0.2 0.1-0.3q-0.1 0-0.1-0.1-0.2 0-0.2 0.1c-0.3 0.3-0.3 0.7-0.5 1-0.3 0.3-0.6 0.5-0.9 0.8-0.1 0.1 0 0.2 0.1 0.1z"/>
		<path class="s13" d="m324.1 154.7c0.9-1.4 2.8-2.4 3.2-4.1 0-0.1-0.1-0.3-0.2-0.2-0.6 0.8-1 1.6-1.6 2.3-0.6 0.6-1.2 1.2-1.6 1.9 0 0.1 0.1 0.2 0.2 0.1z"/>
		<path class="s13" d="m327.7 149.1q0-0.3 0.3-0.5c0 0 0-0.1-0.1-0.1-0.2 0.1-0.3 0.2-0.4 0.5-0.1 0.1 0.1 0.2 0.2 0.1z"/>
		<path class="s13" d="m318.8 165.7c-0.7-0.3-1.5-0.2-2.2 0-0.5 0.1-0.9 0.1-1.4 0.3-1 0.4-1.7 0.8-2.9 0.8-0.2 0-0.2 0.2 0 0.3 1 0.4 1.8 0.1 2.7-0.4 0.8-0.4 2.8-0.9 3.6-0.6 0.3 0.1 0.4-0.3 0.2-0.4z"/>
		<path class="s13" d="m310 166.3z"/>
		<path class="s13" d="m309.6 166.2c-0.6-0.4-1.2-0.6-1.7-1.1-0.3-0.1-0.4-0.4-0.7-0.6-0.2-0.2-0.4-0.4-0.5-0.7-0.1-0.1-0.4-0.1-0.4 0.1-0.1 0.5 0.6 1.2 1 1.5 0.6 0.5 1.4 0.9 2.1 1.2 0.3 0 0.4-0.3 0.2-0.4z"/>
		<path class="s13" d="m311.7 164.1c-2.1 0-3.7-2.4-4.9-3.8 0-0.1-0.2 0-0.2 0.1 0.4 1.2 1.5 2 2.4 2.8 0.9 0.8 1.5 1.2 2.7 1.1 0.2 0 0.2-0.2 0-0.2z"/>
		<path class="s14" d="m275.8 82.2c-0.7-1.8-1.4-3.7-2.2-5.6-0.7-1.6-1.5-3.1-2.6-4.4-0.2-0.3-0.5-0.6-0.9-0.7-0.4-0.2-0.9-0.1-1.1 0.3-0.2 0.3 0 0.9 0.4 0.9-0.9-0.7-2.1-0.9-3.2-0.7-0.2 0.7 0.2 1.4 0.8 1.8q-1 0-2 0c-0.3 0-0.7 0-0.8 0.3 0 0.2 0.1 0.3 0.1 0.5q0.5 1 1.4 1.9-0.4 0-0.8 0c-0.1 0.3 0 0.7 0.3 0.9q-0.9-0.1-1.8 0.1c-0.1 0.4 0.1 0.8 0.5 1.1q-0.5 0-0.9 0.1c-0.2 1.1 0.7 2 1.5 2.7 3.3 2.7 7.6 4.1 11.8 3.9"/>
		<path class="s14" d="m297.8 105.7c2.4 3.3 4 7.2 4.8 11.2 0.1 0.4 0.2 0.9-0.1 1.2-0.3 0.4-1.1 0.2-1-0.2 0.1 0.5 0.2 1.2-0.1 1.6-0.3 0.5-1.3 0.5-1.4 0 0 0.9-1.3 1.4-2.2 0.9-0.8-0.5-1.1-1.5-1.3-2.4-0.2 0.2-0.6 0.2-0.9 0.1q-0.3-0.9-0.4-1.7c-0.1 0.2-0.4 0.4-0.7 0.4q0.1-3.3 0.1-6.6c0.1-1.3 0.2-2.8 1.3-3.4"/>
		<path class="s14" d="m289.9 61.5c0-0.8-0.1-1.8-0.8-2q-0.4 0.8-0.7 1.7c0-0.5 0.1-0.9 0-1.3-0.2-0.4-0.5-0.8-0.9-0.8q-0.3 0.7-0.5 1.4c0.1-0.4-0.1-0.8-0.5-0.8-0.4-0.1-0.7 0.3-0.7 0.6 0-0.6-0.6-1.3-1.3-1.3-0.7 0.1-1.2 1-0.8 1.5-0.3-0.3-0.8-0.6-1.2-0.7q-0.3 0.6-0.4 1.2c-0.5-0.5-1.1-0.8-1.7-1-0.2 0-0.3 0-0.5 0.1-0.1 0-0.1 0.1-0.2 0.2-0.3 0.7-0.3 1.3-0.2 2-0.1-0.2-0.3-0.5-0.5-0.6-0.3-0.2-0.6-0.1-0.7 0.1-0.1 0.1-0.1 0.3-0.1 0.4 0 4.4 2 8.7 5.3 11.6q0.4 0.4 0.9 0.7c0.8 0.4 2.5 0.4 3.2-0.4 0.7-0.8 0.8-2.8 1-3.8q0.9-4.4 1.3-8.8z"/>
		<path class="s14" d="m310.4 78.7c2.4-1.5 4.9-3 7.7-3 0.2 0 0.4 0 0.6 0.2 0.1 0.2 0 0.6-0.2 0.7-0.3 0.2-0.5 0.2-0.8 0.2 0.9 0.1 1.7 0.5 2.4 1-0.3 0.4-0.8 0.7-1.2 0.8 0.5 0.2 1.1 0.5 1.2 1.1 0.2 0.5-0.4 1.2-0.9 1 0.5 0.2 0.9 0.7 1.1 1.2q-0.6 0.1-1.1 0.2c0.5 0 1.1 0.5 1 1.1 0 0.5-0.7 0.9-1.2 0.6 0.4 0.3 0.8 0.6 1 1.1q-0.8 0.4-1.8 0.4c0.5-0.2 0.8 0.6 0.5 1-0.3 0.4-0.9 0.5-1.4 0.5-3.3 0.1-6.5-0.2-9.7-0.9-0.6-0.1-1.2-0.2-1.6-0.6-3.1-2.3 3-5.8 4.4-6.6z"/>
		<path class="s14" d="m316.1 100.2c1.8-0.1 3.9 0 5.2 1.3q-0.7 0-1.4 0 1.9 0.6 3.6 1.6c0.5 0.3 1.1 0.8 1.2 1.4-0.8 0.1-1.5 0-2.2-0.2q0.5 0.3 0.9 0.6c0.2 0.1 0.3 0.3 0.4 0.4 0.1 0.3-0.2 0.7-0.5 0.8-0.4 0.1-0.7 0-1-0.1 0.5 0.6 1.1 1.3 1.2 2 0.2 0.8-0.1 1.8-0.8 2-0.6 0.3-1.3 0-1.9-0.3q-1.5-0.7-3.1-1.5c0.5 0.1 0.6 0.9 0.2 1.2-0.5 0.3-1 0.3-1.5 0.1-1.2-0.3-2.2-1-3.3-1.6q-2.4-1.7-4.5-3.9c-1.1-1.2-1.8-3.2 0.3-3.6 2.2-0.5 4.9-0.2 7.2-0.2z"/>
		<path class="s11" d="m274.6 128c-0.4-2.3 0.7-4.9-0.3-7-0.3-0.5-0.6-0.9-1.1-1.1-0.4-0.3-1.1-0.3-1.5 0.1-0.5 0.4-0.5 1.2-0.4 1.8 0.3 2.4 1.5 4.7 3.4 6.2q-0.2-0.8-0.4-1.5"/>
		<path class="s11" d="m271.7 127c-2.1-0.8-4.3-1.5-6.5-1.4-0.4 0-0.8 0.1-1.1 0.3-0.3 0.3-0.5 0.7-0.3 1.1q0.3 0.1 0.6 0.3c2.4 1 5.3 1 7.7-0.2q-1-0.2-1.9-0.5"/>
		<path class="s12" d="m283.5 97.5c-0.4 4.1-2.4 8-3.1 12.1-0.5 2.8-0.9 5.6-1.1 8.4-0.4 6.9-0.7 14.3-0.1 21.2 0.7 8.4 0.3 17.3-0.9 25.7-0.4 3.4-1.9 6.4-2.5 9.8-0.6 3.6-1.5 7-2.8 10.6-4.7 13-9.6 26.2-15.4 38.9-3.1 6.6-6.1 13-9.4 19.5-3.5 6.7-6.7 13.5-10 20.3-3.5 7.4-5 15.5-7.3 23.3-1.4 4.4-2.7 8.9-4 13.3-1.4 4.7-2 9.1-2.9 13.9-0.1 0.7 0.8 1 1.1 0.3 2.4-7.8 4.5-15.8 7-23.6 2.4-7.7 3.8-15.9 6.9-23.4 5.5-13.5 13.8-25.7 19.5-39.1 3-6.8 5.9-13.6 8.9-20.4 2.9-6.5 4.7-13.5 7.1-20.2 2.3-6.4 3.5-12.7 5.2-19.2 1.7-6.7 1-13.8 1-20.6-0.1-8.6-0.7-17.2-0.8-25.9 0-4.2 0.1-8.6 0.8-12.7 0.7-4.1 2.5-8.1 2.9-12.2z"/>
		<path class="s12" d="m244.3 81.3c-0.2 7.9 1.1 16.3 3.1 23.8 2.1 7.8 5.5 15.1 8.5 22.5 3.2 8.1 7.1 15.8 10.8 23.7 2.2 4.8 4.9 9.7 6.4 14.8 1 3.5 1.3 7.1 2.5 10.6 0.2 0.6 1.3 0.5 1.2-0.2-0.4-7.2-2.4-13.1-5.4-19.6-4-8.8-8.3-17.3-12-26.2-2.9-7.2-7.1-14.2-9.4-21.6-2.7-8.9-4.4-18.4-5.2-27.8 0-0.3-0.5-0.3-0.5 0z"/>
		<path class="s11" d="m271.6 216.2c-0.5-4.7-0.6-9.5 1.2-13.8 0.5-1 1.1-2 2.2-2.3 1.2-0.2 2.5 0.9 2.8 2.1 0.3 1.2 0 2.5-0.5 3.7q-0.4 1.3-0.9 2.5c-0.3 0.8-0.7 1.5-1.1 2.1-0.5 0.7-1 1.2-1.4 1.9-1.1 1.5-1.5 3.3-2.5 4.8q0-1.4 0-2.8"/>
		<path class="s11" d="m276.7 214.4c0.9-0.8 2.2-0.9 3.4-0.8q2.3 0 4.6 0.3c2.2 0.3 4.5 0.9 6 2.6 0.5 0.6 0.8 1.4 0.7 2.2-0.2 1-1.2 1.8-2.3 1.9-1.1 0.1-2.1-0.3-3.1-0.7-3.5-1.4-6.6-3.4-9.7-5.4q1.4-0.3 2.8-0.6"/>
		<path class="s11" d="m289.5 208.6c2-3.7 3.8-7.8 3.3-11.9-0.1-0.8-0.3-1.6-0.8-2.3-0.5-0.6-1.3-1-2.1-0.7-0.8 0.2-1.2 1.1-1.5 2-0.3 1.3-0.5 2.7-0.4 4.1 0 1.3 0.3 2.5 0.5 3.7q0.5 2.5 1 5 0.5-1 1-1.9"/>
		<path class="s11" d="m306.4 206.1c2 0.7 4.3 1.7 5 3.8 0.1 0.2 0.2 0.5 0.1 0.8-0.1 1-1.2 1.4-2.2 1.6-0.5 0.2-1.1 0.3-1.6 0.2-0.4-0.1-0.8-0.3-1.1-0.5-1.9-1.1-3.7-2.2-5.5-3.5-0.6-0.5-0.9-1.2-1.6-1.7-0.7-0.4-1.6-0.6-2.1-1.3q-0.1-0.1-0.1-0.1c0-0.1 0.1-0.1 0.2-0.1 1.5-0.3 3.1-0.4 4.6-0.3 1.4 0 2.9 0.6 4.3 1.1z"/>
		<path class="s11" d="m307.4 201.1c1.7-3.1 3.3-6.4 3.2-9.9 0-0.7-0.1-1.5-0.4-2.1-0.4-0.7-1-1.2-1.7-1.3-0.9-0.2-1.7 0.4-2.2 1.1-0.5 0.7-0.7 1.6-0.7 2.5-0.1 1.4 0.1 2.8 0.4 4.2q0.6 2.8 1.4 5.6 0.5-0.7 0.9-1.5"/>
		<path class="s11" d="m314.9 196.9c3.4-0.6 7.1 0.3 10 2.4 0.5 0.4 1 0.8 1.3 1.4 0.2 0.6 0.3 1.3-0.2 1.8-0.3 0.4-1 0.6-1.6 0.5-1-0.1-2-0.5-2.9-1-2.8-1.4-5.5-3.1-7.9-5.2q1.6 0.2 3.3 0.3"/>
		<path class="s11" d="m321.3 189.8c0.6-1.5 0.9-3 1-4.5 0-0.9 0-1.8-0.2-2.6-0.2-0.7-0.5-1.4-1-1.8-0.6-0.4-1.4-0.4-1.8 0.2-0.2 0.3-0.2 0.7-0.3 1 0 0.5 0 1.1 0 1.6 0.3 2.2 2 3.9 2.5 6q0.1-0.8 0.2-1.6"/>
		<path class="s12" d="m326.7 183c-0.7 1.6-2.4 2.8-3.6 4-1.6 1.7-2.9 3.7-4.5 5.4-2.7 2.7-6.1 5-9.5 6.7-6 3.1-12.2 6-18.5 8.1-7.2 2.4-14.6 5.2-20.8 9.5-2.7 1.9-5.2 3.8-7.8 5.8-2 1.5-4.6 3.3-5.6 5.6-0.3 0.6 0.5 1.5 1 0.8 2.2-2.6 5.1-4 7.7-6 3.3-2.5 6.3-5.3 10.1-7.2 7-3.6 14.9-5.9 22.2-9 5.5-2.4 11.1-4.9 16.1-8.3 2.8-1.9 5.4-4.5 7.4-7.3 1.8-2.4 5-5.1 5.9-8.1 0 0 0 0-0.1 0z"/>
		<path class="s11" d="m240.6 245.9c-0.5-1.1-1.6-1.8-2.6-2.5q-2.4-1.5-4.8-2.8c-1.3-0.7-2.6-1.4-4.1-1.8-0.8-0.2-1.7-0.3-2.6 0-0.8 0.3-1.6 0.9-1.7 1.8-0.2 0.9 0.3 1.8 1 2.4 0.7 0.5 1.6 0.8 2.4 1.1 2.4 0.7 5 1.1 7.5 1.2 1.7 0.1 3.4 0 5 0.6-0.7-0.4-1.2-1.1-1.6-1.8"/>
		<path class="s11" d="m239.9 237.9q0.5-2.5 1.4-4.9c0.5-1.3 1.1-2.5 2-3.5 0.9-1 2.1-1.8 3.4-2.1 0.9-0.2 1.9-0.1 2.5 0.6 0.7 0.9 0.4 2.2-0.2 3.1-2.1 3.6-6.6 4.9-9.3 8-0.1-0.8 0-1.7 0.3-2.5"/>
		<path class="s11" d="m237.3 229.1c-1.7-1.5-3.6-2.9-5.6-3.9-2.1-0.9-4.4-1.5-6.7-1.2-0.2 0.1-0.4 0.1-0.6 0.2-0.5 0.3-0.6 0.8-0.8 1.2-0.1 0.5-0.2 1-0.2 1.5 0.1 0.7 0.7 1.4 1.3 1.8 0.7 0.5 1.4 0.7 2.2 0.8 3.7 0.9 7.5 0.9 11.1 0.2q-1.4-0.9-2.9-1.8"/>
		<path class="s11" d="m238.1 214.6c1.3-1.5 3.1-2.7 5.1-2.7 0.1 0 0.3 0 0.5 0.1q0.2 0.1 0.3 0.3c0.8 1.1 0.6 2.8-0.5 3.6-0.5 0.4-1.2 0.6-1.9 1-0.4 0.2-0.9 0.6-1.3 0.9-1.7 1.2-3.6 1.8-5.3 3 1.1-2.2 1.5-4.3 3.1-6.2z"/>
		<path class="s11" d="m233.1 212.2c-2.4-2-5-4.1-8.2-4.7-0.5-0.1-1.1-0.1-1.5 0.2-0.3 0.3-0.4 0.8-0.3 1.2 0.1 0.4 0.4 0.8 0.7 1.1 1.1 1.1 2.8 1.5 4.4 1.6 1.7 0.2 3.3 0.1 4.9 0.6q-0.7-0.7-1.3-1.4"/>
		<path class="s11" d="m231 205.7c0.2-0.9 0.1-1.9 0.3-2.8 0.2-1 0.8-1.9 1.5-2.7 0.2-0.3 0.5-0.7 0.9-0.8 0.4-0.2 0.9-0.1 1.1 0.2q0.2 0.2 0.2 0.5c0.2 0.7 0.1 1.5-0.2 2.1-0.8 1.7-2.8 2.5-3.9 3.9q0-1.1 0.3-2.3"/>
		<path class="s12" d="m227.8 200c5 9.7 6.2 21 8.9 31.4 2.4 9.2 3.5 18.5 5.3 27.8 0.1 0.6 1.1 0.4 1-0.2-0.1-2.3 0.2-4.7 0.1-7-0.1-2.8-1.1-5.5-1.5-8.3-0.8-4.7-1.8-9-3-13.7-2.7-10.3-5-20.9-10.3-30.3-0.2-0.3-0.6 0-0.5 0.3z"/>
		<path class="s12" d="m277.5 86.2c2 2.1 3.3 4.4 4 7.1 0.5 1.6 0.6 3.8 1.7 5.1 0.1 0.1 0.2 0 0.3-0.1 0.3-0.8 0-1.6-0.2-2.3-0.5-1.5-0.7-2.9-1.2-4.4-0.7-2.1-2.3-4.6-4.4-5.7-0.1-0.1-0.3 0.1-0.2 0.3z"/>
		<path class="s12" d="m285.8 76.8c0 4.1 0.1 8.3-0.4 12.3-0.4 3.5-2.1 6.5-2.7 9.8-0.1 0.3 0.4 0.5 0.5 0.2 0.8-1.8 1.9-2.9 2.5-5 0.5-1.6 0.9-3.1 1.1-4.8 0.5-4 0-8.5-0.8-12.5 0-0.1-0.2-0.1-0.2 0z"/>
		<path class="s12" d="m304.4 84.8c-4.1 1.3-8.3 2.5-12.1 4.7-3.4 2-6.5 5.5-9.4 8.2-0.1 0.2 0 0.5 0.2 0.4 3.9-1.3 6.3-4.8 9.6-7 3.8-2.5 8-3.9 11.8-6.2 0.1 0 0-0.1-0.1-0.1z"/>
		<path class="s12" d="m307 100.3c-3.4-1.5-7.7-2.5-11.5-3-3.1-0.5-9.1-2-11.9 0-0.3 0.2-0.1 0.6 0.2 0.5 3.5-0.7 7.7 0.3 11.3 0.7 3.8 0.4 8.2 1 11.8 2.2 0.2 0.1 0.3-0.3 0.1-0.4z"/>
		<path class="s12" d="m296.7 104.7c-1.2-2.1-2.8-3-5.1-4-2.7-1.3-5.4-2.4-8.3-3.3-0.3 0-0.5 0.3-0.3 0.5 3.7 3.5 10.4 2.4 13.3 7 0.2 0.3 0.5 0.1 0.4-0.2z"/>
		<path class="s12" d="m279.8 132c-0.6-2.9-4.3-4-6.5-5.3-1.3-0.7-2.7-1.4-3.7-2.5-1.4-1.5-2.1-3.3-3.4-4.8 0-0.1-0.2 0-0.2 0.1 1.3 3 3.1 5.9 5.8 7.7 2.6 1.7 5.6 2.7 7.8 4.9 0.1 0.1 0.2 0 0.2-0.1z"/>
		<path class="s12" d="m287.3 76c-0.1 0.7-0.3 1.6-1 1.9-0.5 0.2-1.1 0-1.5-0.4-0.5-0.3-0.7-0.8-1-1.3-0.7-1.4-1.4-2.9-1.6-4.5 0.5 0.2 0.8 0.7 0.9 1.2 0-0.4 0.1-0.7 0.3-1 0.1-0.1 0.2-0.2 0.2-0.2 0.2 0 0.3 0.2 0.4 0.4q0.1 0.5 0.1 0.9c0.1-0.5 0.4-1 0.8-1.4 0.1-0.1 0.2-0.1 0.4-0.1 0 0.1 0.1 0.2 0.1 0.3q0.1 0.5 0.2 1c0.1-0.6 0.5-1.2 1.1-1.4q0.1 0.7 0.2 1.4c0.2-0.2 0.2-0.5 0.3-0.8 0.3-0.8 0.6 0.4 0.6 0.7 0.1 1.1-0.3 2.2-0.5 3.3z"/>
		<path class="s12" d="m276.5 82.5c-0.7-0.8-1.5-1.4-1.7-0.5-0.1 0.3 0.2 0.6 0.5 0.6q-0.3 0-0.5 0c-0.1 0.3 0.1 0.6 0.3 0.7-0.3-0.4-0.7-0.5-1.1-0.5 0 0.5 0.3 0.9 0.6 1.2-0.3-0.2-0.5-0.6-0.8-0.6-0.2 0-0.5 0.3-0.5 0.5 0 0.2 0.3 0.4 0.5 0.4-0.2 0-0.4 0-0.6 0.1-0.1 0.2 0.1 0.3 0.3 0.5q1.4 1.1 3.1 1.8c0.3 0.1 0.7 0.2 1 0.2 0.3 0 0.6-0.1 0.8-0.4 0.2-0.2 0.2-0.6 0.1-0.9-0.2-0.6-0.5-1.1-0.8-1.6-0.1-0.1-0.6-0.9-1.2-1.5z"/>
		<path class="s12" d="m303.1 85.3c0.2 0.2 0.4 0.3 0.7 0.4 1.5 0.3 3.1 0.1 4.5-0.6q0-0.1 0.1-0.1c0.1-0.2-0.2-0.3-0.3-0.4q-0.5 0-0.9 0c0.2-0.1 0.5-0.1 0.7-0.3 0.2-0.1 0.3-0.4 0.3-0.6q-0.6-0.1-1.2-0.1c1 0 1.4-2.2-0.1-1.4 0.4-0.1 0.8-0.3 0.4-0.5-0.3-0.2-1.2 0.1-1.5 0.2-0.9 0.3-3.6 2.4-2.7 3.4z"/>
		<path class="s12" d="m309 100.2c1.3 0.2 2.6 0.7 2.5 1.3 0 0.2-0.2 0.4-0.4 0.5-0.3 0-0.5-0.1-0.8-0.2 0 0.1 0.1 0.2 0.2 0.3 0 0 0.2 0.1 0.2 0.2 0 0.1-0.2 0.2-0.4 0.1-0.1 0-0.3-0.1-0.4 0 0.4 0.2 0.7 0.7 0.8 1.3-0.6 0-1.2-0.2-1.6-0.6q0.4 0.3 0.6 0.6 0.1 0.1 0.1 0.2c0 0.1-0.2 0.1-0.3 0.1-1.3-0.3-2.5-1-3.3-2-0.3-0.3-0.6-0.7-0.5-1.2 0.1-0.4 0.5-0.7 0.9-0.7 0.3-0.1 1.3-0.1 2.4 0.1z"/>
		<path class="s12" d="m295.9 107.8c0 0.2 0.2 0.5 0.5 0.6q0.1-0.5 0.1-1c0.2 0.2 0.3 0.5 0.4 0.7 0.1 0.2 0.3 0.4 0.5 0.4q0-0.4 0.1-0.8c0 0.4 0.3 0.7 0.6 0.8 0.1-0.3 0.1-0.6 0.1-0.9 0.2 0.6 0.4 0.5 0.5 0.1 0.1-0.6-0.3-1.5-0.6-1.9-0.3-0.6-1.2-1.7-2-1.3-0.9 0.5-0.5 2.5-0.2 3.3z"/>
		<path class="s12" d="m245.5 60.4c-3.2 6.5-2.2 15.2-1.3 22 0 0.3 0.4 0.3 0.5 0 0.9-7.2-1-14.6 1.1-21.8 0.1-0.2-0.2-0.3-0.3-0.2z"/>
		<path class="s12" d="m228.7 60.4c2.1 3.7 5.8 6.5 8.4 9.7 3 3.7 5 7.2 7 11.4 0.1 0.1 0.3 0.1 0.2-0.1-1.9-8.3-8.9-15.7-15.3-21.2-0.2-0.1-0.4 0-0.3 0.2z"/>
		<path class="s14" d="m218.6 63.1c-1.2-1.2-2.8-2-4.4-2.8-2-0.9-4.1-1.9-6.3-2.1-0.1 0-0.3 0-0.4 0.1-0.1 0.1 0 0.4 0.1 0.5q0.2 0.6 0.7 1c-0.7 0.1-1.4-0.1-2 0-0.7 0.1-1.4 0.9-1 1.4 0.3 0.6 1.2 0.5 1.4 1.1-0.4-0.2-1.1 0-1.2 0.5-0.1 0.6 0.5 1.1 0.9 0.9q-1.3 0.2-2.4 1c-0.1 0-0.3 0.1-0.3 0.3-0.1 0.2 0.1 0.5 0.3 0.7 1 0.9 2.3 1.5 3.6 1.7-0.4 0.1-0.9 0.3-1 0.7-0.1 0.4 0.2 0.8 0.6 1 0.4 0.1 0.8 0.1 1.2 0.1q-0.4 0.2-0.8 0.3c0 0.5 0.5 0.7 0.9 0.8q5.1 1.1 10.4 1.2c0.9 0 1.9 0 2.8-0.3 0.3-0.2 0.6-0.4 0.7-0.7 0.2-0.2 0.2-0.5 0.2-0.7 0-2.7-2.2-4.9-4-6.7z"/>
		<path class="s14" d="m225.9 48.7c-0.5-1.4-1-2.9-1.9-4.1-0.8-1.3-2.1-2.3-3.6-2.6q0 0.4 0 0.8c-1.2-0.9-2.6-1.5-4.1-1.8-0.2 0.5-0.1 1.1 0.3 1.5q-1-0.3-2-0.5c-0.3 0-0.6-0.1-0.9 0-0.7 0.3-0.6 1.4-0.3 2.1q0.8 2 2.1 3.8-0.6-0.1-1.1-0.1c0 0.6 0.3 1.3 0.7 1.8-0.4-0.3-1 0.1-1.1 0.6-0.1 0.5 0.2 0.9 0.5 1.3 1.3 1.6 2.9 2.8 4.5 3.9q1.3 0.9 2.5 1.8c1.7 1.2 6.7 4.2 6.7-0.1 0-1.1-0.7-2.2-0.9-3.3-0.3-1.7-0.8-3.4-1.4-5.1z"/>
		<path class="s14" d="m247.7 45c0.4-1.4 1.1-2.8 2.3-3.4 0 0.5-0.1 0.9-0.3 1.3 0.7-1.2 2-2 3.4-2.1 0 0.6-0.3 1.2-0.8 1.6 1-0.5 2.2-0.8 3.3-0.7 0.3 0 0.6 0 0.9 0.2 0.4 0.4 0.2 1.1-0.1 1.7q-0.9 1.6-2.1 3.1 0.8-0.3 1.5-0.2c0.1 0.6-0.1 1.2-0.6 1.5 0.6-0.3 1.4 0.1 1.6 0.7 0.2 0.6-0.3 1.3-0.9 1.3 0.5 0.1 1.1 0.2 1.2 0.7 0.1 0.3 0 0.6-0.1 0.8-1.3 2.7-3.5 4.8-6.2 5.9-2.4 1.1-5.1 0.4-5.1-2.5-0.1-3.3 0.9-6.8 2-9.9z"/>
		<path class="s14" d="m257.1 56.3c0.9-1.8 2.1-3.4 3.8-4.5q-0.1 0.6-0.2 1.2c1.4-1.3 3.3-2 5.3-2-0.1 0.6-0.2 1.1-0.5 1.5 0.9-0.4 1.8-0.8 2.7-0.7 0.9 0.1 1.8 1.1 1.5 1.9-0.1 0.3-0.4 0.6-0.6 0.8q-1 1.2-2.1 2.3c0.4-0.2 0.9 0 1 0.4 0.2 0.4-0.1 0.9-0.5 1 0.5 0 0.9 0 1.3 0.2 0.3 0.2 0.6 0.6 0.4 1 0 0.2-0.2 0.4-0.4 0.5-0.5 0.7-0.7 1.6-1.2 2.3-0.7 1.1-2 1.6-3.2 2.1q-1.6 0.6-3.2 1.2c-2 0.7-6 1.4-6.3-1.6-0.2-1 0.3-2.1 0.5-3 0.5-1.6 1-3.1 1.7-4.6z"/>
		<path class="s14" d="m212.1 85.1c-0.9 0.6-1.8 1.4-2.3 2.4q0.6 0.1 1.2-0.1c-0.4 0.2-0.8 0.5-1.1 0.9-0.2 0.3-0.3 0.9-0.1 1.3 0.2 0.4 0.8 0.6 1.1 0.3-0.3 0.8-0.4 1.7-0.3 2.6 1.3-0.1 2.6-0.6 3.7-1.4q-0.1 0.6-0.2 1.2c0.7 0.2 1.4 0 2-0.3-0.4 0.5-0.3 1.3 0.2 1.7 0.4 0.4 1.2 0.5 1.7 0.1-0.4 0.4 0.1 1.2 0.7 1.3 0.6 0.1 1.2-0.3 1.7-0.7 2.9-2.3 5.2-6 5-9.9-0.1-1.4-0.5-3.1-2.2-3.1-1.5 0-3.3 0.6-4.8 0.9-2.2 0.5-4.4 1.4-6.3 2.8z"/>
		<path class="s15" d="m220.3 43.1c1.6 1.8 3.2 4.4 3.9 6.8 0.4 1.4 0.5 3.1 1.1 4.4 0.1 0.1 0.2 0 0.3-0.1 0.1-1.6-0.7-3.9-1.3-5.3-0.8-2.1-2.3-4.4-3.9-6-0.1-0.1-0.2 0.1-0.1 0.2z"/>
		<path class="s15" d="m215.6 48c0.1 0.2 0.2 0.4 0.4 0.6q0.3 0.5 0.7 0.9c0.5 0.6 1 1.2 1.6 1.6 0.1 0.1 0.3-0.1 0.2-0.2-0.6-0.4-1.1-1-1.6-1.5q-0.4-0.4-0.7-0.8c-0.3-0.2-0.4-0.4-0.6-0.6z"/>
		<path class="s15" d="m216.1 50.9c0.9 1.3 2.2 2.4 3.4 3.5 1.1 1.1 2.3 1.8 3.8 2.5 0.2 0.2 0.4-0.1 0.2-0.3-0.4-0.5-1.2-0.7-1.8-1.1-0.7-0.4-1.3-0.9-1.9-1.4-1.2-1.1-2.6-2.1-3.7-3.3 0 0-0.1 0 0 0.1z"/>
		<path class="s15" d="m215.9 45.9q0.9 0.8 1.7 1.7c0.1 0.1 0.3-0.1 0.2-0.1q-0.9-0.9-1.7-1.7c-0.1-0.1-0.3 0-0.2 0.1z"/>
		<path class="s15" d="m217.9 44.5c0.2 0.3 0.4 0.5 0.6 0.8 0 0 0.1 0 0.1-0.1-0.2-0.2-0.4-0.4-0.6-0.7 0-0.1-0.1 0-0.1 0z"/>
		<path class="s15" d="m254.4 46.6c-2.1 2.9-3.1 6.6-5.7 9.1-0.2 0.2 0 0.4 0.2 0.2 1.4-1.1 2.1-2.8 3.1-4.3 0.9-1.6 1.8-3.2 2.6-4.9 0.1-0.1-0.1-0.2-0.2-0.1z"/>
		<path class="s15" d="m255.9 50.2c-0.7 0.6-1.8 0.7-2.6 1.1-1 0.5-1.9 1.1-2.7 1.7-0.2 0.1-0.1 0.4 0.1 0.4 0.9-0.1 1.9-1.3 2.6-1.8 0.8-0.5 2-0.7 2.7-1.3 0 0 0-0.1-0.1-0.1z"/>
		<path class="s15" d="m249.2 44.6c-0.3 1.4-1.2 2.7-1.7 4-0.4 1.1-0.9 2-0.8 3.2 0 0.1 0.2 0.1 0.2 0 0.2-2.5 2-4.7 2.4-7.2z"/>
		<path class="s15" d="m248.2 49.6c-0.5 1.1-0.7 2.1-1.1 3.2-0.4 1.1-0.8 2.2-0.9 3.3-0.1 0.2 0.2 0.2 0.3 0.1 0.2-1.1 0.5-2.2 0.9-3.1 0.3-1.1 0.5-2.3 1-3.3 0-0.2-0.1-0.3-0.2-0.2z"/>
		<path class="s15" d="m248.3 53.8c-0.5 0.2-1.5 0.7-1.4 1.4 0 0.1 0.2 0.1 0.2 0 0-0.3 0.4-0.5 0.5-0.7 0.3-0.2 0.4-0.4 0.7-0.6 0.1 0 0.1-0.1 0-0.1z"/>
		<path class="s15" d="m260.4 53.1c-0.4 1.1-0.9 2-1.2 3.2-0.2 0.9-0.5 1.8-0.9 2.6-0.6 1.2-1.7 2.7-2 4-0.1 0.1 0.1 0.2 0.2 0.1 0.9-1.2 1.6-2.6 2.1-3.9 0.4-0.8 0.6-1.6 0.8-2.4 0.3-1.2 0.9-2.4 1.1-3.6 0-0.1-0.1-0.1-0.1 0z"/>
		<path class="s15" d="m266.9 56.6c-1.8 1.1-3.5 2.4-5.3 3.5-1.5 1-3.1 2.2-4.2 3.6 0 0.1 0.1 0.2 0.2 0.2 0.8-0.5 1.3-1.1 2-1.7 0.8-0.7 1.9-1.4 2.8-2 1.6-1.1 3.1-2.3 4.6-3.4 0.1-0.1 0.1-0.3-0.1-0.2z"/>
		<path class="s15" d="m265.2 53.3c-0.6 0.7-1.3 1.3-1.9 2-0.6 0.8-1.3 1.7-1.9 2.5-0.1 0 0 0.1 0.1 0.1 0.3-0.3 0.5-0.8 0.8-1.1q0.4-0.5 0.8-1c0.6-0.8 1.4-1.6 2.1-2.5 0.1 0 0-0.1 0 0z"/>
		<path class="s15" d="m261.1 58.9c-0.5 0.5-1.1 0.8-1.6 1.3-0.2 0.2-0.3 0.4-0.4 0.6-0.3 0.4-0.6 0.6-0.9 0.9 0 0.1 0.1 0.2 0.2 0.1 0.5-0.4 0.7-0.9 1.2-1.4 0.4-0.6 1-1 1.6-1.4 0-0.1-0.1-0.1-0.1-0.1z"/>
		<path class="s15" d="m265 59.9c-1.1 0.6-2 1.5-3.1 2.1-1 0.7-2.2 1-3 1.9-0.1 0.2 0.1 0.4 0.3 0.3 0.9-0.9 2.2-1.4 3.2-2.1 0.9-0.7 1.7-1.4 2.7-2 0.1-0.1 0-0.3-0.1-0.2z"/>
		<path class="s15" d="m261.6 63.8c-0.6 0-1.2 0-1.8 0.3q-0.4 0.1-0.9 0.3c-0.2 0.1-0.4 0.1-0.5 0.3-0.2 0.1 0 0.4 0.2 0.2 0.2-0.1 0.4-0.1 0.6-0.1 0.2-0.1 0.4-0.2 0.5-0.3 0.6-0.4 1.2-0.5 1.9-0.6 0.1 0 0.1-0.1 0-0.1z"/>
		<path class="s15" d="m257.6 59.2c-0.9 0.8-1.6 1.9-1.9 3.1 0 0.2 0.2 0.2 0.3 0.1 0.3-0.5 0.4-1.1 0.7-1.6 0.3-0.5 0.6-1.1 1-1.5 0.1-0.1 0-0.2-0.1-0.1z"/>
		<path class="s15" d="m219.7 49c1.1 1.3 2 3 2.7 4.5 0.6 1.3 1.9 2.2 2.5 3.6-0.5-1.6-1.9-2.7-2.6-4.2-0.3-0.8-0.8-1.3-1.2-2.1-0.5-0.6-0.8-1.3-1.3-1.9 0-0.1-0.1 0-0.1 0.1z"/>
		<path class="s15" d="m224.7 51.3c0.3 0.5 0.3 1.1 0.3 1.7 0.1 0.5 0.1 1.2 0.3 1.7 0 0.1 0.2 0.1 0.1 0 0-0.7-0.2-1.5-0.3-2.2 0-0.4 0-0.9-0.3-1.2 0-0.1-0.1 0-0.1 0z"/>
		<path class="s15" d="m206.5 62c2.5 1.1 5.4 1.7 8 2.7 1.2 0.4 2.5 0.7 3.6 1.3 0.8 0.5 1.4 1 2.3 1.2 0.1 0 0.3-0.2 0.1-0.3-1.9-0.9-3.4-1.8-5.4-2.5-2.8-0.9-5.8-1.5-8.5-2.6-0.1-0.1-0.2 0.1-0.1 0.2z"/>
		<path class="s15" d="m207.1 67.3c2.3 0 4.7-0.1 7-0.2 1.8-0.1 3.8-0.3 5.6 0.2 0 0.1 0.1-0.1 0-0.1-1.5-0.8-3.2-0.7-4.9-0.7-2.6 0.1-5.1 0.5-7.7 0.5-0.2 0-0.2 0.3 0 0.3z"/>
		<path class="s15" d="m212.8 69.8c1.3 0.3 2.7 0.7 4 0.9 0.1 0 0.2-0.1 0.1-0.1-1.3-0.4-2.7-0.6-4.1-0.8q-0.1 0 0 0z"/>
		<path class="s15" d="m214.8 69.6c0.9 0.1 1.9 0.5 2.9 0.6 1 0.2 2 0.2 3 0.2 0.2 0 0.2-0.2 0-0.3-1.9-0.2-3.9-0.7-5.9-0.7-0.1 0-0.1 0.2 0 0.2z"/>
		<path class="s15" d="m205.9 65.3c1.3 0 2.7 0.1 3.9 0.5 0.2 0 0.2-0.2 0.1-0.3-0.6-0.2-1.3-0.1-1.9-0.2-0.7 0-1.4-0.1-2.1-0.1z"/>
		<path class="s15" d="m209.7 60.8c0.5 0 1.2 0.3 1.8 0.5 0.5 0.2 1.2 0.3 1.6 0.6 0.1 0.1 0.2 0 0.1-0.1-0.4-0.3-1-0.5-1.6-0.6-0.6-0.2-1.3-0.6-1.9-0.5-0.1 0-0.1 0.1 0 0.1z"/>
		<path class="s15" d="m214.3 62.4c0.2 0.1 0.4 0.3 0.7 0.3-0.3-0.1-0.5-0.2-0.7-0.4q0 0 0 0.1z"/>
		<path class="s15" d="m215.1 63.9c0.4 0.1 0.8 0.3 1.3 0.4 0 0 0.1-0.1 0-0.1-0.4-0.1-0.8-0.3-1.2-0.4-0.1 0-0.1 0.1-0.1 0.1z"/>
		<path class="s15" d="m224.4 83.4c-1 1.1-1.8 2.1-3.1 2.9-1.2 0.8-2.4 1.6-3.6 2.5-0.7 0.4-4 2.1-4 2.8 0 0.2 0.2 0.2 0.2 0.1 0.2-0.3 2.3-1.3 2.6-1.6 0.9-0.5 1.7-1.2 2.6-1.8 1-0.8 2.2-1.5 3.2-2.3 0.9-0.7 1.5-1.7 2.1-2.6 0.1 0 0-0.1 0 0z"/>
		<path class="s15" d="m218.9 88.3c-0.2 0.5-0.8 1.1-1.2 1.5-0.3 0.4-0.8 0.7-1.1 1.1-0.5 0.6-0.9 1-1.1 1.7-0.1 0.1 0 0.2 0.2 0.2q0 0 0.1 0 0.1-0.1 0.1-0.2c0.2-0.8 1.2-1.4 1.7-2 0.3-0.3 0.5-0.8 0.8-1.2 0.3-0.3 0.6-0.6 0.7-1.1 0-0.1-0.1-0.1-0.2 0z"/>
		<path class="s15" d="m223.5 88.3c-0.2 0.3-0.4 0.7-0.6 1.1-0.3 0.5-0.8 0.9-1.2 1.3-0.6 0.7-1.2 1.3-1.7 2-0.1 0.1 0 0.2 0.1 0.1 0.7-0.5 1.3-1.3 1.9-2 0.3-0.3 0.6-0.7 0.9-1.1 0.3-0.4 0.4-0.9 0.7-1.4 0 0 0-0.1-0.1 0z"/>
		<path class="s15" d="m220.4 90.4c-0.5 0.6-1.1 1.2-1.8 1.5-0.5 0.3-0.8 1.1-1.4 1.2-0.2 0.1-0.2 0.4 0 0.4 0.8 0.2 1.1-0.8 1.6-1.2 0.7-0.5 1.3-1.2 1.7-1.9 0 0-0.1-0.1-0.1 0z"/>
		<path class="s15" d="m223.2 83.3c-1.1 0.9-2.6 1.2-3.8 1.7-0.8 0.3-1.7 0.6-2.1 1.4-0.1 0.1 0.1 0.2 0.2 0.1 1-0.4 1.9-1 3-1.5 0.9-0.5 2-0.9 2.7-1.7z"/>
		<path class="s15" d="m219.3 83.3c-0.4 0.2-0.8 0.2-1.1 0.4-0.3 0.2-0.5 0.4-0.8 0.6-0.3 0.3-0.7 0.5-1.1 0.8-0.2 0.1-0.9 0.5-1.2 0.6-0.1 0 0 0.1 0 0.2 0.7 0 1.5-0.6 2-1 0.3-0.2 0.5-0.5 0.8-0.8 0.4-0.4 1-0.4 1.4-0.8 0.1 0 0-0.1 0 0z"/>
		<path class="s15" d="m211.7 88.9c-0.6 0.6-1.5 1.1-1.3 2 0 0.3 0.3 0.3 0.4 0.1 0.2-0.3 0.3-0.6 0.5-0.9 0.2-0.3 0.4-0.6 0.7-0.9 0.1-0.2-0.1-0.4-0.3-0.3z"/>
		<path class="s15" d="m264.5 77.8c2.2 0.3 4.4 1.7 6.3 2.7 1.6 1 2.4 2.7 3.9 3.7 0.1 0.1 0.2 0 0.1-0.1-1.7-1.6-2.6-3.3-4.8-4.4-1.7-1-3.5-2.2-5.5-2.4-0.3 0-0.2 0.4 0 0.5z"/>
		<path class="s15" d="m266.3 73.6c0.5 0.2 1.1 1.6 1.4 2 0.5 0.7 1 1.4 1.4 2.1 0.6 1 1 2 1.9 2.8 0.1 0.1 0.2 0 0.1-0.1-0.9-1.2-1.5-2.5-2.4-3.8q-0.8-1.2-1.7-2.3c-0.2-0.3-0.3-0.6-0.7-0.7z"/>
		<path class="s15" d="m269 75.7c0.2 0.2 0.3 0.4 0.4 0.6 0.1 0.3 0.3 0.5 0.4 0.8 0.2 0.3 0.3 0.8 0.7 1 0.1 0.1 0.3 0 0.2-0.1-0.3-0.4-0.6-0.9-0.9-1.3-0.1-0.2-0.3-0.4-0.4-0.7-0.1-0.2-0.2-0.2-0.3-0.4z"/>
		<path class="s15" d="m270.6 74.6c0.1 1.6 0.8 2.8 1.5 4.1 0.7 1.4 1.6 2.8 2.5 4.1 0.1 0.1 0.3 0 0.2-0.1-0.6-1.1-1.3-2.2-2-3.2-0.8-1.6-2-3.1-2.1-4.9z"/>
		<path class="s15" d="m269.5 81.2c0.6 0.5 1.3 1 1.9 1.4 0.1 0.1 0.2 0 0.1-0.1-0.4-0.6-1.2-1-1.8-1.5-0.1-0.1-0.3 0.1-0.2 0.2z"/>
		<path class="s15" d="m265.1 80c1 0.5 1.9 1.2 2.9 1.8 0.1 0.1 0.1 0 0.1 0-1-0.7-2-1.3-3-1.9 0-0.1-0.1 0 0 0.1z"/>
		<path class="s15" d="m279.3 62.2c0.4 1 1 1.9 1.5 3 0.5 1.3 1 2.7 1.5 4.1 0.5 1.7 1 3.8 1.9 5.3 0.1 0.2 0.4 0 0.3-0.1-1-1.9-1.6-4.4-2.2-6.5-0.7-2.2-2-3.9-3-5.8q0-0.1 0 0z"/>
		<path class="s15" d="m285.8 60.9c-0.6 4.8-1.4 10.6-0.2 15.4 0.1 0.1 0.3 0.1 0.3-0.1-0.2-5.1-0.4-10.1 0-15.3 0.1-0.1-0.1-0.1-0.1 0z"/>
		<path class="s15" d="m283 61.5c0 2.6 0.6 5 0.9 7.6 0 0.1 0.2 0.1 0.2 0-0.2-2.6-0.9-5-1-7.6 0-0.1-0.1-0.1-0.1 0z"/>
		<path class="s15" d="m286.8 68c0 1.4-0.3 2.7-0.2 4.2 0 0.1 0.2 0.1 0.3 0 0.1-1.4 0.2-2.8 0.1-4.2 0-0.1-0.2-0.1-0.2 0z"/>
		<path class="s15" d="m287.6 69.1c-0.4 0.7-0.4 1.5-0.6 2.2-0.2 1.1-0.5 2.2-0.6 3.2 0 0.2 0.2 0.3 0.3 0.1 0.3-0.9 0.3-1.8 0.5-2.6 0.1-0.8 0.1-2.2 0.5-2.8 0-0.1 0-0.1-0.1-0.1z"/>
		<path class="s15" d="m280.9 67.4c0.1 0.9 0.4 2 0.9 2.9 0.1 0.1 0.3 0 0.2-0.2-0.2-0.9-0.8-1.8-1-2.8 0 0-0.1 0-0.1 0.1z"/>
		<path class="s15" d="m318.9 78.7c-1.9 0.4-3.8 1.9-5.5 2.8-2.2 1.1-4.4 2-6.6 3-0.2 0.1-0.1 0.3 0.1 0.3 1.9-0.8 3.7-1.6 5.6-2.5 2.1-1 4.3-2.8 6.5-3.4 0.1-0.1 0-0.2-0.1-0.2z"/>
		<path class="s15" d="m319.1 83.9c-1.8-0.2-3.4-0.9-5.2-1-1.4 0-2.7-0.1-4.1 0.1-0.1 0-0.1 0.2 0 0.3 1.3 0.2 2.8 0.3 4.1 0.2 1.8-0.1 3.5 0.6 5.2 0.5 0.1 0 0.1-0.1 0-0.1z"/>
		<path class="s15" d="m319 81.3c-1.3 0-2.6-0.1-3.9 0.2-0.1 0-0.1 0.2 0 0.2 0.7 0.1 1.3-0.1 1.9-0.1 0.7-0.1 1.3-0.1 2-0.1 0.1 0 0.1-0.2 0-0.2z"/>
		<path class="s15" d="m317.8 80c-0.7 0-1.2 0.4-1.8 0.6q-0.8 0.4-1.5 0.6c-0.5 0.1-1 0.3-1.5 0.4-0.1 0-0.2 0.2 0 0.2 0.2 0 0.4 0 0.7-0.1 0.5-0.2 1-0.3 1.5-0.5 0.8-0.3 1.7-1.1 2.6-1.2z"/>
		<path class="s15" d="m314.7 84.4c-0.8 0-1.6 0-2.3 0-0.8 0-1.6-0.1-2.3 0-0.2 0-0.2 0.3 0 0.3 0.7 0 1.5 0.2 2.3 0.2 0.7-0.1 1.5-0.2 2.3-0.3 0.1 0 0.1-0.2 0-0.2z"/>
		<path class="s15" d="m313.7 85.5c-1.6-0.1-3.2 0-4.8-0.3-0.9-0.2-2-0.6-2.9-0.6-0.1 0.1-0.1 0.2 0 0.2 1.1 0.3 2.1 0.6 3.3 0.8 1.5 0.3 2.9 0 4.4-0.1q0.1 0 0 0z"/>
		<path class="s15" d="m315.6 77.4c-2.5 1-5 2-7.2 3.6-0.1 0 0 0.2 0.1 0.1 1-0.4 1.9-1.1 2.9-1.5q2.1-1.1 4.2-2.1 0-0.1 0-0.1z"/>
		<path class="s15" d="m311.4 80.3c-0.7 0.5-1.8 0.7-2.6 1.1-0.7 0.3-1.5 0.7-2.1 1.2-0.1 0 0 0.2 0.1 0.1 0.9-0.3 1.6-0.9 2.5-1.3 0.7-0.3 1.5-0.6 2.1-1.1z"/>
		<path class="s15" d="m321.9 108.3c-0.8-0.4-1.6-0.5-2.4-0.8-0.1-0.1-0.1 0.1-0.1 0.2 0.2 0.2 0.6 0.2 0.9 0.3q0.8 0.1 1.5 0.5c0.1 0.1 0.2-0.1 0.1-0.2z"/>
		<path class="s15" d="m322.7 106.7c-1.4-1.6-3.8-2.7-5.8-3.4-2.6-1-5.6-1.2-8-2.3-0.2-0.1-0.3 0.1-0.1 0.2 4.3 2.1 10.4 1.7 13.7 5.7 0.1 0.1 0.3 0 0.2-0.2z"/>
		<path class="s15" d="m308.4 103.3c0.7 0.7 1.3 1.3 2 2 0.5 0.4 1 1.2 1.6 1.3 0.1 0 0.2-0.1 0.1-0.1-0.4-0.1-0.6-0.5-0.9-0.7q-0.4-0.4-0.9-0.8-0.9-0.9-1.8-1.8c-0.1 0-0.1 0-0.1 0.1z"/>
		<path class="s15" d="m309.8 103.6c0.5 0.6 0.8 1.2 1.3 1.7 0.5 0.5 1.2 0.8 1.8 1.2 1 0.7 2.4 1 3.4 1.7 0.1 0.1 0.2 0 0.2-0.1-0.5-0.8-2-1.1-2.7-1.5-0.7-0.3-1.6-0.8-2.2-1.2-0.7-0.5-1.1-1.2-1.7-1.8 0-0.1-0.1 0-0.1 0z"/>
		<path class="s15" d="m316.6 102.1c0.8 0.2 1.8 0.6 2.4 0.9 0.6 0.4 1.3 0.6 1.9 0.9 0.1 0 0.2-0.1 0.1-0.2-0.3-0.2-0.7-0.3-1-0.5-0.4-0.2-0.7-0.4-1.1-0.6-0.4-0.1-0.7-0.2-1.1-0.3-0.4-0.1-0.7-0.2-1.1-0.2-0.1 0-0.1 0-0.1 0z"/>
		<path class="s15" d="m316.3 104.7c0.4 0.1 0.7 0.3 1.1 0.4 0.1 0.1 0.2 0 0.1-0.1-0.2-0.3-0.7-0.5-1.1-0.5-0.1-0.1-0.2 0.1-0.1 0.2z"/>
		<path class="s15" d="m296.5 107.2c0 2.3-0.1 4.5-0.2 6.8 0 1.3-0.2 3.1 0.6 4.2 0 0.1 0.1 0 0.1-0.1-0.6-1.5-0.4-3.4-0.3-5 0.2-2 0.1-3.9 0-5.9 0-0.1-0.2-0.1-0.2 0z"/>
		<path class="s15" d="m297.6 110.3c-0.1 1.4-0.1 2.7 0.1 4.1 0.2 1.1 0.2 2.5 0.7 3.4 0.1 0.1 0.2 0.1 0.2 0-0.4-2.5-0.9-5-1-7.5z"/>
		<path class="s15" d="m297.7 107.5c0.1 0.8 0.3 1.8 0.6 2.6 0.2 0.6 0.1 1.5 0.6 2 0 0 0.1 0 0.1-0.1-0.2-0.7-0.2-1.3-0.5-2-0.2-0.8-0.6-1.7-0.7-2.5 0 0-0.1-0.1-0.1 0z"/>
		<path class="s15" d="m299.6 112.6c0 0.3 0 0.5 0.2 0.7 0.1 0.1 0.2 0 0.1-0.1-0.1-0.2-0.1-0.4-0.1-0.6-0.1-0.2-0.3-0.1-0.2 0z"/>
		<path class="s15" d="m301.2 116.1c-0.1 0.5 0 1.1-0.1 1.6-0.1 0.4-0.2 0.7-0.2 1 0 0.1 0.1 0.1 0.1 0 0.1-0.4 0.2-0.8 0.2-1.2 0.1-0.5 0-0.9 0-1.4z"/>
		<path class="s15" d="m295.6 112.1c-0.2 0.4-0.3 1-0.2 1.5 0 0.4 0.1 1.1 0.4 1.4 0.1 0.2 0.3 0 0.2-0.1-0.4-0.7-0.6-2-0.2-2.7 0-0.1-0.1-0.2-0.2-0.1z"/>
		<path class="s12" d="m225.8 70.8c2 0.4 3.5 1.8 5.3 2.7 1.4 0.7 2.7 1.3 4.1 2.1 3.1 1.7 6.5 3.8 9.1 6.3 0.2 0.2 0.5 0 0.4-0.2-1.1-3-6.1-5.3-8.7-6.7-1.5-0.8-3-1.6-4.6-2.2-1.9-0.9-3.5-2.1-5.5-2.2-0.2-0.1-0.2 0.2-0.1 0.2z"/>
		<path class="s12" d="m225.5 82c4.2-2.7 14.3-2.1 18.8 0 0.2 0.2 0.4-0.1 0.3-0.3-1.4-1.7-5.8-1.7-7.7-1.9-3.8-0.4-8.6-0.7-11.7 1.7-0.3 0.2 0.1 0.7 0.3 0.5z"/>
		<path class="s12" d="m230.2 61.4c0.3-0.6-0.2-1.3-0.3-1.9-0.2-0.6-0.3-1.1-0.7-1.7-0.7-1.2-1.4-2.6-2.6-3.4q-0.2-0.1-0.4-0.2c-0.3-0.1-0.7 0.4-0.5 0.7-0.2-0.2-0.5-0.5-0.8-0.4-0.2 0-0.4 0.3-0.4 0.5 0 0.2 0.1 0.5 0.2 0.7-0.1-0.2-0.5-0.2-0.6 0.1-0.1 0.2-0.1 0.5 0 0.7q-0.5-0.3-1.1-0.4c-0.1 0.5 0.1 1 0.5 1.3-0.3-0.2-0.6-0.4-1-0.4 0.6 1.2 1.7 2 2.7 2.7 1.3 0.8 2.7 1.7 4.3 1.9 0.2 0 0.6 0 0.7-0.2z"/>
		<path class="s12" d="m244.7 60.7c0 0.3 0 0.6 0.2 0.8 0.3 0.4 1 0.2 1.4-0.1 0.4-0.4 0.7-0.8 1-1.2q1.1-1.3 2.1-2.7c0.1-0.2 0.2-0.4 0.2-0.6 0.1-0.1 0-0.4-0.1-0.5-0.2-0.1-0.5 0-0.5 0.2-0.1-0.5 0.4-1 0.2-1.4-0.1-0.3-0.5-0.4-0.8-0.3-0.3 0.1-0.6 0.3-0.8 0.6 0-0.2 0-0.5-0.1-0.7-0.1-0.2-0.5-0.2-0.6 0 0.1-0.3-0.3-0.5-0.6-0.4-0.3 0.1-0.4 0.4-0.5 0.7-0.7 1.7-1 3.8-1.1 5.6z"/>
		<path class="s12" d="m226.7 70.9c0 0.2 0 0.4-0.1 0.5-0.2 0.2-0.4 0.2-0.6 0.3-2 0.4-4.2-0.2-6.2-0.8-0.4-0.1-0.8-0.3-0.9-0.7q0.3-0.1 0.6-0.1c-0.3 0-0.6-0.2-0.7-0.4-0.2-0.2-0.3-0.5-0.4-0.8 0.6-0.1 1.3 0 2 0.2-0.3-0.1-0.6-0.4-0.7-0.7q0.3 0 0.5 0c-0.5-0.2-0.8-0.8-0.7-1.3 0.2-0.1 0.4 0 0.5 0.1-0.2-0.5-0.3-1.1 0.2-1.4 0.3-0.2 0.7-0.1 1 0.1 2 0.8 5.2 2.6 5.5 5z"/>
		<path class="s12" d="m225.3 80.8c0.3 0 0.6 0 0.8 0.2 0.3 0.2 0.4 0.6 0.4 0.9 0 0.4-0.2 0.7-0.4 1-0.5 0.9-1.4 1.5-2.3 1.8-0.2 0.1-0.3 0.1-0.4 0.1-0.1-0.1-0.2-0.3-0.2-0.4 0-0.2 0.1-0.4 0.2-0.5-0.3 0.2-0.7 0.3-0.9 0.1-0.1-0.2-0.1-0.4 0-0.5 0.1-0.2 0.2-0.3 0.3-0.5q-0.5 0.1-1 0.1c0-0.2 0.1-0.4 0.4-0.4q-0.3 0-0.6 0c-0.2 0 0.5-0.7 0.5-0.7q0.5-0.3 0.9-0.6c0.7-0.4 1.5-0.7 2.3-0.6z"/>
		<path class="s12" d="m283.3 98.1c-0.8-0.2-3.1 6.9-3.3 8-0.5 3.3-0.4 6.7-0.6 10-0.5 7.7-0.6 15.5-0.1 23.2 0 0.2 0.4 0.2 0.4 0 0.5-7.2 1-14.3 1.4-21.4 0.3-3.6 0-7.3 0.5-11 0.5-3.1 1.5-6 2.2-9 0.1-0.2 0-0.4-0.2-0.4q-0.1 0-0.2-0.1c-0.4 0-0.6 0.6-0.1 0.7z"/>
		<path class="s12" d="m272.9 122c0.3 1.1 0.4 2.3 0.5 3.5 0 0.7 0 1.5 0.5 2 0 0.1 0.2 0 0.1-0.1-0.3-0.9-0.2-1.9-0.4-2.8q-0.2-1.3-0.6-2.7c0 0-0.1 0-0.1 0.1z"/>
		<path class="s12" d="m265.3 126.7c1 0.2 2 0.2 3 0.3 1.1 0.1 2.4-0.1 3.5 0.1 0.1 0.1 0.2-0.1 0.1-0.2-0.9-0.3-2.1-0.1-3-0.2-1.2-0.1-2.4 0-3.6 0q-0.1 0 0 0z"/>
		<path class="s12" d="m275.2 203.1c-0.9 2.3-1.9 4.7-2.5 7.1-0.5 1.8-1.6 4-1.2 5.9 0 0.1 0.2 0 0.2 0 0.7-2.1 1-4.3 1.6-6.4 0.6-2.2 1.4-4.4 2-6.6 0-0.1-0.1-0.1-0.1 0z"/>
		<path class="s12" d="m289.2 217.7c-4.5-1.4-7.9-3.9-12.8-3.9-0.2 0-0.2 0.3 0 0.3 2.7 0.3 5.1 0.8 7.5 1.8 1.8 0.7 3.4 1.5 5.2 2 0.1 0 0.2-0.2 0.1-0.2z"/>
		<path class="s12" d="m290.6 195.3c-0.7 4.2-0.7 8.6-1.1 12.9 0 0.2 0.2 0.2 0.3 0.1 0.4-2 0.4-4 0.6-6.1 0.2-2.2 0.6-4.7 0.2-6.9z"/>
		<path class="s12" d="m308.9 210c-3.4-2.3-6.6-4.7-10.9-4.6-0.3 0.1-0.4 0.5-0.1 0.5 2.1 0.5 4.1 0.3 6.1 1.4 1.6 0.8 3.3 1.7 4.9 2.7z"/>
		<path class="s12" d="m308.3 190.2c-0.9 3.8-1.3 7.3-0.9 11.1 0 0.2 0.2 0.2 0.2 0.1 0.5-1.8 0.1-3.5 0.1-5.2 0-2 0.2-4 0.6-5.9q0-0.1 0-0.1z"/>
		<path class="s12" d="m324.1 200.8c-2.7-2-6-3.3-9.3-4-0.3-0.1-0.6 0.4-0.2 0.5 0.5 0.4 1.2 0.3 1.9 0.4q1.5 0.4 2.9 1.1c1.5 0.6 3.2 1.2 4.7 2.1 0 0 0.1-0.1 0-0.1z"/>
		<path class="s12" d="m320.7 183.4c0 0.8 0.2 1.6 0.3 2.4 0.2 1.2 0 2.4 0.2 3.6 0 0.2 0.3 0.2 0.4 0 0.3-2-0.6-4-0.8-6q0 0-0.1 0z"/>
		<path class="s12" d="m247 229.5q-0.1 0.1-0.2 0.2 0.1-0.1 0.2-0.2z"/>
		<path class="s12" d="m246.8 229.6c-1.5 1.1-2.7 2.6-4 3.8-1.2 1.2-2.8 2.8-3 4.6 0 0.2 0.1 0.2 0.2 0.1 1.2-1.6 2.1-3.3 3.5-4.7 1.1-1.2 2.1-2.7 3.3-3.7 0.1 0 0-0.1 0-0.1z"/>
		<path class="s12" d="m227.9 241c1.4 0.8 3 1.3 4.6 1.7 2.9 0.7 5.7 1.8 8.3 3.2 0.1 0.1 0.2-0.1 0.1-0.2-3.9-2.7-8.7-3-12.9-4.9-0.1 0-0.1 0.1-0.1 0.2z"/>
		<path class="s12" d="m227 226.4c2.9 1.5 6.7 1.3 9.4 3.2 0.1 0.1 0.3-0.2 0.2-0.3-1.2-1-2.7-1.1-4.1-1.5-1.8-0.4-3.7-0.8-5.4-1.6-0.1 0-0.2 0.1-0.1 0.2z"/>
		<path class="s12" d="m242 214c-1.5 1-3.2 1.5-4.5 2.8-0.6 0.5-1 1.1-1.5 1.7-0.3 0.5-1 1-1 1.5 0 0.3 0.3 0.4 0.5 0.2 0.8-1.2 1.8-2.7 2.9-3.6 1.2-0.9 2.6-1.6 3.7-2.6 0 0 0 0-0.1 0z"/>
		<path class="s12" d="m225.2 208.8c0.9 0.9 2.8 1.1 4 1.5 0.9 0.3 1.6 0.6 2.3 1.2 0.5 0.4 0.9 0.9 1.5 1.1 0.2 0 0.3-0.2 0.2-0.3-1-0.8-1.8-1.6-3-2.1-0.7-0.2-1.4-0.3-2-0.5-0.9-0.2-2.3-0.4-2.9-1-0.1 0-0.1 0-0.1 0.1z"/>
		<path class="s12" d="m233.5 200.6c-0.2 0.9-1 2-1.5 2.7-0.3 0.4-0.6 0.8-0.8 1.2-0.3 0.3-0.7 0.7-0.8 1.1 0 0.2 0.1 0.3 0.3 0.2 0.5-0.2 0.6-0.6 0.8-1.1 0.3-0.4 0.5-0.8 0.8-1.2 0.5-0.8 1.1-1.9 1.2-2.9z"/>
		<path class="s12" d="m253.4 67c-2.1 1.1-4 4.4-5.3 6.2-1.8 2.6-2.6 5.3-3.9 8.1-0.2 0.3 0.3 0.6 0.4 0.3 0.7-1.1 1.1-2.2 1.6-3.3 0.7-1.6 1.6-2.8 2.6-4.2 1.5-2.3 3-4.7 4.7-6.9 0.1-0.1 0-0.3-0.1-0.2z"/>
		<path class="s12" d="m252.5 67.7c-0.4-0.8 1.1-2.7 1.4-3.4 0.5-0.8 1-1.7 1.8-2 0.2-0.1 0.4-0.2 0.6-0.1 0.2 0.1 0.4 0.3 0.3 0.5 0.1-0.2 0.4-0.4 0.7-0.3q0 0.2 0.1 0.4c0.4-0.1 0.8-0.6 1.2-0.4 0.4 0.2 0.3 0.7 0.1 1.1 0.3-0.2 0.6-0.2 0.8-0.2q0 0.7-0.3 1.2 0.5-0.1 0.9 0c-0.3 1-1.2 1.6-2 2.2-1.3 0.8-3.5 2-5.1 1.4q-0.4-0.1-0.5-0.4z"/>
		<path class="s16" d="m153 47.7c0 0-19.2-29.2 15.8-47.7 12 20.7 1.5 42.3-15.8 47.7z"/>
		<path class="s17" d="m153 47.7c0.3-3.9 1-7.7 1.8-11.5q1.2-5.7 2.8-11.3c1.2-3.7 2.4-7.4 4-11 1.5-3.6 3.3-7.1 5.5-10.3-1.6 3.6-2.9 7.2-4.3 10.8q-0.4 1.4-0.9 2.7-0.5 1.4-0.9 2.8c-0.6 1.8-1.2 3.6-1.7 5.5-1.1 3.7-2.2 7.4-3.2 11.1z"/>
		<path class="s17" d="m157.5 10.9c1 1.6 1.7 3.1 2.2 5 0 0.1 0.3 0.1 0.3-0.1-0.1-1.8-1-3.8-2.4-5-0.1-0.1-0.2 0-0.1 0.1z"/>
		<path class="s17" d="m156.8 11.5c0.7 1.6 1.4 3.2 2.3 4.7 0 0.1 0.2 0 0.2-0.1-0.7-1.6-1.5-3.2-2.3-4.7-0.1-0.2-0.3 0-0.2 0.1z"/>
		<path class="s17" d="m155.7 13.1c1.3 2.6 2.3 5.3 3.6 7.9 0.1 0.2 0.3 0.1 0.3-0.1-1-2.7-2.5-5.3-3.9-7.8z"/>
		<path class="s17" d="m154.3 14.6c0.7 1.3 1.2 2.8 1.9 4.1 0 0.1 0.2 0 0.2-0.1-0.6-1.4-1.4-2.7-2.1-4z"/>
		<path class="s17" d="m152.8 15.4c1.1 2.2 2 4.6 3.3 6.7 0.1 0.1 0.3 0.1 0.2-0.1-0.8-2.3-2.1-4.6-3.2-6.8-0.1-0.1-0.3 0-0.3 0.2z"/>
		<path class="s17" d="m152.3 18c1.8 3.1 3.2 6.5 5.1 9.5 0.1 0.2 0.4 0.1 0.4-0.1-1.2-3.4-3.3-6.6-5.2-9.6-0.1-0.2-0.4 0-0.3 0.2z"/>
		<path class="s17" d="m157.3 30.6c-0.8-2.4-2-4.7-3.3-6.8-0.1-0.2-0.3 0-0.3 0.1 1 2.3 2 4.7 3.3 6.8 0 0.2 0.3 0.1 0.3-0.1z"/>
		<path class="s17" d="m151.3 22.7c1.1 2.7 2.5 5.6 4.1 7.9 0.1 0.1 0.4 0.1 0.3-0.1-1.1-2.7-2.7-5.5-4.3-7.8q-0.1 0-0.1 0z"/>
		<path class="s17" d="m151.8 28.7c1.1 2 2.2 4.1 3.7 5.8 0.1 0.1 0.4-0.1 0.3-0.2-1.1-2-2.6-3.8-3.8-5.7-0.1-0.2-0.3 0-0.2 0.1z"/>
		<path class="s17" d="m150.5 28.5c1 2.6 2.1 5.7 4 7.8 0.1 0.1 0.3-0.1 0.2-0.2-1.1-2.7-2.9-5-4-7.7-0.1-0.2-0.3-0.1-0.2 0.1z"/>
		<path class="s17" d="m149.2 30.4c0.9 2.2 2.2 5.2 4.4 6.6 0.1 0.1 0.2-0.1 0.1-0.2-0.7-1.1-1.7-2-2.5-3q-1.1-1.6-1.9-3.4-0.1-0.1-0.1 0z"/>
		<path class="s17" d="m150.2 35.3c0.5 0.9 1 1.9 1.6 2.7 0.5 0.7 1 1.5 1.7 1.8 0.2 0.1 0.3-0.1 0.2-0.2-0.3-0.8-1.2-1.4-1.7-2.1q-0.8-1.1-1.5-2.4c-0.1-0.2-0.4 0-0.3 0.2z"/>
		<path class="s17" d="m150.1 37.3c0.6 1.8 1.4 3.7 2.9 5 0.2 0.2 0.4 0 0.3-0.2-1.1-1.6-2.3-3.1-3.2-4.9 0 0 0 0 0 0.1z"/>
		<path class="s17" d="m159.5 11.1c0.4 1.2 1 2.5 2 3.3 0.2 0.1 0.3 0 0.2-0.2-0.8-1-1.7-1.9-2.2-3.2q0 0 0 0.1z"/>
		<path class="s17" d="m160.5 8.8c0.5 1.4 1 2.9 1.9 4.1 0 0.1 0.3 0 0.2-0.1-0.6-1.4-1.2-2.7-1.7-4.1-0.1-0.2-0.4-0.1-0.4 0.1z"/>
		<path class="s17" d="m161.9 7.7c0.3 1 0.7 2 1.3 2.9 0 0.1 0.2 0 0.2-0.1-0.3-1-0.9-2-1.4-2.8-0.1 0-0.1 0-0.1 0z"/>
		<path class="s17" d="m163.2 6.3q0.1 0.9 0.4 1.7c0.1 0.1 0.3 0 0.3-0.1q-0.2-0.9-0.7-1.7c0 0-0.1 0 0 0.1z"/>
		<path class="s17" d="m164.6 5.8c0.1 0.2 0.2 0.5 0.4 0.7 0.1 0.1 0.4 0.1 0.3-0.2 0-0.2-0.2-0.5-0.3-0.7-0.1-0.3-0.5-0.1-0.4 0.2z"/>
		<path class="s17" d="m162.5 13.8c1.9-0.3 3.7-1.1 5.1-2.5 0.1-0.1-0.1-0.3-0.2-0.2-1.6 1.2-3.1 2.1-4.9 2.7z"/>
		<path class="s17" d="m162.6 15.3c2.2-0.9 4.4-1.9 6.4-3.3 0.2-0.1 0-0.4-0.2-0.3-2.1 1.1-4.2 2.3-6.4 3.3-0.1 0.1 0 0.3 0.2 0.3z"/>
		<path class="s17" d="m161.9 17.9c3.5-1.1 6.7-3.1 9.4-5.6 0.1-0.1-0.1-0.3-0.2-0.2-2.9 2.2-5.9 4.1-9.2 5.8z"/>
		<path class="s17" d="m161.6 19.7c1.2-0.6 2.6-1.1 3.8-1.9 0.1-0.1 0-0.4-0.2-0.3-1.3 0.4-2.6 1.2-3.9 1.8-0.2 0.2 0 0.6 0.3 0.4z"/>
		<path class="s17" d="m159.5 23.4c2.3-0.6 4.6-1.7 6.7-3 0.2-0.1 0-0.4-0.2-0.3-2.2 0.9-4.5 2.1-6.6 3.3 0 0 0 0 0.1 0z"/>
		<path class="s17" d="m158.7 27.1c3.6-1.3 7.1-3.1 10.3-5.3 0.2-0.1 0-0.4-0.2-0.3q-5.1 2.7-10.2 5.4c-0.1 0.1 0 0.3 0.1 0.2z"/>
		<path class="s17" d="m158.3 28.6c1.4-0.2 2.6-0.7 3.6-1.6 0.1-0.1 0-0.3-0.2-0.2-1.1 0.6-2.2 1.3-3.4 1.8z"/>
		<path class="s17" d="m161.2 30c2.6-1.6 5.3-3 7.8-4.7 0.2-0.1 0-0.4-0.2-0.3-2.7 1.4-5.2 3.1-7.8 4.7-0.2 0.1 0 0.4 0.2 0.3z"/>
		<path class="s17" d="m157.6 33.4c2.2-0.5 4.1-1.7 5.6-3.2 0.1-0.1 0-0.3-0.1-0.2-1.7 1.3-3.6 2.3-5.5 3.3q0 0.1 0 0.1z"/>
		<path class="s17" d="m156.3 35.5c5.1-1.3 10-4.2 13.7-7.8 0.1-0.1 0-0.3-0.2-0.2-4.2 3.3-8.6 5.7-13.5 8z"/>
		<path class="s17" d="m156.4 37.4c3.2-0.9 6.6-2.5 8.7-5.2 0.1-0.2-0.1-0.4-0.2-0.3-2.7 2.2-5.3 4.1-8.7 5.1-0.2 0.1-0.1 0.5 0.2 0.4z"/>
		<path class="s17" d="m155.8 38.8c1.4-0.5 2.8-1.1 4.1-1.7 0.2 0 0.1-0.3-0.1-0.2-1.4 0.3-2.9 1-4 1.9q-0.1 0 0 0z"/>
		<path class="s17" d="m154.7 41.5c1.6-0.7 3.3-1.5 4.8-2.6 0.1-0.1 0-0.3-0.1-0.2-1.7 0.7-3.2 1.7-4.9 2.4-0.2 0.1-0.1 0.5 0.2 0.4z"/>
		<path class="s17" d="m154.4 44.4c2-0.5 4-1.5 5.6-2.9 0.1-0.1-0.1-0.5-0.3-0.3-1.7 1.2-3.5 2.1-5.4 2.9-0.1 0.1-0.1 0.3 0.1 0.3z"/>
		<path class="s17" d="m163.1 36.6c1.2-0.6 2.5-1.3 3.4-2.3 0.1-0.1 0-0.2-0.1-0.1-1.1 0.8-2.1 1.7-3.4 2.3q0 0.1 0.1 0.1z"/>
		<path class="s17" d="m170.4 20.4c0.8-0.2 1.8-0.7 2.2-1.6 0.1-0.1-0.1-0.4-0.3-0.2-0.3 0.2-0.6 0.5-0.9 0.7q-0.5 0.4-1.2 0.6c-0.3 0.1-0.2 0.6 0.2 0.5z"/>
		<path class="s17" d="m168.8 10.8c1-0.3 2-1 2.6-1.9 0-0.1-0.1-0.3-0.2-0.2-0.9 0.6-1.7 1.2-2.6 1.8-0.1 0.1 0 0.4 0.2 0.3z"/>
		<path class="s16" d="m388.3 227.1c0 0 8.9-6.6 15.4 4.1-6.3 4.2-13.3 1.3-15.4-4.1z"/>
		<path class="s17" d="m388.3 227.1c1.3 0.1 2.5 0.2 3.7 0.4q1.8 0.2 3.6 0.7c1.2 0.2 2.4 0.6 3.6 1 1.1 0.4 2.3 0.9 3.3 1.5-2.3-0.8-4.6-1.5-7-2-2.4-0.6-4.8-1.1-7.2-1.6z"/>
		<path class="s17" d="m400 227.8c-0.5 0.4-0.9 0.6-1.5 0.8v0.1c0.6-0.1 1.2-0.3 1.6-0.8 0 0 0-0.1-0.1-0.1z"/>
		<path class="s17" d="m399.8 227.6c-0.4 0.3-0.9 0.5-1.4 0.8 0 0.1 0 0.1 0 0.1 0.5-0.2 1-0.5 1.5-0.8 0 0 0-0.1-0.1-0.1z"/>
		<path class="s17" d="m399.3 227.3c-0.8 0.5-1.6 0.9-2.4 1.3-0.1 0 0 0.1 0 0.1 0.9-0.4 1.7-0.9 2.4-1.4z"/>
		<path class="s17" d="m398.8 226.9c-0.4 0.2-0.8 0.4-1.2 0.7-0.1 0 0 0.1 0 0 0.4-0.2 0.8-0.4 1.2-0.7z"/>
		<path class="s17" d="m398.6 226.5c-0.7 0.3-1.5 0.7-2.1 1.1-0.1 0.1 0 0.1 0 0.1 0.7-0.3 1.4-0.8 2.1-1.2 0 0 0-0.1 0 0z"/>
		<path class="s17" d="m397.7 226.3c-0.9 0.7-2 1.2-2.9 1.8-0.1 0.1 0 0.2 0 0.1 1.1-0.4 2.1-1.1 3-1.8 0 0 0-0.1-0.1-0.1z"/>
		<path class="s17" d="m393.8 228.1c0.8-0.2 1.5-0.7 2.1-1.1 0.1 0 0-0.1 0-0.1-0.7 0.4-1.5 0.7-2.1 1.2-0.1 0 0 0.1 0 0z"/>
		<path class="s17" d="m396.2 226.1c-0.8 0.4-1.7 0.9-2.4 1.5-0.1 0 0 0.1 0 0.1 0.9-0.4 1.7-1 2.4-1.6z"/>
		<path class="s17" d="m394.3 226.4c-0.6 0.4-1.2 0.8-1.7 1.3-0.1 0 0 0.1 0 0q0.9-0.6 1.8-1.2c0-0.1 0-0.2-0.1-0.1z"/>
		<path class="s17" d="m394.4 226c-0.9 0.3-1.8 0.7-2.4 1.4-0.1 0 0 0.1 0 0.1 0.9-0.5 1.6-1.1 2.4-1.5 0 0 0-0.1 0 0z"/>
		<path class="s17" d="m393.7 225.6c-0.7 0.3-1.5 0.8-2 1.5l0.1 0.1c0.3-0.3 0.5-0.6 0.8-0.8q0.6-0.5 1.1-0.8z"/>
		<path class="s17" d="m392.2 226c-0.5 0.3-1.1 0.6-1.3 1.1-0.1 0.1 0 0.1 0 0.1 0.5-0.3 0.8-0.8 1.4-1.1 0 0 0-0.1-0.1-0.1z"/>
		<path class="s17" d="m391.6 226c-0.6 0.3-1.1 0.5-1.6 1 0 0.1 0.1 0.2 0.1 0.1 0.5-0.4 0.9-0.8 1.5-1.1z"/>
		<path class="s17" d="m400 228.5q-0.6 0.2-1 0.7c0 0 0 0.1 0.1 0 0.3-0.3 0.6-0.5 0.9-0.7z"/>
		<path class="s17" d="m400.8 228.8c-0.5 0.1-0.9 0.3-1.3 0.6 0 0 0 0.1 0.1 0.1 0.4-0.2 0.8-0.5 1.2-0.6 0.1-0.1 0-0.2 0-0.1z"/>
		<path class="s17" d="m401.1 229.2q-0.4 0.2-0.8 0.4c-0.1 0.1 0 0.1 0 0.1q0.4-0.2 0.8-0.5 0.1 0 0 0z"/>
		<path class="s17" d="m401.6 229.5q-0.3 0.1-0.5 0.2c-0.1 0 0 0.1 0 0.1q0.3-0.1 0.5-0.2 0-0.1 0-0.1z"/>
		<path class="s17" d="m401.8 230q-0.1 0-0.2 0.1c-0.1 0.1 0 0.2 0.1 0.1q0.1 0 0.2-0.1c0.1 0 0-0.2-0.1-0.1z"/>
		<path class="s17" d="m399.2 229.5q0.2 0.9 0.9 1.5c0.1 0.1 0.1 0 0.1 0-0.4-0.5-0.7-1-1-1.5z"/>
		<path class="s17" d="m398.8 229.5c0.3 0.7 0.6 1.4 1.1 2 0 0 0.1 0 0.1-0.1-0.4-0.6-0.8-1.3-1.2-1.9 0-0.1-0.1 0 0 0z"/>
		<path class="s17" d="m397.9 229.4c0.4 1.1 1.1 2 2 2.8 0 0.1 0.1 0 0 0q-1.1-1.3-2-2.8z"/>
		<path class="s17" d="m397.3 229.3c0.2 0.4 0.4 0.8 0.7 1.2 0 0 0.1 0 0.1-0.1q-0.3-0.6-0.6-1.2c-0.1-0.1-0.2 0-0.2 0.1z"/>
		<path class="s17" d="m396.1 228.7c0.3 0.7 0.7 1.4 1.1 2.1 0 0 0.1 0 0.1-0.1-0.3-0.7-0.7-1.4-1.2-2z"/>
		<path class="s17" d="m394.9 228.5c0.5 1.1 1.2 2.2 1.9 3.2 0.1 0 0.2 0 0.1-0.1q-0.9-1.5-1.9-3.1z"/>
		<path class="s17" d="m394.5 228.4q0.1 0.7 0.6 1.1c0 0.1 0 0 0 0q-0.3-0.5-0.6-1.1z"/>
		<path class="s17" d="m394.1 229.4c0.5 0.8 1 1.6 1.6 2.4 0.1 0 0.2-0.1 0.1-0.1-0.5-0.8-1.1-1.6-1.6-2.4-0.1 0-0.1 0-0.1 0.1z"/>
		<path class="s17" d="m393 228.3c0.1 0.7 0.6 1.3 1.1 1.7 0 0.1 0 0 0 0-0.4-0.6-0.8-1.1-1.1-1.7z"/>
		<path class="s17" d="m392.2 227.9c0.6 1.6 1.6 3.1 2.8 4.2 0 0.1 0.1 0 0-0.1-1.1-1.2-1.9-2.6-2.7-4.1q0 0-0.1 0z"/>
		<path class="s17" d="m391.7 228c0.3 1 0.9 2 1.8 2.6 0 0.1 0.1 0 0 0-0.7-0.8-1.3-1.6-1.7-2.6-0.1-0.1-0.2-0.1-0.1 0z"/>
		<path class="s17" d="m391.2 227.8q0.3 0.7 0.6 1.3c0 0.1 0.1 0 0.1 0q-0.2-0.7-0.7-1.3z"/>
		<path class="s17" d="m390.3 227.6c0.3 0.5 0.6 1 0.9 1.4 0.1 0.1 0.1 0 0.1 0-0.3-0.5-0.6-1-0.8-1.5-0.1-0.1-0.2 0-0.2 0.1z"/>
		<path class="s17" d="m389.4 227.5q0.3 1 1 1.7c0.1 0.1 0.2 0 0.1-0.1q-0.6-0.8-1-1.6c0-0.1-0.1 0-0.1 0z"/>
		<path class="s17" d="m392.1 230.1q0.2 0.6 0.7 1c0.1 0.1 0.1 0 0.1 0q-0.5-0.5-0.8-1-0.1 0 0 0z"/>
		<path class="s17" d="m397.3 232.1c0.1 0.3 0.3 0.5 0.5 0.7 0.1 0 0.2-0.1 0.1-0.1-0.2-0.2-0.3-0.4-0.4-0.7-0.1-0.1-0.3 0-0.2 0.1z"/>
		<path class="s17" d="m400.3 231.4c0.1 0.3 0.4 0.6 0.7 0.8 0 0 0 0 0-0.1q-0.3-0.4-0.6-0.7c-0.1-0.1-0.1-0.1-0.1 0z"/>
		<path class="s16" d="m147.5 61.5c0 0 2.6-18.6-18.7-19.6-1.2 12.9 9 21 18.7 19.6z"/>
		<path class="s17" d="m147.5 61.5l-4.1-4.7c-1.4-1.6-2.7-3.2-4.1-4.7q-2.1-2.3-4.3-4.6c-0.8-0.7-1.5-1.4-2.3-2.1-0.7-0.8-1.5-1.4-2.3-2.1 1.8 1 3.5 2.3 5.1 3.7 1.6 1.4 3 2.9 4.5 4.5q2.1 2.3 4 4.8c1.2 1.7 2.4 3.4 3.5 5.2z"/>
		<path class="s17" d="m136.7 44.6c-0.4 0.9-0.4 2 0 3 0 0.1 0.2 0 0.2-0.1-0.2-1-0.2-1.9-0.1-2.9 0 0-0.1-0.1-0.1 0z"/>
		<path class="s17" d="m137.2 44.7c-0.1 1-0.1 1.9-0.1 2.9h0.1c0.1-1 0.1-1.9 0.1-2.9z"/>
		<path class="s17" d="m138.2 45.3c-0.2 1.5-0.2 3.1-0.1 4.7 0 0.1 0.1 0.1 0.1 0 0-1.6 0-3.2 0-4.7z"/>
		<path class="s17" d="m139.2 45.7c0 0.8-0.1 1.6-0.1 2.4 0 0.1 0.1 0.1 0.1 0 0.1-0.8 0-1.6 0-2.4z"/>
		<path class="s17" d="m139.9 45.7c0 1.3-0.1 2.7 0 4.1 0 0.1 0.1 0 0.1 0 0.2-1.4 0.1-2.8 0.1-4.1 0-0.1-0.2-0.1-0.2 0z"/>
		<path class="s17" d="m140.8 46.9c-0.2 1.9-0.5 3.9-0.3 5.8 0 0.1 0.2 0.1 0.2 0 0.2-1.9 0.1-3.9 0.3-5.8 0-0.2-0.2-0.2-0.2 0z"/>
		<path class="s17" d="m141.6 54.2c0.1-1.4 0.1-2.8 0-4.1 0-0.1-0.1-0.1-0.1 0-0.2 1.3-0.2 2.7 0 4.1 0 0.1 0.1 0.1 0.1 0z"/>
		<path class="s17" d="m142.5 49c-0.2 1.5-0.4 3.2-0.3 4.8 0 0 0.1 0.1 0.1 0 0.3-1.6 0.3-3.3 0.2-4.8z"/>
		<path class="s17" d="m143.6 52c-0.2 1.2-0.5 2.4-0.6 3.6 0 0.1 0.2 0.1 0.2 0.1 0.3-1.2 0.4-2.5 0.5-3.7 0-0.1-0.1-0.1-0.1 0z"/>
		<path class="s17" d="m144.1 51.6c0.1 1.6-0.2 3.1-0.2 4.7 0 0.1 0.2 0.1 0.2 0 0.4-1.5 0.3-3.2 0.2-4.7 0-0.1-0.2-0.1-0.2 0z"/>
		<path class="s17" d="m145.3 52.2q0 1.2-0.2 2.3c-0.1 0.6-0.4 1.2-0.5 1.9 0 0.1 0.1 0.1 0.1 0 0.7-1.2 0.7-2.8 0.6-4.2z"/>
		<path class="s17" d="m145.8 54.8q0 0.9-0.2 1.7c-0.1 0.4-0.3 0.8-0.4 1.2 0 0.1 0.2 0.2 0.2 0.1 0.6-0.8 0.6-2.1 0.6-3 0-0.1-0.2-0.1-0.2 0z"/>
		<path class="s17" d="m146.5 55.8c0 1-0.3 2-0.5 3.1 0 0.1 0.2 0.1 0.2 0 0.4-1 0.4-2.1 0.3-3.1z"/>
		<path class="s17" d="m135.9 45.1c0 0.8-0.2 1.4-0.4 2.1 0 0.1 0.1 0.1 0.1 0.1 0.3-0.7 0.3-1.5 0.3-2.2z"/>
		<path class="s17" d="m134.6 44.3c0.1 0.8 0.1 1.6 0.1 2.4 0 0.1 0.2 0.1 0.2 0 0.1-0.8 0-1.6-0.1-2.4 0-0.1-0.2-0.1-0.2 0z"/>
		<path class="s17" d="m133.9 44.1c-0.1 0.5-0.2 1.1-0.1 1.6 0 0.1 0.1 0.1 0.1 0.1 0.1-0.6 0.1-1.2 0-1.7q0-0.2 0 0z"/>
		<path class="s17" d="m132.9 43.7q0 0.4 0.1 0.9c0 0.1 0.1 0.1 0.1 0q0-0.5-0.1-1-0.1 0-0.1 0.1z"/>
		<path class="s17" d="m131.9 43.7q0 0.3 0 0.5c0 0.1 0.2 0.1 0.2 0q0.1-0.2 0.1-0.5c0-0.1-0.3-0.1-0.3 0z"/>
		<path class="s17" d="m135 47.2c-1 0.1-2 0-3-0.2-0.1 0-0.1 0.1 0 0.1 0.9 0.4 2 0.4 3 0.1z"/>
		<path class="s17" d="m135.3 47.8c-1.3 0-2.6-0.1-3.8-0.2-0.1 0-0.2 0.2-0.1 0.2 1.3 0.2 2.6 0.2 3.9 0.1 0.1 0 0.1-0.1 0-0.1z"/>
		<path class="s17" d="m136.2 49c-1.9 0-3.8-0.2-5.8-0.7-0.1 0-0.1 0.2 0 0.2 1.9 0.6 3.9 0.8 5.8 0.6q0.1 0 0-0.1z"/>
		<path class="s17" d="m136.9 49.6c-0.8 0-1.6-0.1-2.3 0-0.1 0-0.2 0.2-0.1 0.2 0.8 0.1 1.6 0.1 2.4 0.1 0.1 0 0.1-0.3 0-0.3z"/>
		<path class="s17" d="m138.7 51.2c-1.3-0.2-2.6-0.2-3.9-0.1-0.2 0-0.2 0.1 0 0.2 1.2 0.1 2.6 0.1 3.9-0.1z"/>
		<path class="s17" d="m140 52.7q-3.2-0.1-6.3-0.3c-0.1 0-0.1 0.2 0 0.2 2 0.3 4.2 0.4 6.3 0.2z"/>
		<path class="s17" d="m140.5 53.4c-0.7 0.1-1.4 0-2.1-0.1-0.1 0-0.1 0.2 0 0.2q1 0.3 2.1 0 0-0.1 0-0.1z"/>
		<path class="s17" d="m139.4 54.6c-1.6-0.2-3.3-0.4-4.9-0.5-0.1 0-0.1 0.2 0 0.2 1.6 0.2 3.3 0.3 4.9 0.5 0.1 0 0.1-0.2 0-0.2z"/>
		<path class="s17" d="m141.9 55.6c-1.2-0.1-2.3-0.1-3.4-0.4-0.1 0-0.1 0.1-0.1 0.2 1.1 0.3 2.4 0.5 3.5 0.2z"/>
		<path class="s17" d="m143 56.4c-2.9 0-5.6-0.2-8.4-0.8-0.1-0.1-0.1 0.1 0 0.1 2.6 0.9 5.6 1.2 8.4 0.7z"/>
		<path class="s17" d="m143.4 57.1c-1.8 0.2-3.6-0.1-5.4-0.5 0 0-0.1 0.1 0 0.1 1.7 0.9 3.6 0.9 5.5 0.6 0.1 0 0.1-0.2-0.1-0.2z"/>
		<path class="s17" d="m144.1 57.8c-0.8-0.1-1.7-0.1-2.5 0 0 0 0 0.2 0.1 0.2q1.2-0.1 2.4-0.2z"/>
		<path class="s17" d="m145.2 58.7c-1 0-1.9-0.1-2.9-0.1-0.1 0-0.1 0.1 0 0.2 0.9 0.2 1.9 0.1 2.9 0.1 0.1 0 0.1-0.2 0-0.2z"/>
		<path class="s17" d="m146 60.1c-1.1 0.1-2.2 0-3.3-0.2-0.1 0-0.2 0.2 0 0.2 1.1 0.3 2.2 0.4 3.3 0.2 0.1-0.1 0.1-0.2 0-0.2z"/>
		<path class="s17" d="m140 58.4c-0.8 0-1.5-0.2-2.2-0.4-0.1 0-0.1 0.1 0 0.1 0.7 0.3 1.5 0.4 2.2 0.3z"/>
		<path class="s17" d="m132.6 51.9c-0.4 0.1-0.8 0-1.3-0.1-0.1-0.1-0.2 0.1-0.1 0.2 0.5 0.3 1 0.3 1.5 0.2 0.2 0 0.1-0.3-0.1-0.3z"/>
		<path class="s17" d="m131.3 47q-0.9-0.1-1.7-0.3c-0.1 0-0.1 0.1 0 0.1 0.5 0.3 1.1 0.4 1.7 0.4 0.1 0 0.1-0.2 0-0.2z"/>
		<path class="s16" d="m380.5 202.6c0 0 18.8-1.5 15.1-22.6-12.8 1.7-18.5 13.4-15.1 22.6z"/>
		<path class="s17" d="m380.5 202.6l3.8-5c1.2-1.7 2.5-3.4 3.7-5.1q1.8-2.5 3.5-5.2c0.5-0.8 1.1-1.7 1.6-2.6 0.6-0.9 1-1.8 1.6-2.7-0.7 2-1.6 3.9-2.6 5.7-1 1.9-2.2 3.6-3.4 5.3q-1.8 2.6-3.9 5c-1.3 1.6-2.7 3.1-4.3 4.6z"/>
		<path class="s17" d="m394.7 188.4c-1-0.2-2.1 0.1-2.9 0.6-0.1 0.1 0 0.2 0.1 0.2 0.9-0.4 1.8-0.6 2.8-0.7 0.1 0 0.1-0.1 0-0.1z"/>
		<path class="s17" d="m394.7 188.9c-0.9 0.1-1.9 0.3-2.8 0.5 0 0.1 0 0.2 0.1 0.2q1.4-0.3 2.7-0.6c0.1 0 0.1-0.2 0-0.1z"/>
		<path class="s17" d="m394.4 190c-1.6 0.2-3.1 0.4-4.6 0.9-0.1 0-0.1 0.2 0 0.1 1.5-0.3 3.1-0.7 4.6-1z"/>
		<path class="s17" d="m394.2 191.1c-0.8 0.1-1.6 0.2-2.4 0.4-0.1 0 0 0.1 0.1 0.1 0.7-0.1 1.5-0.4 2.3-0.5z"/>
		<path class="s17" d="m394.3 191.8c-1.3 0.3-2.7 0.4-3.9 0.8-0.1 0.1-0.1 0.2 0 0.2 1.3-0.2 2.7-0.6 4-0.9 0.1 0 0-0.1-0.1-0.1z"/>
		<path class="s17" d="m393.4 192.9c-1.9 0.2-3.9 0.3-5.8 0.9-0.1 0-0.1 0.2 0.1 0.2 1.9-0.2 3.8-0.7 5.7-1 0.1 0 0.1-0.2 0-0.1z"/>
		<path class="s17" d="m386.4 195.3c1.4-0.2 2.7-0.6 4-0.9 0.1 0 0.1-0.2 0-0.2-1.3 0.2-2.7 0.4-4 0.9-0.1 0-0.1 0.2 0 0.2z"/>
		<path class="s17" d="m391.7 195c-1.5 0.1-3.2 0.3-4.7 0.7-0.1 0-0.1 0.2 0 0.2 1.5-0.1 3.2-0.5 4.7-0.9z"/>
		<path class="s17" d="m389 196.7c-1.2 0.1-2.5 0.1-3.7 0.2-0.1 0.1-0.1 0.2 0 0.2 1.3 0.1 2.5-0.1 3.7-0.3 0.1 0 0.1-0.1 0-0.1z"/>
		<path class="s17" d="m389.5 197.2c-1.5 0.4-3.1 0.4-4.6 0.8-0.1 0-0.1 0.2 0 0.2 1.5 0 3.2-0.5 4.6-0.9 0.1 0 0.1-0.2 0-0.1z"/>
		<path class="s17" d="m389.1 198.4q-1.1 0.3-2.2 0.3c-0.7 0-1.3-0.1-2-0.1-0.1 0-0.1 0.2 0 0.2 1.3 0.4 2.9 0 4.2-0.4q0.1 0 0 0z"/>
		<path class="s17" d="m386.7 199.5q-0.8 0.1-1.6 0.1c-0.4 0-0.9-0.1-1.4 0 0 0-0.1 0.1 0 0.1 0.9 0.4 2.1 0.1 3-0.1 0.2 0 0.1-0.2 0-0.1z"/>
		<path class="s17" d="m385.9 200.3c-1 0.3-2.1 0.2-3.1 0.3-0.1 0-0.1 0.2 0 0.2 1 0.2 2.1-0.1 3.1-0.4q0-0.1 0-0.1z"/>
		<path class="s17" d="m394 187.7c-0.7 0.1-1.4 0.1-2.1 0.1-0.1 0-0.1 0.1 0 0.1 0.7 0.1 1.4 0 2.1-0.2z"/>
		<path class="s17" d="m394.6 186.3c-0.8 0.3-1.6 0.4-2.4 0.6 0 0 0 0.2 0.1 0.2 0.8-0.1 1.6-0.3 2.3-0.6 0.1-0.1 0.1-0.2 0-0.2z"/>
		<path class="s17" d="m394.6 185.5c-0.5 0.1-1.1 0.1-1.6 0.3-0.1 0-0.1 0.1 0 0.1 0.5 0 1.1-0.2 1.6-0.3 0-0.1 0-0.1 0-0.1z"/>
		<path class="s17" d="m394.8 184.5q-0.5 0.1-0.9 0.3c-0.1 0 0 0.1 0.1 0.1q0.4-0.1 0.8-0.4 0.1 0 0 0z"/>
		<path class="s17" d="m394.5 183.5q-0.2 0-0.4 0.1c-0.1 0.1-0.1 0.2 0 0.2q0.3 0 0.5 0c0.1-0.1 0.1-0.3-0.1-0.3z"/>
		<path class="s17" d="m391.8 187.3c-0.3-1-0.4-1.9-0.4-3 0-0.1-0.2-0.1-0.2 0-0.1 1 0.1 2.1 0.6 3z"/>
		<path class="s17" d="m391.3 187.7c-0.2-1.3-0.4-2.5-0.7-3.8 0-0.1-0.2-0.1-0.2 0 0.1 1.3 0.4 2.6 0.8 3.9 0 0.1 0.2 0 0.1-0.1z"/>
		<path class="s17" d="m390.3 188.9c-0.4-1.9-0.6-3.9-0.6-5.8 0-0.1-0.1-0.1-0.1 0-0.2 1.9 0 3.9 0.7 5.8z"/>
		<path class="s17" d="m389.9 189.6c-0.2-0.7-0.3-1.5-0.5-2.2-0.1-0.1-0.2-0.1-0.2 0 0 0.8 0.2 1.5 0.4 2.3 0 0.1 0.3 0.1 0.3-0.1z"/>
		<path class="s17" d="m388.8 191.8c-0.2-1.3-0.5-2.7-0.8-3.9 0-0.1-0.2-0.1-0.2 0 0.1 1.3 0.4 2.7 0.9 3.9q0.1 0 0.1 0z"/>
		<path class="s17" d="m387.5 193.3q-0.5-3.1-1.1-6.2c0-0.1-0.2 0-0.2 0.1 0.2 2 0.6 4.1 1.2 6.1 0 0.1 0.1 0.1 0.1 0z"/>
		<path class="s17" d="m386.9 194c-0.2-0.7-0.3-1.4-0.4-2.1 0-0.1-0.1 0-0.1 0-0.1 0.8 0.1 1.4 0.5 2.1z"/>
		<path class="s17" d="m385.5 193.2c-0.1-1.6-0.2-3.3-0.5-4.9 0-0.1-0.2-0.1-0.2 0 0.1 1.7 0.4 3.3 0.6 4.9 0 0.1 0.1 0.1 0.1 0z"/>
		<path class="s17" d="m385.1 195.8c-0.1-1.1-0.4-2.2-0.4-3.4 0-0.1-0.1-0.1-0.1 0-0.2 1.1-0.1 2.4 0.5 3.4q0 0.1 0 0z"/>
		<path class="s17" d="m384.6 197.1c-0.7-2.8-1-5.5-1-8.4 0-0.1-0.2-0.1-0.2 0-0.3 2.8 0.1 5.8 1.2 8.4z"/>
		<path class="s17" d="m384 197.7c-0.7-1.8-0.7-3.6-0.7-5.4 0-0.1-0.1-0.1-0.2 0-0.4 1.8 0 3.7 0.7 5.4 0 0.2 0.2 0.1 0.2 0z"/>
		<path class="s17" d="m383.4 198.4c0-0.7-0.2-1.6-0.5-2.3-0.1-0.1-0.2-0.1-0.2 0q0.3 1.2 0.7 2.3 0 0.1 0 0z"/>
		<path class="s17" d="m382.8 199.7c-0.2-0.9-0.3-1.9-0.6-2.8 0-0.1-0.1-0.1-0.1 0 0 1 0.3 1.9 0.5 2.9 0 0.1 0.3 0.1 0.2-0.1z"/>
		<path class="s17" d="m381.6 200.8c-0.3-1-0.5-2.1-0.5-3.2 0-0.2-0.3-0.2-0.3 0 0 1.1 0.2 2.3 0.7 3.3 0 0.1 0.1 0 0.1-0.1z"/>
		<path class="s17" d="m381.9 194.6c-0.1-0.8-0.1-1.5-0.1-2.2 0-0.1-0.1-0.1-0.1 0-0.1 0.7 0 1.5 0.2 2.2z"/>
		<path class="s17" d="m386.7 186c-0.2-0.4-0.2-0.8-0.2-1.3 0.1-0.1-0.1-0.2-0.2 0-0.1 0.4-0.1 0.9 0.1 1.4 0.1 0.2 0.4 0.1 0.3-0.1z"/>
		<path class="s17" d="m391.2 183.6q0-0.8-0.1-1.7c0-0.1-0.1-0.1-0.1 0-0.2 0.6-0.2 1.2 0 1.7 0.1 0.1 0.2 0.1 0.2 0z"/>
		<g id="Clip-Path">
			<g>
			</g>
		</g>
	</g>
</svg>