<svg version="1.2" xmlns="http://www.w3.org/2000/svg" viewBox="275.95863749999995 331.1356625 10.558300000000031 10.558799999999962" width="30" height="28">
	<title>New Project</title>
	<style>
		.s0 { fill: #2f4f4f } 
		.s1 { fill: #474747 } 
	</style>
	<g id="&lt;Group&gt;">
		<path id="&lt;Compound Path&gt;" class="s0" d="m283.2 331.1h-3.9c-1.9 0-3.3 1.5-3.3 3.3v4c0 1.8 1.4 3.3 3.3 3.3h3.9c1.8 0 3.3-1.5 3.3-3.3v-4c0-1.8-1.5-3.3-3.3-3.3zm2.3 7.3c0 1.3-1 2.3-2.3 2.3h-3.9c-1.3 0-2.4-1-2.4-2.3v-4c0-1.2 1.1-2.3 2.4-2.3h3.9c1.3 0 2.3 1.1 2.3 2.3z"/>
		<path id="&lt;Compound Path&gt;" class="s0" d="m281.2 333.8c-1.4 0-2.6 1.2-2.6 2.6 0 1.5 1.2 2.7 2.6 2.7 1.5 0 2.7-1.2 2.7-2.7 0-1.4-1.2-2.6-2.7-2.6zm0 4.3c-0.9 0-1.6-0.8-1.6-1.7 0-0.9 0.7-1.6 1.6-1.6 0.9 0 1.7 0.7 1.7 1.6 0 0.9-0.8 1.7-1.7 1.7z"/>
		<path id="&lt;Path&gt;" class="s1" d="m284.1 333.2c0.2 0 0.3 0.2 0.3 0.4 0 0.2-0.1 0.3-0.3 0.3-0.2 0-0.4-0.1-0.4-0.3 0-0.2 0.2-0.4 0.4-0.4z"/>
	</g>
	<g id="&lt;Group&gt;">
	</g>
	<g id="Layer 1">
	</g>
</svg>